<svg width="340" height="75" viewBox="0 0 340 75" fill="none" xmlns="http://www.w3.org/2000/svg">
<path d="M316.086 5.15648V0H340V5.15648H331.085V29.5811H325V5.15648H316.086Z" fill="#132A7E"/>
<path d="M289.721 29.5811V0H301.208C303.407 0 305.284 0.399615 306.839 1.19885C308.402 1.98845 309.592 3.11026 310.407 4.56428C311.232 6.00867 311.644 7.70823 311.644 9.66298C311.644 11.6273 311.227 13.3173 310.393 14.7328C309.559 16.1387 308.35 17.2171 306.767 17.9682C305.194 18.7193 303.289 19.0949 301.052 19.0949H293.36V14.0684H300.057C301.232 14.0684 302.208 13.9047 302.986 13.5773C303.763 13.2499 304.341 12.7588 304.72 12.104C305.109 11.4492 305.303 10.6355 305.303 9.66298C305.303 8.68079 305.109 7.85267 304.72 7.17862C304.341 6.50457 303.758 5.99422 302.971 5.64757C302.194 5.29129 301.213 5.11315 300.028 5.11315H295.877V29.5811H289.721ZM305.445 16.1194L312.682 29.5811H305.886L298.806 16.1194H305.445Z" fill="#132A7E"/>
<path d="M277.298 0H283.454V19.2104C283.454 21.3674 282.947 23.2547 281.932 24.8724C280.928 26.4901 279.52 27.7516 277.71 28.6567C275.9 29.5522 273.791 30 271.383 30C268.966 30 266.852 29.5522 265.042 28.6567C263.232 27.7516 261.824 26.4901 260.82 24.8724C259.815 23.2547 259.312 21.3674 259.312 19.2104V0H265.469V18.676C265.469 19.8026 265.71 20.804 266.194 21.6803C266.687 22.5566 267.379 23.2451 268.27 23.7458C269.16 24.2465 270.198 24.4969 271.383 24.4969C272.577 24.4969 273.615 24.2465 274.497 23.7458C275.388 23.2451 276.075 22.5566 276.558 21.6803C277.051 20.804 277.298 19.8026 277.298 18.676V0Z" fill="#132A7E"/>
<path d="M234.692 29.5811V0H253.971V5.15648H240.849V12.2051H252.692V17.3616H240.849V29.5811H234.692Z" fill="#132A7E"/>
<path d="M205.888 29.5811V0H212.044V13.0429H212.428L222.906 0H230.285L219.48 13.2451L230.413 29.5811H223.048L215.072 17.4194L212.044 21.1748V29.5811H205.888Z" fill="#132A7E"/>
<path d="M199.601 0V29.5811H194.283L181.616 10.9629H181.402V29.5811H175.246V0H180.649L193.217 18.6038H193.473V0H199.601Z" fill="#132A7E"/>
<path d="M149.114 29.5811H142.518L152.569 0H160.503L170.54 29.5811H163.943L156.65 6.75975H156.422L149.114 29.5811ZM148.702 17.9538H164.285V22.8358H148.702V17.9538Z" fill="#132A7E"/>
<path d="M116.621 29.5811V0H128.109C130.308 0 132.184 0.399615 133.739 1.19885C135.303 1.98845 136.492 3.11026 137.307 4.56428C138.132 6.00867 138.544 7.70823 138.544 9.66298C138.544 11.6273 138.127 13.3173 137.293 14.7328C136.459 16.1387 135.251 17.2171 133.668 17.9682C132.094 18.7193 130.189 19.0949 127.952 19.0949H120.261V14.0684H126.957C128.132 14.0684 129.109 13.9047 129.886 13.5773C130.663 13.2499 131.241 12.7588 131.621 12.104C132.009 11.4492 132.203 10.6355 132.203 9.66298C132.203 8.68079 132.009 7.85267 131.621 7.17862C131.241 6.50457 130.658 5.99422 129.872 5.64757C129.095 5.29129 128.114 5.11315 126.929 5.11315H122.777V29.5811H116.621ZM132.346 16.1194L139.582 29.5811H132.786L125.706 16.1194H132.346Z" fill="#132A7E"/>
<path d="M92 29.5811V0H111.279V5.15648H98.1562V12.2051H109.999V17.3616H98.1562V29.5811H92Z" fill="#132A7E"/>
<path d="M227.328 74.278V53.2313H231.628L241.91 67.3627V53.2313H246V74.278H241.91L231.447 59.8761V74.278H227.328Z" fill="#132A7E"/>
<path d="M198.418 74.278V53.2313H206.235C207.719 53.2313 209.032 53.522 210.174 54.1033C211.317 54.6846 212.209 55.4863 212.85 56.5086C213.491 57.5108 213.812 58.6834 213.812 60.0264C213.812 61.3493 213.471 62.532 212.79 63.5743C212.128 64.5966 211.216 65.3983 210.054 65.9796C208.891 66.5409 207.568 66.8215 206.085 66.8215H202.537V74.278H198.418ZM209.994 74.278L205.123 65.8293L208.28 63.5743L214.654 74.278H209.994ZM202.537 63.0631H206.265C206.887 63.0631 207.438 62.9329 207.919 62.6723C208.42 62.4117 208.811 62.0509 209.092 61.5899C209.392 61.1289 209.543 60.6077 209.543 60.0264C209.543 59.1244 209.212 58.3928 208.55 57.8315C207.909 57.2703 207.077 56.9897 206.055 56.9897H202.537V63.0631Z" fill="#132A7E"/>
<path d="M171.82 74.278V53.2313H185.14V56.9897H175.939V61.7703H183.877V65.4384H175.939V70.5197H185.26V74.278H171.82Z" fill="#132A7E"/>
<path d="M148.068 74.278V56.9897H141.754V53.2313H158.471V56.9897H152.187V74.278H148.068Z" fill="#132A7E"/>
<path d="M109.374 74.278V53.2313H113.674L123.956 67.3627V53.2313H128.045V74.278H123.956L113.493 59.8761V74.278H109.374Z" fill="#132A7E"/>
<path d="M92 74.0467V53H96.1191V74.0467H92Z" fill="#132A7E"/>
<rect y="61" width="61" height="14" transform="rotate(-90 0 61)" fill="#132A7E"/>
<rect x="54" y="46" width="33" height="14" transform="rotate(-90 54 46)" fill="#132A7E"/>
<rect x="68" y="14" width="55" height="14" transform="rotate(180 68 14)" fill="#132A7E"/>
<rect x="68" y="74" width="68" height="14" transform="rotate(180 68 74)" fill="#132A7E"/>
<path d="M34 27C39.5228 27 44 31.4772 44 37C44 42.5228 39.5228 47 34 47C28.4772 47 24 42.5228 24 37C24 31.4772 28.4772 27 34 27Z" fill="#132A7E"/>
</svg>
