<svg width="48" height="48" viewBox="0 0 48 48" fill="none" xmlns="http://www.w3.org/2000/svg">
<g id="touch-id 2">
<path id="Vector" d="M6 28.5V46.5" stroke="#5CBBFF" stroke-width="3" stroke-linecap="round" stroke-linejoin="round"/>
<path id="Vector_2" d="M32.9565 4.288C30.2371 2.47657 27.044 1.50684 23.7765 1.5C14.7405 1.5 7.22653 8.906 6.14453 18.4" stroke="#5CBBFF" stroke-width="3" stroke-linecap="round" stroke-linejoin="round"/>
<path id="Vector_3" d="M42.0009 46.5V20.75C42.0073 17.7244 41.3398 14.7354 40.0469 12" stroke="#5CBBFF" stroke-width="3" stroke-linecap="round" stroke-linejoin="round"/>
<path id="Vector_4" d="M36 31.5V22.5C36 15.074 30.6 9 24 9C17.4 9 12 15.074 12 22.5V46.5" stroke="#5CBBFF" stroke-width="3" stroke-linecap="round" stroke-linejoin="round"/>
<path id="Vector_5" d="M36 46.5V37.5" stroke="#5CBBFF" stroke-width="3" stroke-linecap="round" stroke-linejoin="round"/>
<path id="Vector_6" d="M18 34.5V46.5" stroke="#5CBBFF" stroke-width="3" stroke-linecap="round" stroke-linejoin="round"/>
<path id="Vector_7" d="M30 46.5V24C30 19.874 27.3 16.5 24 16.5C20.7 16.5 18 19.874 18 24V28.5" stroke="#5CBBFF" stroke-width="3" stroke-linecap="round" stroke-linejoin="round"/>
<path id="Vector_8" d="M24 40.5V46.5" stroke="#5CBBFF" stroke-width="3" stroke-linecap="round" stroke-linejoin="round"/>
<path id="Vector_9" d="M24 22.5V34.5" stroke="#5CBBFF" stroke-width="3" stroke-linecap="round" stroke-linejoin="round"/>
</g>
</svg>
