<svg width="48" height="48" viewBox="0 0 48 48" fill="none" xmlns="http://www.w3.org/2000/svg">
<g id="icon-instagram" clip-path="url(#clip0_758_984)">
<circle id="Ellipse 3" cx="24" cy="24" r="24" fill="#292929"/>
<path id="Vector" d="M25.3296 12.8064L27.6132 17.2926C28.0825 18.2146 29.0295 18.7951 30.064 18.7951H33.5816C33.9577 18.7951 34.3183 18.9439 34.5842 19.2088C34.8501 19.4737 34.9995 19.833 34.9995 20.2076C35.0047 20.4049 34.9682 20.6012 34.8925 20.7836C34.8168 20.9661 34.7035 21.1307 34.56 21.2669L31.1506 24.6025C30.3349 25.4005 30.0968 26.6194 30.5522 27.6657L32.4332 31.9872C32.5636 32.2639 32.6004 32.5752 32.5381 32.8744C32.4757 33.1737 32.3177 33.4447 32.0876 33.6469C31.8575 33.849 31.5678 33.9714 31.2619 33.9956C30.9561 34.0198 30.6507 33.9445 30.3914 33.781L25.3408 30.9475C24.5059 30.4791 23.4874 30.4786 22.652 30.9462L17.588 33.781C17.4256 33.8766 17.2456 33.939 17.0587 33.9645C16.8718 33.9899 16.6816 33.978 16.4994 33.9293C16.3172 33.8806 16.1465 33.7962 15.9975 33.681C15.8484 33.5658 15.7239 33.4222 15.6313 33.2584C15.5181 33.068 15.4515 32.8537 15.4367 32.6329C15.4219 32.4121 15.4595 32.1909 15.5462 31.9872L17.4284 27.6628C17.8831 26.6179 17.6463 25.4008 16.833 24.6026L13.4194 21.2528C13.2865 21.1215 13.181 20.9652 13.109 20.7931C13.0371 20.621 13 20.4364 13 20.2499C13 20.0635 13.0371 19.8789 13.109 19.7067C13.181 19.5346 13.2865 19.3784 13.4194 19.2471C13.5591 19.1081 13.7249 18.9979 13.9074 18.9228C14.0898 18.8477 14.2854 18.8091 14.4828 18.8092H17.9987C19.0341 18.8092 19.9818 18.2276 20.4506 17.3044L22.7348 12.8064C22.8175 12.6331 22.9347 12.4784 23.0793 12.3517C23.2239 12.2251 23.3929 12.1291 23.576 12.0696C23.7591 12.0101 23.9525 11.9884 24.1442 12.0058C24.336 12.0232 24.5222 12.0794 24.6915 12.1708C24.9635 12.314 25.1858 12.5355 25.3296 12.8064Z" fill="white"/>
</g>
<defs>
<clipPath id="clip0_758_984">
<rect width="48" height="48" fill="white"/>
</clipPath>
</defs>
</svg>
