<svg width="448" height="403" viewBox="0 0 448 403" fill="none" xmlns="http://www.w3.org/2000/svg">
<path d="M215.912 0L215.209 131.763C215.209 163.069 210.051 195.543 199.736 229.184C189.421 262.826 175.121 294.832 156.835 325.203C138.549 355.574 117.685 381.507 94.2418 403L0 349.033C18.2857 318.195 32.5861 285.488 42.9011 250.911C53.685 216.335 59.0769 176.853 59.0769 132.464V0H215.912ZM448 0V131.763C448 163.069 442.374 195.543 431.121 229.184C419.868 262.826 404.63 294.832 385.407 325.203C366.652 355.574 345.553 381.507 322.11 403L227.868 349.033C246.154 318.195 261.158 285.488 272.879 250.911C285.07 216.335 291.165 176.853 291.165 132.464V0H448Z" fill="#5B0183"/>
</svg>
