<svg width="48" height="48" viewBox="0 0 48 48" fill="none" xmlns="http://www.w3.org/2000/svg">
<g id="time-clock-fire 2">
<path id="Vector" d="M23.3379 46.5C30.7937 46.5 36.8379 40.4558 36.8379 33C36.8379 25.5442 30.7937 19.5 23.3379 19.5C15.882 19.5 9.83789 25.5442 9.83789 33C9.83789 40.4558 15.882 46.5 23.3379 46.5Z" stroke="#5CBBFF" stroke-width="3" stroke-linecap="round" stroke-linejoin="round"/>
<path id="Vector_2" d="M21.5 25.5V33L27.5 37.5" stroke="#5CBBFF" stroke-width="3" stroke-linecap="round" stroke-linejoin="round"/>
<path id="Vector_3" d="M36.7579 31.528C38.9775 30.8085 40.9096 29.3995 42.2729 27.5059C43.6362 25.6124 44.3597 23.3332 44.3379 21C44.2691 17.0461 42.6536 13.2766 39.8379 10.5C39.7528 11.1952 39.5281 11.8661 39.1773 12.4724C38.8265 13.0787 38.3568 13.6078 37.7965 14.0281C37.2361 14.4483 36.5967 14.751 35.9164 14.9181C35.2362 15.0851 34.5292 15.113 33.8379 15C31.9247 13.3916 30.5943 11.198 30.0521 8.75797C29.5098 6.31799 29.786 3.76737 30.8379 1.5C21.4619 1.5 15.4619 7.032 14.3379 15C12.9548 15.1444 11.568 14.7611 10.4555 13.9266C9.3429 13.0922 8.58659 11.8683 8.33795 10.5C0.809948 16.9 2.63195 28.586 9.91595 31.534" stroke="#5CBBFF" stroke-width="3" stroke-linecap="round" stroke-linejoin="round"/>
</g>
</svg>
