<svg width="66" height="66" viewBox="0 0 66 66" fill="none" xmlns="http://www.w3.org/2000/svg">
<path d="M65 33C65 50.6731 50.6731 65 33 65C15.3269 65 1 50.6731 1 33C1 15.3269 15.3269 1 33 1C42.1514 1 50.4056 4.84154 56.238 11C61.669 16.7347 65 24.4783 65 33Z" stroke="#3D3D3D"/>
<path d="M65 33C65 50.6731 50.6731 65 33 65C15.3269 65 1 50.6731 1 33C1 15.3269 15.3269 1 33 1" stroke="white"/>
<path d="M22.9998 34.7275L32.8993 44.627L42.7988 34.7275" stroke="white" stroke-width="2" stroke-linecap="square"/>
<path d="M32.8994 43.2129L32.8994 21.9997" stroke="white" stroke-width="2" stroke-linecap="square"/>
</svg>
