<svg width="48" height="48" viewBox="0 0 48 48" fill="none" xmlns="http://www.w3.org/2000/svg">
<g id="shield-check-1 2" clip-path="url(#clip0_754_2178)">
<path id="Vector" d="M4.50007 7.84591V23.0739C4.50011 27.8872 5.9587 32.5875 8.68358 36.5552C11.4085 40.5229 15.2717 43.5718 19.7641 45.2999L21.8461 46.0999C23.2326 46.6332 24.7676 46.6332 26.1541 46.0999L28.2361 45.2999C32.7284 43.5718 36.5917 40.5229 39.3165 36.5552C42.0414 32.5875 43.5 27.8872 43.5001 23.0739V7.84591C43.5039 7.27288 43.3421 6.71094 43.0341 6.22769C42.7261 5.74443 42.2851 5.36045 41.7641 5.12191C36.1637 2.67749 30.1104 1.44323 24.0001 1.49991C17.8898 1.44323 11.8364 2.67749 6.23607 5.12191C5.71502 5.36045 5.27399 5.74443 4.96601 6.22769C4.65804 6.71094 4.49623 7.27288 4.50007 7.84591Z" stroke="#5CBBFF" stroke-width="3" stroke-linecap="round" stroke-linejoin="round"/>
<path id="Vector_2" d="M34.4001 22.5C34.1126 24.4917 33.2589 26.3588 31.9405 27.8791C30.6221 29.3994 28.8947 30.5089 26.9637 31.0753C25.0328 31.6418 22.9797 31.6415 21.0489 31.0745C19.1182 30.5074 17.391 29.3975 16.0731 27.8768C14.7552 26.3561 13.902 24.4887 13.6151 22.4969C13.3282 20.5052 13.6197 18.4729 14.4549 16.6421C15.2901 14.8113 16.6338 13.259 18.326 12.1701C20.0183 11.0812 21.9878 10.5015 24.0001 10.5" stroke="#5CBBFF" stroke-width="3" stroke-linecap="round" stroke-linejoin="round"/>
<path id="Vector_3" d="M34.5003 13.123L24.9283 22.695C24.6819 22.9408 24.3482 23.0788 24.0003 23.0788C23.6523 23.0788 23.3186 22.9408 23.0723 22.695L20.0723 19.685" stroke="#5CBBFF" stroke-width="3" stroke-linecap="round" stroke-linejoin="round"/>
</g>
<defs>
<clipPath id="clip0_754_2178">
<rect width="48" height="48" fill="white"/>
</clipPath>
</defs>
</svg>
