<svg width="48" height="48" viewBox="0 0 48 48" fill="none" xmlns="http://www.w3.org/2000/svg">
<g clip-path="url(#clip0_758_976)">
<circle cx="24" cy="24" r="24" fill="#D66800"/>
<g clip-path="url(#clip1_758_976)">
<path d="M24.2451 21.8184V26.4657H30.8351C30.5457 27.9602 29.6774 29.2257 28.375 30.0766L32.349 33.0985C34.6644 31.004 36.0002 27.9276 36.0002 24.273C36.0002 23.4221 35.9223 22.6039 35.7776 21.8185L24.2451 21.8184Z" fill="white"/>
<path d="M17.3824 26.2842L16.4861 26.9566L13.3135 29.3784C15.3283 33.2947 19.4579 36.0002 24.2445 36.0002C27.5506 36.0002 30.3224 34.9311 32.3484 33.0984L28.3744 30.0766C27.2835 30.7966 25.892 31.233 24.2445 31.233C21.0609 31.233 18.3559 29.1275 17.3874 26.2911L17.3824 26.2842Z" fill="white"/>
<path d="M13.3135 18.6221C12.4786 20.2366 12 22.0584 12 24.0002C12 25.942 12.4786 27.7639 13.3135 29.3784C13.3135 29.3892 17.3878 26.2802 17.3878 26.2802C17.1429 25.5602 16.9981 24.7966 16.9981 24.0001C16.9981 23.2036 17.1429 22.44 17.3878 21.72L13.3135 18.6221Z" fill="white"/>
<path d="M24.2448 16.7782C26.0482 16.7782 27.6511 17.3891 28.9313 18.5673L32.4378 15.131C30.3116 13.1892 27.551 12 24.2448 12C19.4582 12 15.3283 14.6946 13.3135 18.6219L17.3877 21.7201C18.3561 18.8837 21.0611 16.7782 24.2448 16.7782Z" fill="white"/>
</g>
</g>
<defs>
<clipPath id="clip0_758_976">
<rect width="48" height="48" fill="white"/>
</clipPath>
<clipPath id="clip1_758_976">
<rect width="24" height="24" fill="white" transform="translate(12 12)"/>
</clipPath>
</defs>
</svg>
