<svg width="203" height="45" viewBox="0 0 203 45" fill="none" xmlns="http://www.w3.org/2000/svg">
<path fill-rule="evenodd" clip-rule="evenodd" d="M195.033 13.581V4.2786C195.033 3.5361 194.768 3.2868 194.039 3.2868H191.903V4.3137H192.102C192.549 4.3137 192.698 4.4613 192.698 4.923V13.581H195.033ZM196.292 13.581H198.595V6.5601C198.595 5.8482 198.312 5.5665 197.599 5.5665H196.292V13.581ZM191.439 13.581V5.5665H190.13C189.417 5.5665 189.136 5.8482 189.136 6.5601V13.581H191.439ZM201.277 8.9046C201.277 13.2516 198.148 16.4232 193.857 16.4232C189.583 16.4232 186.454 13.2516 186.454 8.9046C186.454 4.5594 189.583 1.3878 193.857 1.3878C198.148 1.3878 201.277 4.5594 201.277 8.9046ZM202.801 8.9046C202.801 3.8169 198.974 0 193.857 0C188.755 0 184.931 3.8169 184.931 8.9046C184.931 14.0103 188.755 17.8272 193.874 17.8272C198.974 17.8272 202.801 14.0103 202.801 8.9046Z" fill="white"/>
<path fill-rule="evenodd" clip-rule="evenodd" d="M171.175 18.1619C170.313 18.1619 169.45 18.2078 168.86 18.2969V27.1295C169.267 27.1745 170.085 27.2186 170.993 27.2186C174.534 27.2186 176.712 25.4087 176.712 22.5557C176.712 19.6118 174.897 18.1619 171.175 18.1619ZM177.62 44.1098L169.087 31.4765H168.86V44.1098H162.958V13.5431C165.365 13.4072 168.224 13.3613 171.766 13.3613C178.529 13.3613 182.886 15.7166 182.886 21.9662C182.886 26.495 179.708 29.7548 175.079 30.4811C175.941 31.6124 176.804 32.7887 177.575 33.8318L184.931 44.1098H177.62Z" fill="white"/>
<path fill-rule="evenodd" clip-rule="evenodd" d="M140.574 44.1088V13.543H157.236V18.4777H146.476V25.9963H156.69V30.7969H146.476V39.0832H157.236V44.1088H140.574Z" fill="white"/>
<path fill-rule="evenodd" clip-rule="evenodd" d="M121.098 44.1088V13.543H126.998V38.9473H136.94V44.1088H121.098Z" fill="white"/>
<path fill-rule="evenodd" clip-rule="evenodd" d="M100.298 18.2969C98.9368 18.2969 97.6647 18.3437 96.7128 18.4337V39.0392C97.5284 39.1751 98.7563 39.2651 99.9337 39.2651C105.701 39.2651 109.878 36.0044 109.878 28.7594C109.878 22.1921 107.29 18.2969 100.298 18.2969ZM99.3455 44.2907C96.167 44.2907 93.398 44.1557 90.8096 44.0657V13.5881C93.2167 13.4972 96.9393 13.3613 100.706 13.3613C110.194 13.3613 116.232 17.5733 116.232 28.3067C116.232 38.8124 109.331 44.2907 99.3455 44.2907Z" fill="white"/>
<path fill-rule="evenodd" clip-rule="evenodd" d="M75.9603 44.1088L66.9714 28.6684C65.6091 26.359 64.5652 24.0946 63.6585 22.102C63.838 24.7282 63.931 29.5288 63.931 33.1972V44.1088H58.21V13.543H65.8816L74.4175 28.1257C75.824 30.4801 77.0511 33.0154 78.1843 35.3248C77.9587 32.245 77.8676 26.8108 77.8676 23.0524V13.543H83.5868V44.1088H75.9603Z" fill="white"/>
<path fill-rule="evenodd" clip-rule="evenodd" d="M38.5033 44.6083C28.8341 44.6083 26.6553 39.3568 26.6553 33.5149V13.543H32.5567V33.1522C32.5567 37.0015 33.827 39.7186 38.912 39.7186C43.4501 39.7186 45.3583 37.8169 45.3583 32.6086V13.543H51.2147V32.2459C51.2147 40.6222 46.5845 44.6083 38.5033 44.6083Z" fill="white"/>
<path fill-rule="evenodd" clip-rule="evenodd" d="M15.8457 13.543L5.90324 27.4003V13.543H0V44.1088H5.90324V29.4379L15.7537 44.1088H23.5164L11.8056 28.3066L23.0184 13.543H15.8457Z" fill="white"/>
</svg>
