<svg width="221" height="68" viewBox="0 0 221 68" fill="none" xmlns="http://www.w3.org/2000/svg">
<g clip-path="url(#clip0_2124_2234)">
<path d="M110.198 0.484375V20.2581L120.205 9.64783H126.475L126.718 10.1301L117.458 19.689L127.078 34.0033H120.687L113.453 23.639L110.198 27.1307V46.0605C113.906 40.4877 123.62 40.7915 125.698 47.5604C125.915 48.2645 126.354 50.1262 126.354 50.7628V66.7988H120.567V52.2096C120.567 50.8954 119.31 48.5756 118.083 47.9414C116.725 47.2397 113.911 47.2807 112.621 48.1223C111.685 48.7324 110.198 50.8761 110.198 51.9685V66.7988H104.41V0.484375H110.198Z" fill="black"/>
<path d="M38.096 0.484375V13.5061L39.7816 11.6951C50.5752 3.79769 61.0215 16.4722 56.3892 27.5793C53.2013 35.2235 43.5555 37.0875 38.096 30.6273V34.0033H32.3086V0.84609L32.6703 0.484375H38.096ZM43.8208 14.2874C36.1621 15.4931 36.3477 28.1821 43.3385 29.3637C54.706 31.2856 54.0477 12.679 43.8208 14.2874Z" fill="black"/>
<path d="M22.1791 34.0035H16.6328V31.3509C13.932 33.7503 11.2553 34.804 7.58028 34.4954C4.28867 34.2181 0.712511 31.7873 0.254338 28.3173C-0.992373 18.8669 9.93383 17.7624 16.6304 20.0171C16.6955 15.5897 13.4835 14.2152 9.52148 14.4757C7.55375 14.6035 5.75723 15.4788 3.84738 15.8164L2.38363 11.4903C6.78691 8.9607 16.1336 8.10947 19.7604 12.1848C20.643 13.1759 22.1767 16.2167 22.1767 17.4851V34.0035H22.1791ZM16.6111 23.6584C13.7198 22.812 7.34396 21.8474 6.03214 25.4501C5.1592 27.8519 6.96295 29.8027 9.29963 30.1259C13.4907 30.707 17.4889 28.298 16.6087 23.6584H16.6111Z" fill="black"/>
<path d="M81.2601 23.8755H63.6566C64.4452 29.4531 70.1747 31.4112 74.8216 28.6501C75.6607 28.151 76.1961 27.4854 77.0063 27.0272L80.2907 30.0246C74.906 36.591 63.8399 36.0532 59.5934 28.5416C54.4064 19.3709 61.4936 7.23418 72.4005 9.46476C79.0512 10.8248 82.0294 17.625 81.2601 23.8755ZM75.7138 20.0172C74.918 11.8931 64.5416 12.0305 63.6566 20.0172H75.7138Z" fill="black"/>
<path d="M94.0004 9.2302C97.7718 9.09275 101.522 10.4456 103.904 13.4189L100.639 17.0842C99.578 16.7804 98.9872 15.8158 97.972 15.2395C93.3035 12.5845 88.0369 15.647 87.5329 20.8605C86.7275 29.1872 95.5172 32.5367 100.914 26.5298L104.152 29.8142C98.3819 37.8563 85.1094 35.2785 82.2953 25.8546C79.8549 17.6799 85.4277 9.53886 94.0004 9.22779V9.2302Z" fill="black"/>
<path d="M30.139 0.484375H24.3516V34.0033H30.139V0.484375Z" fill="black"/>
<path d="M179.166 33.5215V46.0609C181.79 42.8899 184.65 41.6553 188.824 42.3112C192.26 42.8513 195.323 46.6059 195.323 50.0398V66.7993H189.536V51.7278C189.536 51.5228 188.981 50.088 188.819 49.7914C186.883 46.1863 181.156 46.8037 179.702 50.5751C179.593 50.8549 179.166 52.2921 179.166 52.4512V67.0404L173.379 66.7993V33.5215H179.166Z" fill="black"/>
<path d="M149.505 66.7989H143.718V64.3875C137.887 70.2063 125.114 67.3125 127.629 57.5824C129.305 51.1029 138.601 51.2958 143.718 52.8126C144.058 47.8523 139.905 47.1385 135.885 47.5122C134.144 47.6738 132.671 48.5709 130.961 48.6938L129.522 44.5197C134.115 41.6139 143.551 40.929 147.294 45.5011C148.447 46.9118 149.505 49.9285 149.505 51.7298V66.8013V66.7989ZM143.925 56.7046C141.077 55.429 133.585 54.6766 133.103 58.9545C132.615 63.2903 137.892 63.6616 140.892 62.4029C143.272 61.4045 144.246 59.2149 143.925 56.7046Z" fill="black"/>
<path d="M220.159 56.9123H202.556C203.376 63.6378 211.736 64.477 215.698 59.8157L218.708 62.3429L218.927 63.0181C212.997 70.1849 200.834 68.5306 197.55 59.6276C194.012 50.0325 201.531 39.9551 211.963 42.5619C216.11 43.5988 220.159 48.6532 220.159 52.9335V56.9123ZM214.613 53.054C213.559 44.684 203.503 44.8672 202.315 53.054H214.613Z" fill="black"/>
<path d="M77.8686 48.9383C75.1678 48.1955 71.3288 45.4296 68.4929 47.3974C66.055 49.0878 68.3145 50.7854 70.1086 51.5498C74.2249 53.3054 80.6225 53.901 80.5236 59.8886C80.3668 69.4379 66.5638 68.6059 61.3599 63.9084L61.2852 63.3586L63.4241 59.8066C65.6571 60.9858 67.6755 62.4664 70.2967 62.6955C72.2307 62.8667 74.6156 62.8571 75.2353 60.6265C75.2667 59.6788 74.8181 58.9554 74.0682 58.4417C70.2509 55.8301 61.8856 56.7248 62.2111 49.3265C62.5873 40.7997 74.6831 40.8672 79.805 45.0076L77.871 48.9383H77.8686Z" fill="black"/>
<path d="M168.954 49.5265C165.332 46.4375 160.087 46.042 157.577 50.6358C153.036 58.9408 162.935 66.9058 169.525 59.6787H170.239L173.111 62.6303L173.024 63.1801C164.181 72.9416 148.124 65.0031 151.061 51.8391C153.291 41.8413 166.542 38.733 173.133 46.4254L169.402 50.1632C169.226 50.1198 169.12 49.6688 168.954 49.5265Z" fill="black"/>
<path d="M91.5795 42.2703C96.1081 41.7542 100.217 42.8948 103.205 46.4228L99.7156 50.1171C97.9047 48.7763 96.8316 47.4549 94.4177 47.2571C85.0686 46.4975 83.9087 59.9895 91.7724 62.2008C95.1821 63.1605 97.4802 61.663 99.9568 59.5554L103.222 62.8205C96.9256 71.0098 83.26 67.9231 81.0945 57.689C79.6067 50.6524 84.2294 43.107 91.5843 42.2679L91.5795 42.2703Z" fill="black"/>
</g>
<defs>
<clipPath id="clip0_2124_2234">
<rect width="220" height="67.0403" fill="white" transform="translate(0.160156 0.484375)"/>
</clipPath>
</defs>
</svg>
