<svg width="118" height="118" viewBox="0 0 118 118" fill="none" xmlns="http://www.w3.org/2000/svg">
<g clip-path="url(#clip0_2168_1898)">
<path d="M57.2481 0.220911C46.9354 0.601953 37.4769 3.39216 28.8236 8.59768C24.7305 11.0622 21.1475 13.8831 17.6013 17.4231C15.0016 20.0228 13.0165 22.3766 10.9945 25.259C5.12526 33.6235 1.55453 43.3831 0.651096 53.5606C0.466721 55.6072 0.411409 57.2604 0.448284 59.645C0.491305 62.5704 0.614221 64.1867 0.989117 66.8663C3.64412 85.8201 15.524 102.389 32.6955 111.079C39.5604 114.558 46.8002 116.562 54.759 117.207C56.0927 117.311 60.4623 117.348 61.9558 117.268C72.2193 116.697 81.6778 113.679 90.2942 108.222C95.3215 105.032 100.06 100.871 103.963 96.2065C111.325 87.4057 115.99 76.4784 117.231 65.1516C117.631 61.4887 117.674 57.2051 117.348 53.5606C116.469 43.7027 113.071 34.1828 107.503 25.9965C101.83 17.6505 94.0985 10.8716 85.1809 6.42206C77.9718 2.8206 70.5845 0.823203 62.5642 0.313099C61.5317 0.245494 58.1454 0.190182 57.2481 0.220911ZM61.2429 2.18143C62.4229 2.21216 63.9716 2.32279 65.2069 2.45799C78.0149 3.89612 89.8087 9.56872 98.9476 18.683C106.372 26.0826 111.516 35.1354 114.011 45.2023C116.813 56.5106 116.027 68.5134 111.762 79.3424C108.265 88.2415 102.537 96.1512 95.1371 102.322C89.0896 107.361 81.8806 111.165 74.3642 113.292C64.8566 115.978 54.8082 116.131 45.2637 113.734C36.3707 111.51 28.166 107.14 21.2212 100.933C20.2747 100.091 17.546 97.3435 16.7102 96.3971C9.46422 88.2047 4.82412 78.4942 3.0787 67.8681C2.2613 62.9023 2.11995 57.5984 2.67308 52.5404C4.09276 39.5542 10.0911 27.3425 19.5495 18.1667C29.7455 8.27809 43.1864 2.55633 57.1866 2.15685C58.0655 2.13227 59.0611 2.11997 59.3991 2.13227C59.7371 2.13841 60.5668 2.16299 61.2429 2.18143Z" fill="black"/>
<path d="M55.4359 9.50687L54.3543 9.72198L53.9978 13.1391C53.8011 15.0197 53.6168 16.6852 53.5983 16.8389L53.5615 17.1093L51.7976 13.9442C50.8266 12.2049 49.9969 10.7299 49.9477 10.6684C49.8678 10.5578 49.8371 10.5578 48.9459 10.7237C48.442 10.8159 48.0118 10.9081 47.9872 10.9327C47.9626 10.9511 47.7352 12.5859 47.4771 14.5649C47.2251 16.5439 47.01 18.2032 46.9977 18.2524C46.9731 18.3753 46.8994 18.2462 45.0802 14.8107C44.2136 13.1698 43.4946 11.8239 43.4884 11.8177C43.4516 11.7747 41.0854 12.2786 41.0977 12.3278C41.1038 12.3708 46.4937 21.903 46.5614 21.9891C46.5798 22.0136 48.5034 21.6449 48.5403 21.608C48.5526 21.5896 48.7923 19.9855 49.0627 18.0373C49.3393 16.0952 49.579 14.5034 49.5974 14.5034C49.6158 14.5034 50.4332 15.8924 51.4104 17.5886C52.3815 19.291 53.1927 20.6923 53.1989 20.7046C53.2111 20.7169 53.6475 20.6431 54.1822 20.5509C54.9934 20.3973 55.1532 20.3543 55.1962 20.2498C55.2208 20.1822 55.565 17.7915 55.9583 14.9336C56.3517 12.0758 56.6897 9.63593 56.7081 9.50687C56.7511 9.23031 56.8433 9.23031 55.4359 9.50687Z" fill="black"/>
<path d="M59.5341 9.59357C59.4235 10.245 58.3664 19.7957 58.4033 19.8264C58.4463 19.8694 66.2638 20.779 66.3007 20.7483C66.3437 20.6991 66.5465 18.7693 66.5096 18.7386C66.4851 18.7201 65.2928 18.5726 63.8546 18.4128C62.4165 18.2531 61.1566 18.1117 61.0583 18.0933L60.8739 18.0625L60.9968 16.9747C61.1136 15.9668 61.132 15.8869 61.2427 15.8931C61.3103 15.8992 62.4104 16.0221 63.6826 16.1696C64.9609 16.3171 66.018 16.4216 66.0303 16.4032C66.061 16.3786 66.313 14.4242 66.2884 14.4058C66.2884 14.3996 65.2866 14.2828 64.0697 14.1415C62.8529 14.0001 61.7466 13.8711 61.6114 13.8526L61.3594 13.8158L61.4701 12.8877C61.5254 12.3715 61.5745 11.9044 61.5745 11.8429C61.5807 11.6954 61.6114 11.6954 64.5614 12.0396C65.9811 12.2056 67.1611 12.3223 67.1795 12.3039C67.2471 12.2301 67.4315 10.3741 67.3762 10.3249C67.3516 10.3003 65.68 10.0975 63.6703 9.87014C61.6606 9.64274 59.9152 9.43993 59.7922 9.42149C59.5771 9.39076 59.5648 9.39691 59.5341 9.59357Z" fill="black"/>
<path d="M69.8206 16.1635C68.997 18.9414 68.3394 21.2215 68.3517 21.2338C68.3886 21.2645 70.5028 21.8852 70.5212 21.8668C70.595 21.7807 73.5019 11.8368 73.4651 11.8061C73.4343 11.7815 72.9673 11.6278 72.4264 11.4619C71.8856 11.3021 71.4124 11.1607 71.3755 11.1423C71.3386 11.13 70.7117 13.1397 69.8206 16.1635Z" fill="black"/>
<path d="M77.6577 13.8587C76.5453 14.1414 75.6665 15.0817 75.3653 16.3109C75.2301 16.8702 75.3162 17.411 75.6358 18.0317C75.8263 18.4005 76.0537 18.6586 77.0554 19.6542C77.7069 20.3119 78.3276 20.9695 78.426 21.1292C78.7455 21.6332 78.6103 22.1925 78.1125 22.4506C77.627 22.7026 76.6129 22.3461 75.8509 21.6639C75.4452 21.2952 74.8061 20.3917 74.634 19.9308C74.5787 19.7833 74.5111 19.6727 74.4865 19.6788C72.9869 20.2873 72.6243 20.4471 72.5997 20.5085C72.5628 20.6069 73.0299 21.5226 73.3679 22.002C74.2345 23.2373 75.7464 24.2636 77.1292 24.5586C78.6718 24.8844 79.9993 24.2513 80.6876 22.8501C81.0011 22.2232 81.0994 21.7254 81.0072 21.2337C80.8474 20.3856 80.368 19.7034 79.0344 18.4374C78.5304 17.958 78.0326 17.4417 77.9281 17.282C77.7561 17.03 77.7376 16.9501 77.7622 16.6674C77.7806 16.4338 77.8237 16.3048 77.9343 16.188C78.303 15.7885 78.7333 15.7639 79.44 16.0958C79.987 16.3478 80.7245 17.0976 81.1424 17.8105L81.4374 18.3145L81.6955 18.167C81.8369 18.0871 82.2487 17.8658 82.6174 17.6753C82.98 17.4848 83.275 17.3065 83.275 17.2881C83.275 17.2266 82.9063 16.5875 82.6481 16.2064C81.9844 15.2292 80.7368 14.3197 79.5568 13.9571C78.9914 13.7788 78.1371 13.7358 77.6577 13.8587Z" fill="black"/>
<path d="M32.1744 17.6931C32.0085 17.8222 30.4597 18.9591 28.7328 20.219C27.0119 21.4789 25.58 22.5237 25.5554 22.5483C25.5246 22.579 26.5448 24.0479 26.7292 24.2323C26.7661 24.2691 27.2639 23.9434 28.0629 23.3596C28.7635 22.8433 29.3535 22.4438 29.3781 22.4746C29.4027 22.4991 30.4843 23.9741 31.775 25.7503C33.0656 27.5264 34.1718 29.026 34.2271 29.0813C34.3193 29.1797 34.3808 29.1428 35.2166 28.5405C35.7083 28.1779 36.1078 27.8583 36.1016 27.8153C36.0955 27.7784 35.02 26.2665 33.6986 24.4597C32.3834 22.6528 31.2894 21.1409 31.2648 21.104C31.2403 21.061 31.7135 20.68 32.5125 20.0961C33.3729 19.4754 33.7908 19.1374 33.7539 19.0882C33.7232 19.0513 33.4466 18.6703 33.1332 18.2339C32.8197 17.8037 32.5432 17.4534 32.5247 17.4596C32.5002 17.4596 32.3465 17.564 32.1744 17.6931Z" fill="black"/>
<path d="M38.3798 19.5802C37.2612 20.1026 36.3271 20.5573 36.3025 20.5881C36.2595 20.6249 37.0461 22.438 37.1506 22.5425C37.1875 22.5793 41.299 20.6372 41.299 20.5819C41.299 20.5328 40.4509 18.6767 40.414 18.6398C40.4079 18.6337 39.4922 19.0578 38.3798 19.5802Z" fill="black"/>
<path d="M86.6253 19.2602C85.8263 19.4569 84.9843 20.1575 84.5603 20.9934C84.382 21.3498 84.3452 21.485 84.3329 21.9152C84.296 22.7818 84.5971 23.5132 85.562 24.8775C85.8386 25.2709 86.1889 25.8301 86.3364 26.119C86.6683 26.7582 86.6683 27.047 86.3426 27.385C85.8017 27.9382 85.0642 27.7415 84.1731 26.7889C83.6937 26.2849 83.2819 25.486 83.0976 24.7116C83.0299 24.4289 82.9685 24.1954 82.9562 24.1831C82.9439 24.1769 82.4768 24.2568 81.9114 24.3551C81.2415 24.4781 80.8789 24.5641 80.8789 24.6133C80.8789 24.6563 80.9465 24.9574 81.0264 25.277C81.4812 27.0593 82.7472 28.6634 84.2898 29.407C84.5971 29.5484 84.9782 29.702 85.1441 29.745C85.5313 29.8311 86.3303 29.8311 86.6683 29.745C87.4365 29.5361 88.3215 28.8047 88.678 28.0734C89.2495 26.9118 89.0283 25.9838 87.7192 24.0356C86.7174 22.5544 86.5699 22.1611 86.8465 21.7124C87.1907 21.1532 87.9405 21.1962 88.6411 21.8169C89.1512 22.2717 89.692 23.212 89.9133 24.0294C89.9502 24.1646 90.0116 24.2752 90.0485 24.2752C90.0915 24.2752 90.5463 24.1585 91.0626 24.0233C91.8984 23.7959 92.0029 23.7529 92.0029 23.6361C92.0029 23.5623 91.9107 23.2366 91.7939 22.9047C91.2961 21.4666 90.1407 20.1514 88.8378 19.543C88.0634 19.1742 87.3382 19.0882 86.6253 19.2602Z" fill="black"/>
<path d="M57.0937 25.9108C56.977 25.9231 56.5345 25.9661 56.1104 25.9968C53.2219 26.2488 49.9523 27.017 47.1436 28.1171C39.2708 31.1962 32.8792 37.1023 29.1855 44.7047C26.1556 50.9489 25.1538 57.7953 26.2724 64.6357C27.1205 69.8412 29.2716 74.8931 32.4428 79.146C37.7528 86.2629 45.6318 90.989 54.3281 92.2735C56.178 92.55 56.768 92.5869 59.2448 92.5869C61.8383 92.5869 62.6803 92.5255 64.7023 92.1874C74.7999 90.4912 83.57 84.2409 88.542 75.1819C92.0205 68.8456 93.3173 61.5197 92.2418 54.2369C91.4182 48.6565 89.0091 43.113 85.4322 38.5958C79.5936 31.2146 71.0325 26.6544 61.6478 25.9353C60.898 25.88 57.6284 25.8616 57.0937 25.9108ZM62.1948 27.9082C71.7884 28.8116 80.5647 34.1953 85.7763 42.3755C90.4287 49.6828 91.8607 58.5021 89.7527 66.885C87.6754 75.1573 82.2425 82.2988 74.763 86.5947C73.8043 87.1479 71.7823 88.125 70.7559 88.5245C67.6154 89.7598 64.3704 90.4666 60.8304 90.6879L60.1667 90.7309V59.2458V27.7607L60.8611 27.8037C61.236 27.8283 61.8383 27.8713 62.1948 27.9082Z" fill="black"/>
<path d="M23.9518 26.3649C22.6858 26.5185 21.5119 27.1454 20.5532 28.1718C18.8877 29.9479 18.4943 32.3755 19.5207 34.4405C19.8218 35.0367 20.0615 35.3685 20.5593 35.8602C22.735 38.0358 26.0906 38.0174 28.2662 35.8233C29.3909 34.6925 29.9932 33.2667 29.9932 31.7425C29.9932 30.3105 29.5261 29.1367 28.5428 28.0919C27.3382 26.8074 25.6174 26.1621 23.9518 26.3649ZM25.2056 28.7986C26.8711 29.2903 27.9835 30.9251 27.7192 32.5046C27.5656 33.4203 26.8588 34.4098 26.0783 34.8093C24.2284 35.7434 21.8254 34.631 21.2968 32.6029C21.1924 32.1911 21.1801 31.5028 21.2661 31.1095C21.4321 30.4027 22.0159 29.5792 22.6305 29.1858C23.3496 28.7249 24.4066 28.5651 25.2056 28.7986Z" fill="black"/>
<path d="M98.885 30.1691C98.5962 30.3351 96.5496 31.4843 94.3371 32.7258C92.1246 33.9673 90.3054 34.9875 90.2932 34.9998C90.2686 35.0243 92.7023 39.3449 93.0342 39.855C93.3845 40.402 94.208 41.2193 94.6383 41.4467C95.4987 41.9077 96.2669 41.8954 97.1703 41.416C98.166 40.8875 98.6638 39.9287 98.547 38.7979L98.504 38.4107L98.8051 38.5582C99.7946 39.056 100.87 38.8716 101.712 38.0665C102.142 37.6609 102.357 37.2491 102.45 36.6714C102.585 35.8233 102.339 34.9813 101.515 33.5248C101.233 33.0147 100.655 31.9883 100.237 31.2385C99.813 30.4826 99.4566 29.868 99.4382 29.868C99.4197 29.868 99.1739 30.0032 98.885 30.1691ZM99.475 34.0041C99.8192 34.6187 100.133 35.2149 100.17 35.3316C100.409 36.0691 100.028 36.7329 99.3214 36.8005C98.9096 36.8374 98.7007 36.7452 98.3442 36.3518C98.0922 36.0753 96.9184 34.0902 96.9184 33.9427C96.9184 33.8874 98.6884 32.8856 98.7928 32.8856C98.8297 32.8794 99.137 33.3834 99.475 34.0041ZM95.9535 36.1613C96.7278 37.538 96.9184 37.9743 96.9184 38.3677C96.9184 38.7364 96.7033 39.0745 96.3652 39.2465C95.8367 39.517 95.3143 39.4063 94.9148 38.9392C94.712 38.7118 93.2309 36.1367 93.2309 36.0261C93.2309 35.977 95.0685 34.926 95.1791 34.9137C95.216 34.9076 95.5663 35.473 95.9535 36.1613Z" fill="black"/>
<path d="M16.699 37.1271C15.6788 37.2439 14.7201 37.9691 14.0624 39.1183C13.8351 39.524 11.8008 43.8383 11.8008 43.9244C11.8008 43.9613 17.332 46.5732 20.9949 48.2695L21.3084 48.417L21.7878 47.3783C22.052 46.8068 22.2548 46.3274 22.2426 46.3151C22.2303 46.2967 21.5665 45.9771 20.7737 45.6022C19.9809 45.2273 19.311 44.9016 19.2926 44.877C19.2495 44.834 19.9133 43.3651 20.0178 43.2668C20.0423 43.2361 20.9273 43.0886 21.9721 42.9349C23.0231 42.7751 23.9142 42.6276 23.9572 42.603C24.0371 42.56 25.1495 40.2492 25.1127 40.2123C25.1004 40.1939 23.2935 40.4766 21.2961 40.8085C20.6508 40.9129 20.6815 40.9375 20.6692 40.3844C20.6262 39.1061 19.9624 38.135 18.7148 37.5266C17.9651 37.1578 17.3873 37.0472 16.699 37.1271ZM17.8053 39.7083C18.1126 39.8558 18.2416 39.9603 18.3768 40.1754C18.5981 40.5196 18.6595 40.9068 18.5673 41.3308C18.5059 41.589 17.4734 43.8875 17.3628 43.992C17.3443 44.0104 16.7297 43.74 15.9861 43.3897L14.6402 42.7567L14.7815 42.4432C15.8816 39.9726 16.2319 39.524 17.0801 39.5178C17.3197 39.5178 17.5103 39.567 17.8053 39.7083Z" fill="black"/>
<path d="M100.427 42.5901C97.7108 43.3338 95.4737 43.9484 95.4614 43.9668C95.4246 44.0037 97.4711 51.52 97.5387 51.5876C97.5817 51.6368 99.2657 51.2373 99.4316 51.139C99.4808 51.1082 99.2718 50.254 98.7617 48.3672C98.3561 46.8738 98.0304 45.6385 98.0365 45.6323C98.0734 45.5954 100.126 45.0423 100.145 45.0607C100.151 45.073 100.446 46.1363 100.79 47.4269C101.202 48.9511 101.454 49.7807 101.503 49.7807C101.589 49.7807 103.377 49.3075 103.402 49.2768C103.414 49.2645 103.131 48.1951 102.775 46.8984C102.425 45.6016 102.148 44.5322 102.16 44.5138C102.203 44.4769 104.182 43.9299 104.195 43.9545C104.201 43.9668 104.533 45.1775 104.932 46.6402C105.325 48.1091 105.664 49.326 105.676 49.3382C105.707 49.369 105.995 49.3014 106.973 49.0371L107.649 48.8527L106.678 45.2759C106.143 43.3092 105.676 41.5945 105.639 41.4654C105.602 41.3118 105.547 41.238 105.473 41.2442C105.418 41.2442 103.144 41.8526 100.427 42.5901Z" fill="black"/>
<path d="M98.2397 53.1487C98.2212 53.1672 98.2089 53.6896 98.2089 54.3103V55.435H99.0263C99.4811 55.435 100.225 55.4534 100.686 55.478L101.528 55.5149V56.4122L101.522 57.3095L99.8376 58.4034L98.1536 59.4974L98.1352 60.831C98.1229 61.5624 98.1229 62.177 98.129 62.1892C98.1352 62.2015 98.9649 61.6668 99.9666 60.997C100.975 60.3332 101.823 59.7739 101.86 59.7678C101.896 59.7555 102.019 59.9399 102.13 60.1734C102.794 61.5624 104.379 62.2691 106.045 61.9188C107.047 61.7099 107.79 61.126 108.227 60.2164C108.645 59.3499 108.663 59.1839 108.712 56.0803C108.737 54.5561 108.743 53.3024 108.731 53.2839C108.718 53.2655 107.213 53.2348 105.381 53.2102C103.55 53.1917 101.202 53.161 100.163 53.1426C99.1247 53.1303 98.2581 53.1303 98.2397 53.1487ZM105.633 55.5579H106.629V56.4306C106.623 58.2743 106.506 58.8705 106.069 59.2946C105.492 59.86 104.342 59.7309 103.882 59.0487C103.574 58.5939 103.507 57.9056 103.599 56.2339L103.636 55.478L104.134 55.521C104.41 55.5395 105.08 55.5579 105.633 55.5579Z" fill="black"/>
<path d="M11.0575 54.0152C10.2769 54.8572 9.8836 55.7545 9.70537 57.0882C9.3612 59.651 10.7194 62.0724 12.9934 62.9636C13.7862 63.277 14.1058 63.3262 15.1506 63.3262C16.0356 63.32 16.1892 63.3077 16.6747 63.1602C18.5185 62.5948 19.7784 61.3349 20.3192 59.5096C20.5097 58.8582 20.5835 57.6351 20.4729 56.9284C20.3131 55.9082 19.9075 55.0232 19.2068 54.1873L18.8565 53.7755L18.6967 53.8985C18.6045 53.9661 18.2542 54.2795 17.9162 54.5991L17.3078 55.1707L17.4122 55.3182C18.2788 56.5104 18.5185 57.2418 18.3771 58.2682C18.2358 59.2699 17.6089 60.1303 16.7055 60.5605C16.1523 60.8187 15.7529 60.9047 15.1014 60.9047C14.1734 60.9047 13.4113 60.6282 12.7844 60.0627C12.0654 59.4174 11.7642 58.6861 11.8134 57.6966C11.8564 56.83 12.1145 56.24 12.8029 55.4226C13.0917 55.0785 13.1532 55.1829 12.1698 54.2672L11.4446 53.5912L11.0575 54.0152Z" fill="black"/>
<path d="M98.2527 63.9595C98.1851 64.0824 96.286 71.1686 96.3168 71.1993C96.3598 71.2423 98.0868 71.7217 98.2097 71.7217C98.2834 71.7217 98.4678 71.1255 98.9779 69.2326C99.4081 67.647 99.6847 66.7436 99.7277 66.7436C99.7707 66.7436 101.596 67.2291 103.778 67.8191C105.966 68.4152 107.76 68.8885 107.779 68.87C107.84 68.8086 108.393 66.7128 108.356 66.6759C108.338 66.6575 106.095 66.0368 103.372 65.2993C100.65 64.5618 98.3941 63.9472 98.3572 63.9349C98.3142 63.9226 98.2712 63.9288 98.2527 63.9595Z" fill="black"/>
<path d="M11.0637 65.4035C10.5721 65.5018 10.1665 65.594 10.1603 65.594C10.1419 65.6186 11.789 74.063 11.8197 74.0998C11.8566 74.1367 13.8109 73.7864 13.8662 73.7311C13.8847 73.7188 13.7618 73.0059 13.5958 72.1577C13.3008 70.6336 13.2947 70.6151 13.4237 70.5844C13.4975 70.566 15.3351 70.2095 17.5107 69.7855C19.6864 69.3675 21.4809 69.0111 21.4932 68.9926C21.5362 68.9558 21.1429 66.8539 21.0876 66.7924C21.063 66.7617 19.2561 67.0874 17.0744 67.5115C14.8865 67.9356 13.0489 68.2797 12.9812 68.2797C12.8399 68.2797 12.8645 68.3842 12.5019 66.4483C12.2192 64.9917 12.4035 65.1269 11.0637 65.4035Z" fill="black"/>
<path d="M95.4134 73.5159C95.3396 73.6942 95.1184 74.1674 94.934 74.5669L94.5898 75.2859L94.7865 75.372C94.8971 75.415 97.0236 76.4106 99.5249 77.5845C102.02 78.7522 104.085 79.7109 104.11 79.7109C104.171 79.7109 105.112 77.6828 105.068 77.6398C105.032 77.6029 95.6346 73.1964 95.5916 73.1964C95.5732 73.1964 95.4933 73.3439 95.4134 73.5159Z" fill="black"/>
<path d="M19.8551 76.552C17.7409 77.4801 16.0078 78.2299 16.0017 78.2176C15.9955 78.2114 15.7067 77.56 15.3625 76.7733C15.0122 75.9928 14.7049 75.3475 14.668 75.3475C14.5943 75.3475 12.7812 76.1526 12.7812 76.1833C12.7812 76.214 16.2291 84.0991 16.2536 84.1237C16.2721 84.1421 18.1097 83.3555 18.1834 83.294C18.1957 83.2879 17.9192 82.6303 17.575 81.8313C17.2247 81.0385 16.9543 80.3747 16.9727 80.3563C16.985 80.3379 18.6874 79.5881 20.7463 78.6908C22.8051 77.7935 24.5136 77.0314 24.5444 77.0007C24.5751 76.97 24.4153 76.5213 24.151 75.919C23.9052 75.3536 23.7024 74.8804 23.6963 74.8804C23.6963 74.8742 21.9631 75.6302 19.8551 76.552Z" fill="black"/>
<path d="M93.1022 78.4639C92.5122 79.3121 92.4876 79.3674 92.5921 79.4473C92.6597 79.4964 93.8643 80.3384 95.2717 81.3218C96.6852 82.2989 97.8529 83.1286 97.8775 83.1594C97.8959 83.1901 97.7484 83.2147 97.5518 83.2147C97.3551 83.2208 96.6852 83.2454 96.0583 83.2761C95.4315 83.3069 93.8274 83.3745 92.4938 83.4298C91.1601 83.4851 89.9494 83.5404 89.808 83.5588C89.5622 83.5896 89.5253 83.6203 89.1996 84.0935C89.0029 84.3701 88.7509 84.7265 88.6403 84.8863L88.4375 85.169L92.7211 88.1436C95.075 89.7723 97.0355 91.1182 97.0663 91.1244C97.1031 91.1367 97.2506 90.9707 97.3858 90.7556C97.5272 90.5467 97.8099 90.1349 98.0189 89.8399L98.3938 89.3052L95.7572 87.4799C94.3006 86.472 93.1206 85.6361 93.1329 85.63C93.1452 85.6177 94.9644 85.5255 97.1707 85.4272C99.3832 85.3288 101.196 85.2489 101.202 85.2428C101.227 85.2367 102.339 83.6264 102.364 83.5588C102.395 83.4851 93.9257 77.5605 93.7905 77.5605C93.7598 77.5605 93.4525 77.9661 93.1022 78.4639Z" fill="black"/>
<path d="M24.8488 79.5451C24.437 79.8586 24.0683 80.1413 24.0314 80.1782C23.9761 80.2335 24.3448 80.7805 25.4511 82.2985C26.2685 83.4293 26.9384 84.3881 26.9445 84.4372C26.9507 84.4802 26.5512 84.8121 26.0534 85.1747C25.5617 85.5312 24.0498 86.6374 22.6916 87.6269L20.2148 89.4338L20.4054 89.6858C20.5098 89.8271 20.811 90.2389 21.0691 90.6015C21.3272 90.9641 21.5731 91.253 21.6161 91.2345C21.6591 91.2222 23.5705 89.8394 25.8752 88.1616C28.5302 86.2195 30.042 85.0825 30.0113 85.0395C29.9498 84.9289 25.617 78.9736 25.6109 78.9797C25.6047 78.9797 25.2606 79.2378 24.8488 79.5451Z" fill="black"/>
<path d="M73.3072 95.8012C71.3897 96.5387 69.8164 97.1656 69.8164 97.1963C69.8164 97.3131 70.474 98.9724 70.5293 98.9909C70.5601 99.0032 71.5926 98.6221 72.8279 98.155C74.057 97.6818 75.0772 97.3069 75.0895 97.3192C75.1018 97.3315 74.813 99.4825 74.4442 102.095C74.0755 104.706 73.7805 106.858 73.7928 106.87C73.8051 106.888 76.1282 106.034 76.1958 105.985C76.2019 105.979 76.4969 103.754 76.8472 101.037L77.4864 96.1023L77.173 95.2788C77.0009 94.8301 76.8472 94.4614 76.8288 94.4675C76.8104 94.4675 75.2247 95.0698 73.3072 95.8012Z" fill="black"/>
<path d="M45.5598 96.6553L44.3737 96.6737V97.19C44.3737 97.4727 44.3553 97.909 44.3368 98.161L44.2938 98.6219L45.2403 98.665C45.7565 98.6895 46.1867 98.7141 46.1929 98.7203C46.199 98.7264 45.7258 100.503 45.1358 102.666C44.5458 104.829 44.0664 106.612 44.0664 106.63C44.0664 106.667 46.2236 107.263 46.2482 107.232C46.2789 107.202 48.9892 97.2821 49.0015 97.1469C49.0138 97.0425 48.9093 96.9994 48.2763 96.8212C47.7355 96.6737 47.4343 96.6184 47.1393 96.6307C46.9181 96.6368 46.2052 96.6491 45.5598 96.6553Z" fill="black"/>
<path d="M64.1636 98.0007C63.4076 98.1359 63.002 98.2589 62.5042 98.4985C60.599 99.4143 59.8984 101.522 60.8448 103.471C61.2443 104.294 61.9941 104.872 62.9344 105.099C63.3954 105.204 64.477 105.191 64.9687 105.068C65.4849 104.939 66.161 104.601 66.456 104.325C66.585 104.208 66.7018 104.11 66.7202 104.11C66.7756 104.11 66.7387 104.718 66.6526 105.118C66.5543 105.585 66.3576 105.953 66.0565 106.255C65.3682 106.931 64.096 106.992 62.9098 106.408C62.7439 106.322 62.6025 106.267 62.5964 106.273C62.5718 106.298 61.7052 108.172 61.7052 108.191C61.7052 108.203 61.9449 108.32 62.2461 108.455C63.0143 108.811 63.506 108.922 64.348 108.922C66.6465 108.916 68.2874 107.705 68.8406 105.615C69.1909 104.288 68.9942 102.045 68.4042 100.557C67.9248 99.3712 67.0644 98.5231 65.9459 98.1421C65.5587 98.013 64.5508 97.9331 64.1636 98.0007ZM65.4235 100.109C65.9827 100.355 66.3146 100.914 66.3146 101.602C66.3146 102.247 66.0135 102.684 65.3805 102.979C65.0424 103.132 64.9195 103.151 64.4094 103.157C63.7702 103.157 63.506 103.065 63.1557 102.721C62.6333 102.192 62.5657 101.246 63.0205 100.65C63.2356 100.367 63.7272 100.084 64.1636 99.992C64.5262 99.9182 65.1162 99.9735 65.4235 100.109Z" fill="black"/>
<path d="M53.7067 98.0992C51.7769 98.2467 50.4986 99.6418 50.7629 101.326C50.8489 101.891 51.064 102.309 51.4758 102.715L51.82 103.053L51.4266 103.237C50.5232 103.673 50.0684 104.331 49.9332 105.437C49.841 106.175 50.1729 107.041 50.7813 107.638C51.5987 108.437 52.8279 108.861 54.3275 108.854C56.626 108.848 58.0334 107.681 58.0334 105.8C58.0273 104.952 57.6708 104.288 56.9517 103.772C56.7612 103.637 56.6076 103.514 56.6076 103.495C56.6076 103.477 56.7797 103.354 56.9886 103.213C57.7568 102.709 58.1133 101.971 58.0641 100.957C58.0457 100.465 58.015 100.324 57.849 99.986C57.597 99.482 57.2959 99.1256 56.8411 98.8183C55.993 98.2406 54.9482 98.0009 53.7067 98.0992ZM54.9605 100.066C55.2309 100.146 55.6427 100.484 55.7717 100.736C55.8209 100.828 55.8639 101.068 55.8639 101.27C55.8639 101.559 55.827 101.682 55.6857 101.91C55.4276 102.315 55.0588 102.481 54.4197 102.481C53.9956 102.475 53.885 102.45 53.5961 102.297C53.2028 102.082 52.9754 101.762 52.9324 101.381C52.8832 100.975 52.9569 100.693 53.172 100.447C53.5838 99.9798 54.1923 99.8508 54.9605 100.066ZM54.813 104.485C55.5136 104.724 55.8332 105.155 55.7902 105.782C55.741 106.482 55.194 106.888 54.2537 106.925C52.8893 106.98 51.9798 106.242 52.2317 105.29C52.3608 104.823 52.7787 104.479 53.3626 104.356C53.7129 104.282 54.4012 104.343 54.813 104.485Z" fill="black"/>
</g>
<defs>
<clipPath id="clip0_2168_1898">
<rect width="118" height="118" fill="white"/>
</clipPath>
</defs>
</svg>
