<svg width="192" height="73" viewBox="0 0 192 73" fill="none" xmlns="http://www.w3.org/2000/svg">
<g clip-path="url(#clip0_2124_2138)">
<path d="M127.923 46.9949C126.748 48.5674 124.98 49.7218 123.639 51.1613C108.267 52.1002 92.8153 52.7308 77.4109 53.4873L58.8293 54.3979L66.8881 8.26128H40.3444L31.8242 55.8042L21.2067 56.3139L29.5164 8.26128H0L1.41029 0L130.401 5.44171C130.579 5.47696 130.805 5.76406 130.951 5.92322C131.982 7.05851 132.895 8.42044 133.928 9.56882C135.21 8.4829 136.513 7.24487 137.86 6.2496C138.088 6.08138 138.275 5.87588 138.557 5.8386C139.873 5.66232 141.904 5.99676 143.293 6.05015C158.334 6.62635 173.311 7.24587 188.321 7.96411C189.542 8.02254 190.781 7.98728 192.002 8.06082L191.853 8.26229L148.329 8.25826C145.155 8.43253 139.816 8.79014 138.799 12.5284L133.276 44.2741C133.491 47.7927 139.134 47.8995 141.681 48.0577C155.942 47.7837 170.246 48.4062 184.503 48.0597C184.675 48.0557 184.798 48.0275 184.95 47.9529L184.952 48.2551L144.904 50.165C140.583 50.3716 136.238 50.7604 131.917 50.8803C131.708 50.8863 131.481 50.9145 131.304 50.7795L127.925 46.9979M70.6153 48.0506L109.956 48.0547C114.727 47.8058 121.543 47.1631 122.948 41.6046C124.521 32.3531 126.363 23.1278 127.73 13.8521C127.445 8.89994 120.633 8.42246 116.908 8.25524L77.571 8.26531L70.6153 48.0506Z" fill="black"/>
<path d="M54.3974 61.3487H64.62C66.1411 61.5189 67.8637 61.9299 67.8556 63.7985C67.8506 64.9026 67.1706 68.385 66.8583 69.5273C66.2791 71.6418 64.212 72.0195 62.3031 72.225L52.5781 72.1787L54.3974 61.3477V61.3487ZM54.9001 70.5156H63.3114C63.7466 70.5156 64.6512 69.9575 64.8245 69.5102C65.0521 68.9219 65.7492 64.8945 65.7714 64.2035C65.8036 63.2475 64.902 63.034 64.1153 62.9614C61.6765 62.7388 58.9295 63.1276 56.4564 62.9554L56.2026 63.0037L54.9001 70.5156Z" fill="black"/>
<path d="M175.379 72.2285L176.89 63.1613C179.436 63.3033 182.179 62.975 184.702 63.1573C185.935 63.2459 186.945 63.6257 186.85 65.0128C186.775 66.0927 186.458 67.0295 185.453 67.5443C186.101 67.8868 186.196 68.2514 186.157 68.9526C186.101 69.9267 185.811 71.1174 184.921 71.6442C184.454 71.9202 183.111 72.2275 182.582 72.2275H175.38L175.379 72.2285ZM177.998 66.7888H184.193C184.281 66.7888 184.824 66.4906 184.88 66.3607C184.96 66.1803 185.133 65.2254 185.132 65.0199C185.13 64.5424 184.474 64.4991 184.097 64.4678C182.286 64.3228 180.291 64.5887 178.459 64.4658L177.998 66.7888ZM177.293 70.8182H183.186C183.344 70.8182 184.102 70.5714 184.177 70.3931C184.241 70.243 184.457 69.0332 184.454 68.8528C184.445 68.2907 184.086 68.2414 183.593 68.196C181.771 68.0278 179.634 68.2938 177.79 68.2434L177.293 70.8192V70.8182Z" fill="black"/>
<path d="M152.616 61.3486L152.247 62.9644L143.697 62.9564C142.778 63.1206 142.336 63.0803 142.086 64.0644C141.62 65.8968 141.535 67.9347 141.061 69.7802C140.982 70.0491 141.644 70.5155 141.788 70.5155H151.005L150.606 72.1817C147.938 72.1404 145.053 72.3983 142.393 72.227C140.648 72.1152 138.833 71.8331 139.03 69.6714C139.137 68.5008 139.868 64.0987 140.276 63.1619C140.75 62.078 142.375 61.3486 143.5 61.3486H152.617H152.616Z" fill="black"/>
<path d="M131.559 63.1612L131.296 64.4768L123.547 64.4667C122.175 64.5846 122.305 64.9926 122.106 66.2145C122.186 66.5479 122.956 66.6658 123.245 66.6899C125.112 66.8501 127.222 66.5217 129.09 66.6879C130.083 66.7766 131.253 67.1332 131.246 68.337C131.243 68.8477 130.875 70.5975 130.596 71.0115C130.364 71.355 129.897 71.6955 129.513 71.8425C129.205 71.9604 128.071 72.2263 127.781 72.2263H119.672L119.936 70.81L128.082 70.815C129.473 70.8322 129.425 69.3201 129.394 68.2957C129.285 68.1123 128.531 68.0106 128.289 67.9914C126.412 67.8454 124.312 68.1607 122.444 67.9935C121.689 67.926 120.553 67.5684 120.401 66.7121C120.281 66.0412 120.623 64.4566 121.134 63.9661C121.458 63.6548 122.622 63.1592 123.046 63.1592H131.559V63.1612Z" fill="black"/>
<path d="M68.1992 72.2284L69.7113 63.1632C72.2931 63.2992 75.0613 62.9799 77.623 63.1582C79.8099 63.3103 80.1252 64.3227 79.5531 66.3062C79.1783 67.6087 78.2949 67.8676 77.0639 68.0992L78.3735 72.2284H76.7113L75.152 68.1466L70.6098 68.1416L69.7606 72.2284H68.1992ZM70.8183 66.7887H77.0135C77.0508 66.7887 77.6613 66.5227 77.6985 66.4935C77.8889 66.3394 78.1569 64.9946 78.0219 64.772C77.9121 64.5906 77.2472 64.4879 77.0166 64.4677C75.2094 64.3146 73.1967 64.5947 71.3663 64.4647L71.2152 64.5352L70.8173 66.7877L70.8183 66.7887Z" fill="black"/>
<path d="M107.586 72.2281L109.098 63.1629C111.681 63.2979 114.448 62.9806 117.01 63.1579C119.245 63.312 119.485 64.4131 118.924 66.3905C118.598 67.5369 117.514 67.9045 116.454 68.103L117.76 72.2291L115.995 72.1314L114.542 68.1453L109.998 68.1423L109.148 72.2291H107.587L107.586 72.2281ZM110.205 66.7884H116.3C116.385 66.7884 117.11 66.5073 117.164 66.4187C117.225 66.318 117.442 65.2754 117.449 65.1132C117.473 64.541 116.868 64.5047 116.404 64.4675C114.553 64.3194 112.492 64.5732 110.622 64.4846L110.205 66.7874V66.7884Z" fill="black"/>
<path d="M46.0356 63.1621L45.817 64.3034L45.669 64.4576L38.1823 64.4767L37.7744 66.6878H44.8762C44.9769 66.7634 44.989 66.7755 44.988 66.8953C44.986 67.0837 44.7946 68.0407 44.6616 68.085L37.587 68.1122L37.0702 70.819H44.6253C44.5709 71.2783 44.6072 71.8827 44.2728 72.2293H35.1562L36.6673 63.1631H46.0356V63.1621Z" fill="black"/>
<path d="M107.587 63.1621L107.327 64.4777L99.8937 64.4848C99.802 64.5039 99.7778 64.5633 99.7486 64.6419C99.5512 65.1688 99.5743 66.1076 99.4273 66.6878H106.579C106.497 66.9749 106.472 67.9974 106.214 68.085L99.1301 68.1032L98.7221 70.818H106.177L105.975 72.2283H96.8585L96.7266 72.0006L98.3192 63.1621H107.587Z" fill="black"/>
<path d="M25.992 63.1621L25.3876 66.6879H32.7412L33.3456 63.1621H35.0581L33.4464 72.2283H31.885L31.753 72.0006L32.439 68.0982H25.0854L24.3732 72.0701C24.1989 72.324 22.7473 72.3139 22.6758 72.0641L24.2795 63.1611H25.992V63.1621Z" fill="black"/>
<path d="M23.3696 61.3486L23.151 62.7922L23.0029 62.9463L17.5733 63.0561L15.8648 72.228H14.0516L15.5123 62.9604H9.87109L10.1733 61.3486H23.3696Z" fill="black"/>
<path d="M165.711 63.1612L164.594 69.9608C164.563 70.7204 165.253 70.7768 165.858 70.8211C167.176 70.9178 169.823 70.9611 171.102 70.8171C171.936 70.7234 172.244 70.4171 172.447 69.6445C172.986 67.5976 173.098 65.2434 173.569 63.1602H175.281C174.799 65.3179 174.637 67.6772 174.126 69.8117C173.901 70.7496 173.513 71.4064 172.588 71.8002C171.139 72.4177 165.834 72.4026 164.28 71.9947C162.978 71.6532 162.79 70.9218 162.903 69.6697C163.083 67.66 163.804 65.4559 164.003 63.4161L164.149 63.1592H165.71L165.711 63.1612Z" fill="black"/>
<path d="M86.2304 63.1621L89.606 70.416L95.6491 63.1621H97.412L89.8095 72.2363C89.4479 72.1719 88.8988 72.3773 88.6581 72.0671L84.3164 63.1621H86.2304Z" fill="black"/>
<path d="M155.434 63.1621L154.124 70.818H161.377C161.3 71.2783 161.332 71.8576 161.025 72.2283H152.261L152.129 72.0006L153.722 63.1621H155.434Z" fill="black"/>
<path d="M83.4067 63.1621L81.7949 72.2283H80.2335L80.1016 72.0006L81.6942 63.1621H83.4067Z" fill="black"/>
</g>
<defs>
<clipPath id="clip0_2124_2138">
<rect width="192" height="72.2865" fill="white"/>
</clipPath>
</defs>
</svg>
