<svg width="268" height="29" viewBox="0 0 268 29" fill="none" xmlns="http://www.w3.org/2000/svg">
<g clip-path="url(#clip0_2124_2186)">
<path d="M115.548 17.898C115.973 16.8536 116.192 15.5899 116.192 14.1199H118.7C118.7 16.3507 118.237 18.2333 117.323 19.742C117.735 20.1288 118.134 20.3996 118.52 20.5414C118.906 20.6833 119.369 20.7607 119.896 20.7607H120.513V23.0946H120.025C119.51 23.0946 119.06 23.0688 118.674 23.0301C118.288 22.9914 117.928 22.9012 117.606 22.7851C117.285 22.6562 116.976 22.5014 116.693 22.2951C116.41 22.0888 116.101 21.8309 115.767 21.5214C114.339 22.7077 112.487 23.3009 110.21 23.3009C108.204 23.3009 106.647 22.8496 105.554 21.9341C104.448 21.0185 103.895 19.7291 103.895 18.0786C103.895 16.9052 104.19 15.9123 104.795 15.0612C105.4 14.2231 106.377 13.4365 107.753 12.7273C107.136 12.0052 106.699 11.3347 106.416 10.7029C106.146 10.071 106.004 9.42628 106.004 8.76866C106.004 7.54367 106.429 6.55078 107.265 5.79C108.101 5.02922 109.207 4.65527 110.583 4.65527C111.96 4.65527 113.053 5.02922 113.902 5.76421C114.738 6.4992 115.162 7.4792 115.162 8.71708C115.162 9.6326 114.892 10.4579 114.339 11.18C113.786 11.9021 112.873 12.6113 111.612 13.3334L115.574 17.9109L115.548 17.898ZM109.233 14.4165C108.358 14.8678 107.715 15.3578 107.316 15.8994C106.917 16.4281 106.724 17.0599 106.724 17.7691C106.724 18.8007 107.097 19.6001 107.831 20.1804C108.564 20.7607 109.541 21.0572 110.776 21.0572C112.088 21.0572 113.182 20.6962 114.056 19.987L109.246 14.4165H109.233ZM110.185 11.6828C111.059 11.2186 111.677 10.7544 112.024 10.3289C112.371 9.90338 112.551 9.3876 112.551 8.79445C112.551 8.13682 112.384 7.64683 112.05 7.29867C111.715 6.96341 111.239 6.79578 110.622 6.79578C110.004 6.79578 109.516 6.95052 109.168 7.27288C108.808 7.59525 108.628 8.03366 108.628 8.61392C108.628 9.03944 108.744 9.49076 108.975 9.96786C109.207 10.445 109.619 11.0123 110.185 11.6957" fill="black"/>
<path d="M0 5.261H15.9501V8.3944H3.46014V14.8546H14.0978V17.988H3.46014V25.1832H16.2202V28.3166H0V5.261ZM20.1563 5.261H24.5168L35.5661 23.739V5.261H38.9362V28.3295H34.5757L23.5264 9.85149V28.3295H20.1563V5.261ZM54.5133 16.2601H64.5464V28.3166H62.0252L61.7423 24.5642C61.4207 25.2477 60.9705 25.8537 60.4302 26.3953C59.8771 26.9369 59.234 27.4011 58.5137 27.775C57.7933 28.149 56.9958 28.4584 56.1211 28.6647C55.2465 28.8839 54.3332 28.9871 53.3813 28.9871C51.7992 28.9871 50.3714 28.7034 49.0851 28.1361C47.7988 27.5687 46.6926 26.7692 45.7793 25.7248C44.866 24.6803 44.1457 23.4295 43.6312 21.9595C43.1167 20.4896 42.8594 18.8648 42.8594 17.0596C42.8594 15.2543 43.1295 13.5007 43.6698 11.9662C44.21 10.4446 44.9818 9.12939 45.9851 8.04624C46.9884 6.96309 48.1847 6.12494 49.5868 5.5189C50.9888 4.92574 52.5452 4.62917 54.2689 4.62917C55.5938 4.62917 56.8286 4.80969 57.9477 5.17074C59.0668 5.53179 60.0701 6.04758 60.919 6.7181C61.7808 7.40151 62.4883 8.21387 63.0414 9.16807C63.5945 10.1223 63.9676 11.1925 64.1734 12.3788H60.6489C60.263 10.9862 59.4912 9.89017 58.3336 9.1036C57.1759 8.31703 55.7867 7.9173 54.1531 7.9173C53.0083 7.9173 51.9664 8.12361 51.0274 8.52334C50.0884 8.92308 49.278 9.49044 48.6092 10.2254C47.9403 10.9604 47.4129 11.8502 47.0399 12.8688C46.6669 13.8875 46.4868 15.048 46.4868 16.3117V17.2917C46.4868 18.6069 46.654 19.7803 47.0142 20.8119C47.3615 21.8435 47.8631 22.7203 48.5191 23.4424C49.1751 24.1645 49.9598 24.7061 50.8988 25.1058C51.8249 25.4927 52.8797 25.6861 54.0373 25.6861C55.1178 25.6861 56.1211 25.5185 57.0601 25.1961C57.9863 24.8737 58.7966 24.4224 59.4655 23.8422C60.1344 23.2748 60.6746 22.5914 61.0605 21.8177C61.4464 21.044 61.6394 20.193 61.6394 19.2646H54.5261V16.2472L54.5133 16.2601ZM68.9841 5.261H84.9342V8.3944H72.4443V14.8546H83.0819V17.988H72.4443V25.1832H85.2043V28.3166H68.9712V5.261H68.9841ZM89.1404 5.261H92.6005V25.1832H103.611V28.3166H89.1275V5.261H89.1404ZM121.066 5.261H124.809L131.279 24.474L137.75 5.261H141.274L133.273 28.3295H129.106L121.066 5.261ZM153.455 29C151.796 29 150.291 28.7034 148.915 28.1103C147.538 27.5171 146.368 26.679 145.377 25.6087C144.387 24.5385 143.615 23.249 143.075 21.7661C142.535 20.2832 142.264 18.6327 142.264 16.8275C142.264 15.0222 142.535 13.3846 143.088 11.8888C143.641 10.406 144.4 9.1165 145.39 8.04624C146.368 6.97599 147.551 6.13784 148.915 5.54469C150.291 4.95153 151.796 4.65496 153.455 4.65496C155.115 4.65496 156.62 4.95153 157.996 5.54469C159.372 6.13784 160.543 6.97599 161.52 8.04624C162.498 9.12939 163.27 10.406 163.823 11.8888C164.376 13.3717 164.646 15.0222 164.646 16.8275C164.646 18.6327 164.376 20.2703 163.836 21.7661C163.295 23.249 162.524 24.5385 161.533 25.6087C160.543 26.679 159.359 27.5171 157.983 28.1103C156.607 28.7034 155.102 29 153.442 29M153.455 25.699C154.6 25.699 155.642 25.5056 156.568 25.1058C157.494 24.7061 158.292 24.1387 158.948 23.4037C159.604 22.6687 160.118 21.779 160.478 20.7603C160.851 19.7417 161.032 18.594 161.032 17.3433V16.2988C161.032 15.048 160.851 13.9133 160.478 12.8817C160.105 11.863 159.591 10.9733 158.935 10.2383C158.266 9.50333 157.468 8.93597 156.542 8.53624C155.616 8.1365 154.587 7.93019 153.455 7.93019C152.323 7.93019 151.307 8.1365 150.368 8.53624C149.429 8.93597 148.644 9.50333 147.976 10.2383C147.307 10.9733 146.792 11.863 146.432 12.8817C146.059 13.9004 145.879 15.048 145.879 16.2988V17.3433C145.879 18.594 146.059 19.7288 146.432 20.7603C146.805 21.7919 147.307 22.6687 147.963 23.4037C148.619 24.1387 149.416 24.7061 150.355 25.1058C151.294 25.5056 152.323 25.699 153.455 25.699ZM148.4 0H151.77V3.28813H148.4V0ZM155.153 0H158.523V3.28813H155.153V0ZM168.582 5.261H172.055V25.1832H183.066V28.3166H168.582V5.261ZM186.5 5.261H189.96V16.6083L201.1 5.261H205.46L196.16 14.6096L205.82 28.3295H201.614L193.755 17.008L189.947 20.8506V28.3166H186.487V5.261H186.5ZM208.702 5.261H224.652V8.3944H212.162V14.8546H222.8V17.988H212.162V25.1832H224.922V28.3166H208.689V5.261H208.702ZM228.858 5.261H239.496C240.576 5.261 241.554 5.41574 242.428 5.71232C243.303 6.00889 244.036 6.43442 244.654 6.97599C245.271 7.51756 245.747 8.17519 246.081 8.92308C246.416 9.68386 246.583 10.5349 246.583 11.4762C246.583 12.8301 246.236 13.9907 245.554 14.9707C244.872 15.9506 243.895 16.6727 242.621 17.1369C243.419 17.3691 244.023 17.743 244.448 18.2975C244.872 18.839 245.194 19.6385 245.413 20.7088L246.943 28.3295H243.38L242.004 21.1988C241.927 20.7217 241.811 20.3477 241.657 20.0511C241.502 19.7546 241.296 19.5225 241.039 19.3419C240.782 19.1614 240.46 19.0454 240.074 18.968C239.689 18.9035 239.2 18.8648 238.608 18.8648H232.318V28.3295H228.845V5.261H228.858ZM238.762 15.9249C240.074 15.9249 241.129 15.5767 241.927 14.8933C242.724 14.2099 243.123 13.2815 243.123 12.108C243.123 10.9346 242.724 10.0191 241.94 9.32281C241.155 8.6394 240.1 8.29124 238.762 8.29124H232.318V15.912H238.762V15.9249ZM252.783 21.1601C253.092 24.3321 255.201 25.9311 259.137 25.9311C262.675 25.9311 264.45 24.6674 264.45 22.1143C264.45 21.2116 264.205 20.5024 263.717 19.9867C263.228 19.4709 262.379 19.0582 261.17 18.723L255.433 17.0983C253.632 16.5825 252.307 15.8604 251.458 14.9191C250.609 13.9778 250.185 12.7528 250.185 11.2312C250.185 9.14229 250.918 7.51756 252.397 6.36994C253.864 5.22232 255.947 4.64206 258.623 4.64206C261.466 4.64206 263.627 5.29969 265.119 6.61494C266.611 7.93019 267.395 9.85149 267.485 12.3917H264.077C263.935 10.7283 263.434 9.54202 262.585 8.80703C261.736 8.07203 260.398 7.71098 258.546 7.71098C255.33 7.71098 253.735 8.79413 253.735 10.9346C253.735 11.7083 253.954 12.3402 254.404 12.8173C254.854 13.2944 255.626 13.6812 256.706 13.9907L262.443 15.6154C264.424 16.1956 265.852 16.9435 266.701 17.8848C267.563 18.8261 267.987 20.1156 267.987 21.7274C267.987 24.0485 267.202 25.8279 265.646 27.0916C264.077 28.3553 261.864 28.9871 258.97 28.9871C256.076 28.9871 253.696 28.3166 252.05 26.9755C250.403 25.6345 249.503 23.6874 249.362 21.1472H252.77L252.783 21.1601Z" fill="#2C2C2B"/>
</g>
<defs>
<clipPath id="clip0_2124_2186">
<rect width="268" height="29" fill="white"/>
</clipPath>
</defs>
</svg>
