<svg width="250" height="48" viewBox="0 0 250 48" fill="none" xmlns="http://www.w3.org/2000/svg">
<g clip-path="url(#clip0_2124_2191)">
<path fill-rule="evenodd" clip-rule="evenodd" d="M236.371 46.1346C234.896 47.6292 232.48 47.648 230.985 46.1628C230.976 46.1534 230.966 46.144 230.957 46.1346L247.181 29.8916L249.907 32.6176L236.381 46.144L236.371 46.1346Z" fill="black"/>
<path fill-rule="evenodd" clip-rule="evenodd" d="M242.775 25.3701L245.492 28.0961L229.22 44.3673L226.504 41.6414L242.775 25.3701Z" fill="black"/>
<path fill-rule="evenodd" clip-rule="evenodd" d="M242.82 7.39746L245.546 10.1234L237.847 17.822L235.121 15.096L242.82 7.39746Z" fill="black"/>
<path fill-rule="evenodd" clip-rule="evenodd" d="M247.273 11.9092L249.989 14.6352L242.3 22.3243L239.574 19.5983L247.273 11.9092Z" fill="black"/>
<path fill-rule="evenodd" clip-rule="evenodd" d="M229.741 29.4307L232.458 32.1566L224.769 39.8458L222.043 37.1198L229.741 29.4307Z" fill="black"/>
<path fill-rule="evenodd" clip-rule="evenodd" d="M225.277 24.9658L228.003 27.6918L220.304 35.3903L217.578 32.6643L225.277 24.9658Z" fill="black"/>
<path fill-rule="evenodd" clip-rule="evenodd" d="M231.171 1.25921C231.773 0.64822 232.562 0.262824 233.418 0.140625H234.461C235.279 0.253424 236.04 0.62942 236.623 1.22161L211.403 26.451C209.909 24.9094 209.937 22.4466 211.469 20.9426L231.171 1.25921Z" fill="black"/>
<path d="M231.171 1.25921C231.773 0.64822 232.562 0.262824 233.418 0.140625H234.461C235.279 0.253424 236.04 0.62942 236.623 1.22161L211.403 26.451C209.909 24.9094 209.937 22.4466 211.469 20.9426L231.171 1.25921Z" stroke="black" stroke-width="0.291397" stroke-miterlimit="22.93"/>
<path fill-rule="evenodd" clip-rule="evenodd" d="M238.318 2.96973L241.034 5.6863L215.814 30.9063L213.098 28.1897L238.318 2.96973Z" fill="black"/>
<path d="M238.318 2.96973L241.034 5.6863L215.814 30.9063L213.098 28.1897L238.318 2.96973Z" stroke="black" stroke-width="0.291397" stroke-miterlimit="10"/>
<path fill-rule="evenodd" clip-rule="evenodd" d="M149.194 18.8085H124.312V31.5454H149.184V37.3922H124.632C121.239 37.3922 118.484 34.638 118.484 31.2446V19.0811C118.484 15.6878 121.229 12.9336 124.623 12.9336H149.184V18.7991L149.194 18.8085Z" fill="black"/>
<path fill-rule="evenodd" clip-rule="evenodd" d="M30.7001 18.8089H5.81854V31.5458H30.6907V37.3925H6.13814C2.75417 37.4019 0 34.6478 0 31.2544V19.0909C0 15.6975 2.74477 12.9434 6.13814 12.9434H30.7001V18.8089Z" fill="black"/>
<path fill-rule="evenodd" clip-rule="evenodd" d="M97.0711 12.9336H108.981C112.402 12.99 115.147 15.7724 115.147 19.1939V37.3922H109.347L109.319 18.7803H96.9113V37.3922H91.1116V18.7803H78.7225L78.6943 37.3922H72.8945L72.9133 19.0811C72.9133 15.6878 75.6581 12.943 79.0515 12.9336H97.0805H97.0711Z" fill="black"/>
<path fill-rule="evenodd" clip-rule="evenodd" d="M39.4077 37.4023C36.0143 37.4023 33.2695 34.6481 33.2695 31.2641V19.0913C33.2695 15.6979 36.0237 12.9531 39.4077 12.9531H63.3774C66.7708 12.9531 69.5156 15.6979 69.525 19.0913V31.2641C69.525 34.6575 66.7708 37.4023 63.3868 37.4023H39.4171H39.4077ZM63.7158 18.7999H39.0787V31.5555H63.7158V18.7999Z" fill="black"/>
<path fill-rule="evenodd" clip-rule="evenodd" d="M157.865 37.4023C154.471 37.4023 151.727 34.6481 151.727 31.2641V19.0913C151.727 15.6979 154.481 12.9531 157.865 12.9531H181.834C185.228 12.9531 187.973 15.7073 187.973 19.0913V31.2641C187.973 34.6575 185.218 37.4023 181.834 37.4023H157.865ZM182.163 18.7999H157.536V31.5555H182.163V18.7999Z" fill="black"/>
</g>
<defs>
<clipPath id="clip0_2124_2191">
<rect width="250" height="47.2627" fill="white"/>
</clipPath>
</defs>
</svg>
