<svg width="233" height="36" viewBox="0 0 233 36" fill="none" xmlns="http://www.w3.org/2000/svg">
<g clip-path="url(#clip0_2124_2173)">
<path d="M18.2134 22.8043C19.631 23.2595 20.7302 23.9972 21.5443 25.0145C22.3583 26.0675 22.7487 27.3646 22.7487 28.8756C22.7487 31.0173 21.8987 32.6653 20.2319 33.8226C18.5318 34.9798 16.0509 35.5776 12.8252 35.5776H0V11.0127H12.1192C15.1317 11.0127 17.4686 11.5749 19.0994 12.7321C20.6943 13.8893 21.5083 15.4332 21.5083 17.3993C21.5083 18.5922 21.2259 19.6452 20.6583 20.594C20.0547 21.5429 19.2406 22.2778 18.2134 22.8043ZM5.70379 15.2933V21.0849H11.4076C12.8252 21.0849 13.8885 20.8381 14.6333 20.3472C15.3781 19.8564 15.7325 19.1187 15.7325 18.1727C15.7325 17.2266 15.3781 16.4889 14.6333 15.9981C13.8885 15.5429 12.8252 15.2961 11.4076 15.2961H5.70379V15.2933ZM12.4016 31.297C13.9245 31.297 15.0597 31.0502 15.8377 30.5593C16.5825 30.0685 16.9729 29.2951 16.9729 28.2778C16.9729 26.243 15.4501 25.2257 12.4016 25.2257H5.70379V31.297H12.4016Z" fill="black"/>
<path d="M45.939 31.0145V35.5776H26.7344V11.0127H45.4794V15.5758H32.4382V20.9094H43.9537V25.3326H32.4382V31.0173H45.939V31.0145Z" fill="black"/>
<path d="M65.5662 35.5776L60.7817 28.733H55.5015V35.5776H49.7617V11.0127H60.4992C62.6949 11.0127 64.611 11.3637 66.239 12.1014C67.8339 12.839 69.0743 13.8564 69.9603 15.1891C70.8464 16.5218 71.2728 18.1014 71.2728 19.9277C71.2728 21.754 70.8464 23.3308 69.9603 24.6306C69.0383 25.9633 67.7979 26.9807 66.1698 27.6827L71.7324 35.5776H65.5662ZM65.4582 19.9249C65.4582 18.5566 64.9986 17.4679 64.1126 16.7302C63.2265 15.9926 61.9169 15.6416 60.1781 15.6416H55.5015V24.2056H60.1781C61.9141 24.2056 63.2265 23.8189 64.1126 23.0813C64.9986 22.3436 65.4582 21.2906 65.4582 19.9222V19.9249Z" fill="black"/>
<path d="M92.9408 22.9081H98.185V32.8761C96.8393 33.8935 95.2805 34.6668 93.5084 35.1933C91.7364 35.7198 89.9643 35.9995 88.1591 35.9995C85.573 35.9995 83.2693 35.4374 81.2148 34.3515C79.1604 33.2628 77.5655 31.7546 76.3971 29.824C75.1926 27.8935 74.625 25.7189 74.625 23.2975C74.625 20.8761 75.1926 18.6659 76.3971 16.7354C77.5655 14.8048 79.1604 13.3323 81.2508 12.2079C83.3413 11.1193 85.681 10.5928 88.267 10.5928C90.4295 10.5928 92.412 10.9438 94.184 11.6814C95.9561 12.4191 97.443 13.4721 98.6502 14.8405L94.9648 18.2107C93.1928 16.3515 91.0663 15.4383 88.5522 15.4383C86.9574 15.4383 85.5757 15.7537 84.3353 16.42C83.0949 17.0864 82.1396 17.9995 81.464 19.1924C80.7912 20.3853 80.4368 21.7537 80.4368 23.2975C80.4368 24.8414 80.7912 26.1741 81.464 27.3697C82.1368 28.5626 83.0949 29.5114 84.3353 30.1421C85.5397 30.8441 86.9214 31.1595 88.4802 31.1595C90.1443 31.1595 91.6339 30.8085 92.9464 30.1065V22.9109L92.9408 22.9081Z" fill="black"/>
<path d="M108.494 15.573V22.0666H119.973V26.6297H108.494V35.5776H102.754V11.0127H121.499V15.5758H108.494V15.573Z" fill="black"/>
<path d="M136.788 36.0005C133.244 36.0005 130.48 35.0188 128.531 33.0882C126.546 31.1577 125.555 28.3853 125.555 24.771V11.0133H131.294V24.5599C131.294 28.9475 133.136 31.1577 136.821 31.1577C138.629 31.1577 139.975 30.6312 140.933 29.5425C141.891 28.4895 142.35 26.8414 142.35 24.5599V11.0133H148.021V24.771C148.021 28.3853 147.03 31.1577 145.08 33.0882C143.095 35.0188 140.332 36.0005 136.788 36.0005ZM133.244 8.83594C132.535 8.83594 131.931 8.58914 131.472 8.13393C131.012 7.67872 130.763 7.11656 130.763 6.41455C130.763 5.71254 131.012 5.11474 131.472 4.65953C131.931 4.20432 132.535 3.99316 133.244 3.99316C133.953 3.99316 134.556 4.20432 135.016 4.65953C135.475 5.11474 135.689 5.71254 135.689 6.41455C135.689 7.11656 135.475 7.67872 135.016 8.13393C134.556 8.58914 133.953 8.83594 133.244 8.83594ZM140.401 8.83594C139.692 8.83594 139.125 8.58914 138.665 8.13393C138.205 7.67872 137.956 7.11656 137.956 6.41455C137.956 5.71254 138.205 5.11474 138.665 4.65953C139.125 4.20432 139.692 3.99316 140.401 3.99316C141.11 3.99316 141.714 4.20432 142.173 4.65953C142.633 5.11474 142.882 5.71254 142.882 6.41455C142.882 7.11656 142.633 7.67872 142.173 8.13393C141.714 8.58914 141.11 8.83594 140.401 8.83594Z" fill="black"/>
<path d="M168.375 35.5776L163.59 28.733H158.31V35.5776H152.57V11.0127H163.308C165.504 11.0127 167.42 11.3637 169.048 12.1014C170.642 12.839 171.883 13.8564 172.769 15.1891C173.655 16.5218 174.081 18.1014 174.081 19.9277C174.081 21.754 173.655 23.3308 172.769 24.6306C171.847 25.9633 170.606 26.9807 168.978 27.6827L174.541 35.5776H168.375ZM168.27 19.9249C168.27 18.5566 167.81 17.4679 166.924 16.7302C166.038 15.9926 164.728 15.6416 162.989 15.6416H158.313V24.2056H162.989C164.725 24.2056 166.038 23.8189 166.924 23.0813C167.81 22.3436 168.27 21.2906 168.27 19.9222V19.9249Z" fill="black"/>
<path d="M187.511 36.0003C185.562 36.0003 183.648 35.7535 181.84 35.1941C179.999 34.7033 178.509 34.0012 177.41 33.1594L179.359 28.8788C180.423 29.6521 181.699 30.2828 183.15 30.738C184.604 31.1932 186.09 31.44 187.544 31.44C189.175 31.44 190.379 31.1932 191.157 30.7023C191.938 30.2471 192.326 29.6137 192.326 28.8075C192.326 28.2097 192.113 27.7188 191.653 27.3321C191.193 26.9455 190.59 26.6658 189.881 26.419C189.136 26.1722 188.181 25.9281 186.94 25.6457C185.063 25.1905 183.504 24.7682 182.3 24.3129C181.095 23.8577 180.068 23.1557 179.218 22.1713C178.332 21.1895 177.906 19.8897 177.906 18.2416C177.906 16.802 178.296 15.5049 179.074 14.3449C179.855 13.1877 181.023 12.2746 182.618 11.6082C184.177 10.9418 186.09 10.5908 188.358 10.5908C189.953 10.5908 191.476 10.7663 192.999 11.153C194.522 11.5396 195.834 12.0661 196.966 12.7682L195.194 17.0844C192.891 15.7846 190.623 15.1539 188.319 15.1539C186.725 15.1539 185.52 15.4007 184.775 15.9272C183.994 16.4537 183.607 17.1201 183.607 17.9619C183.607 18.8038 184.066 19.4373 184.952 19.8212C185.838 20.2435 187.184 20.663 188.992 21.0497C190.869 21.5049 192.428 21.9272 193.633 22.3824C194.837 22.8376 195.864 23.5396 196.75 24.4884C197.6 25.4373 198.027 26.7343 198.027 28.3852C198.027 29.7892 197.636 31.0862 196.858 32.2106C196.044 33.3678 194.873 34.3166 193.278 34.983C191.683 35.6493 189.77 36.0003 187.503 36.0003H187.511Z" fill="black"/>
<path d="M208.251 15.6443H200.312V11.0127H221.929V15.6443H213.991V35.5776H208.251V15.6443Z" fill="black"/>
<path d="M233.003 14.6463H227.468V5.47898H218.215V0H233.006V14.6463H233.003Z" fill="black"/>
</g>
<defs>
<clipPath id="clip0_2124_2173">
<rect width="233" height="36" fill="white"/>
</clipPath>
</defs>
</svg>
