<svg width="113" height="107" viewBox="0 0 113 107" fill="none" xmlns="http://www.w3.org/2000/svg">
<g clip-path="url(#clip0_2161_1820)">
<path d="M26.4538 0.132062H28.7008C32.9052 0.283545 37.0659 0.995275 41.1946 1.7575C45.9156 2.63394 50.6046 3.71115 55.3669 4.33512C57.5217 4.5948 59.7049 4.83405 61.8703 4.55874C67.3158 3.95401 72.6999 2.83231 78.1702 2.41152C80.6879 2.1831 83.2138 2.36824 85.7351 2.43076C88.6334 2.53656 91.5364 2.6159 94.4264 2.87799C95.359 2.98019 96.3069 3.06314 97.2053 3.35649C98.4428 3.84099 99.6497 4.50584 100.547 5.51933C101.501 6.56048 102.054 7.88896 102.612 9.17537C104.551 13.7523 105.804 18.5938 106.798 23.4581C107.239 25.6678 107.544 27.9172 107.498 30.1762C107.451 32.3751 107.243 34.5668 107.01 36.7537C109.571 39.3938 111.263 42.8251 112.102 46.4174C112.515 48.1306 112.688 49.8907 112.814 51.6472C112.846 52.3012 112.827 52.865 112.814 53.4373C112.604 57.0308 112.369 60.6243 111.905 64.1938C111.489 67.5012 110.96 70.7941 110.265 74.0522C110.186 74.4273 110.096 74.8193 109.849 75.1222C109.401 75.7209 108.574 75.971 107.874 75.7414C107.297 75.5346 106.868 75.0645 106.347 74.7567C99.8991 70.5272 92.1037 68.3704 84.4325 68.9403C81.4562 69.1074 78.4775 69.4224 75.571 70.1149C73.6124 70.5693 71.7176 71.2594 69.8406 71.9772C68.0581 72.6576 66.2225 73.2299 64.3254 73.4571C61.4673 73.8106 58.5654 73.6326 55.7321 73.1493C52.9769 72.6877 50.2819 71.9363 47.5633 71.3039C45.2383 70.7713 42.8577 70.3012 40.4618 70.4804C38.0659 70.6402 35.6664 70.8663 33.3165 71.3856C31.605 71.768 29.9076 72.3102 28.3828 73.2034C29.3332 76.9845 30.2823 80.7668 31.2327 84.5491C33.7586 85.2391 36.3614 85.7573 38.7254 86.9379C40.3436 87.7386 41.7915 88.9853 42.6154 90.6336C43.7088 92.7736 43.827 95.2611 43.6828 97.6235C43.574 99.0806 43.3695 100.592 42.6272 101.871C42.1591 102.697 41.3046 103.326 40.3459 103.34C39.1899 103.422 38.158 102.64 37.5836 101.674C36.5446 99.9342 36.3236 97.8279 36.3815 95.8309C36.3969 95.1372 36.3531 94.3353 35.8023 93.8436C35.1073 93.2473 34.1806 93.067 33.3272 92.8313C33.9974 95.35 34.7976 97.8303 35.4643 100.349C35.7775 101.575 36.1025 102.832 36.0281 104.11C35.982 105.033 35.4891 105.956 34.6593 106.378C34.1156 106.687 33.5872 106.745 33.027 106.852C32.8709 106.882 32.4159 106.85 32.326 106.827C31.7906 106.697 31.1121 106.533 30.6204 106.086C29.4419 105.073 28.9266 103.519 28.5554 102.047C27.5637 98.3472 26.5933 94.6419 25.6205 90.9378C25.6122 90.737 25.4219 90.6865 25.2694 90.636C23.2257 89.9039 21.2128 88.9625 19.5521 87.5234C18.2377 86.3897 17.2093 84.9097 16.6408 83.253C15.8134 80.8449 15.7424 78.1194 16.7176 75.745C17.5119 73.7084 18.9563 72.0529 20.2211 70.3132C15.1644 50.921 10.1043 31.5408 5.06773 12.1485C3.74861 11.9562 2.39284 11.4681 1.50161 10.4125C0.701391 9.49035 0.245136 8.2857 0.161213 7.06302C0.156485 6.82016 0.152939 6.57731 0.161213 6.32604C0.280596 4.54311 1.33258 2.90685 2.82191 1.98472C4.14931 1.15758 5.69892 0.711545 7.24735 0.614163C8.70832 0.523994 10.2461 1.03856 11.2035 2.20233C16.2022 1.01571 21.3097 0.258298 26.4396 0.130859" fill="white"/>
<path d="M22.421 77.9177C21.9777 79.1764 21.869 80.636 22.486 81.855C23.1716 83.2388 24.5108 84.1237 25.8583 84.7452C25.0758 81.7228 24.2815 78.7015 23.4954 75.6791C23.0805 76.3956 22.6881 77.1302 22.421 77.9177ZM81.8287 38.9889C78.5309 39.6706 75.239 40.3859 71.9199 40.951C69.7226 41.3177 67.5122 41.6363 65.2865 41.7168C62.2558 41.7974 59.2559 41.2491 56.295 40.6564C53.3955 40.0661 50.4984 39.4434 47.5599 39.0875C44.5411 38.7088 41.4891 38.6282 38.4549 38.8206C34.033 39.0995 29.636 39.8557 25.3937 41.1433C26.0876 44.8451 26.8299 48.5432 27.3074 52.2834C27.5473 54.0795 27.5533 55.8961 27.584 57.7055C27.597 60.9636 27.5213 64.2217 27.4244 67.4786C30.8664 66.191 34.4255 65.1318 38.0838 64.7495C40.2468 64.5018 42.417 64.8312 44.5399 65.2436C47.8838 65.8964 51.1863 66.7524 54.5421 67.3379C57.1283 67.7755 59.7772 68.135 62.3941 67.7635C65.4662 67.3223 68.3444 66.0864 71.3053 65.2051C74.1173 64.3371 77.0156 63.7444 79.947 63.5099C85.0071 63.1084 90.1075 63.5701 95.0767 64.5679C98.6629 65.3049 102.209 66.2955 105.612 67.6709C106.375 62.9954 106.948 58.2561 106.789 53.5085C106.627 50.7577 106.241 47.9998 105.402 45.3728C104.873 43.7847 104.167 42.2001 102.996 40.9919C102.108 40.0517 100.878 39.5804 99.7019 39.1368C96.2492 37.9418 92.5507 37.5474 88.9208 37.7867C86.5296 37.9934 84.1821 38.52 81.8311 38.9877M11.8798 15.1592C15.7875 30.7403 19.7461 46.2974 23.6621 61.8785C23.9257 55.8973 23.3122 49.8885 21.9919 44.0612C21.4683 41.7108 20.7685 39.4061 20.1007 37.0954C19.2047 34.0224 18.2851 30.9567 17.284 27.9186C15.8124 23.5364 14.2616 19.1314 11.8798 15.1628M16.9022 2.9239C20.7118 2.29032 24.5699 1.90319 28.4327 1.97292C30.9858 2.01981 33.5236 2.35283 36.046 2.73154C41.1854 3.51541 46.2562 4.68519 51.3766 5.58087C54.2217 6.06537 57.0905 6.49457 59.9805 6.52583C62.8232 6.42484 65.6305 5.9175 68.4401 5.51234C72.6563 4.89318 76.8808 4.16823 81.1467 4.12975C85.4173 4.26561 89.6938 4.33894 93.9597 4.67918C95.0518 4.80662 96.2031 4.82105 97.2019 5.34402C98.0009 5.7071 98.7622 6.19642 99.3283 6.8829C99.8993 7.55015 100.272 8.35806 100.633 9.15515C102.425 13.1923 103.645 17.4663 104.598 21.7787C105.228 24.5752 105.774 27.4233 105.696 30.3063C105.626 32.7024 105.39 35.0912 105.111 37.4705C106.625 38.811 107.794 40.5158 108.71 42.3215C110.451 45.7912 111.114 49.7454 110.963 53.6179C110.695 60.4635 109.848 67.2874 108.433 73.9839C105.751 71.9894 102.744 70.4746 99.6333 69.3108C95.1275 67.6421 90.3049 66.8306 85.5083 67.0421C82.1762 67.1864 78.8394 67.4942 75.5783 68.2264C73.4424 68.6952 71.3739 69.4214 69.3337 70.2065C67.543 70.8953 65.6931 71.47 63.7818 71.6648C60.5313 72.0195 57.2489 71.6335 54.0645 70.9507C50.7833 70.2666 47.5694 69.2543 44.2456 68.7926C42.8425 68.6003 41.4194 68.5389 40.0081 68.664C37.2114 68.8623 34.4042 69.1653 31.6891 69.9023C29.7861 70.4277 27.909 71.1803 26.324 72.3957C27.467 76.9451 28.6135 81.4932 29.7506 86.0413C32.1075 86.7241 34.5283 87.193 36.8285 88.0706C38.4029 88.6742 39.9443 89.6215 40.8237 91.128C41.5991 92.4264 41.8697 93.9677 41.9206 95.4669C41.9454 96.9937 41.9123 98.5518 41.4726 100.025C41.2752 100.599 41.0033 101.299 40.371 101.484C39.7528 101.588 39.306 101.014 39.0341 100.531C38.2587 99.0616 38.1559 97.34 38.1984 95.7037C38.2221 94.5135 37.8994 93.2235 36.9703 92.43C35.9006 91.5115 34.4869 91.2133 33.1607 90.8947C32.3829 90.7192 31.6016 90.5581 30.8251 90.379C31.6643 93.8306 32.7375 97.2149 33.6784 100.639C33.9396 101.658 34.234 102.69 34.2458 103.752C34.2564 104.143 34.1536 104.642 33.7399 104.784C33.3522 104.891 32.9503 104.961 32.5496 104.966C32.0082 104.932 31.578 104.528 31.2908 104.092C30.6974 103.197 30.4716 102.127 30.1915 101.104C29.1442 97.1777 28.1123 93.2463 27.0816 89.315C25.0947 88.6513 23.0971 87.8951 21.3879 86.6388C20.1184 85.7106 19.0664 84.4471 18.4861 82.9623C17.6468 80.8223 17.5688 78.3324 18.5085 76.2117C19.3761 74.1186 21.0286 72.5268 22.1917 70.62C16.9518 50.5666 11.7321 30.5251 6.51824 10.4596C5.39415 10.2925 4.16604 10.26 3.22752 9.52183C1.7902 8.33882 1.56562 5.95837 2.7299 4.50245C3.47811 3.52142 4.64357 2.99724 5.79603 2.69307C6.80783 2.42497 7.92601 2.27709 8.9189 2.69668C9.60091 2.9792 10.1198 3.59956 10.3125 4.32091C12.485 3.74263 14.6883 3.28938 16.9022 2.91188" fill="black"/>
<path d="M71.8678 46.984C72.5037 46.8265 73.1645 46.8722 73.8134 46.889C74.363 46.9119 74.954 46.9792 75.402 47.3374C75.7365 47.6055 75.9032 48.0311 75.9658 48.4495C76.2117 51.1269 77.0674 53.6889 77.7116 56.2834C78.0993 57.8667 78.545 59.4513 78.6608 61.0863C78.7364 61.5119 78.4528 61.9772 78.0627 62.1263C77.5804 62.1672 77.1265 61.9219 76.6466 61.8979C75.9658 61.7945 75.3488 62.1551 74.7306 62.38C73.9777 62.6156 73.181 63.0184 72.382 62.7779C71.5274 62.4785 71.1078 61.566 70.8442 60.7533C70.3761 59.1724 70.1196 57.3966 70.7721 55.8289C71.1621 54.8166 72.0723 54.1842 72.7685 53.4064C73.1834 52.9495 73.6455 52.4987 73.8772 51.9096C74.0805 51.3469 73.6266 50.8035 73.1373 50.604C72.7921 50.4525 72.2579 50.3407 72.038 50.7446C71.7449 51.3397 71.739 52.0238 71.5439 52.6502C71.3725 53.1744 70.7685 53.3787 70.2744 53.3655C69.9317 53.2778 69.8324 52.8774 69.7768 52.572C69.6078 51.2904 69.6728 49.9439 70.2071 48.7525C70.5357 48.0023 71.0238 47.186 71.8678 46.984ZM74.4576 55.9612C74.0439 56.1968 73.8796 56.6969 73.7413 57.1298C73.5912 57.7381 73.3808 58.4041 73.6018 59.0197C73.8134 59.4633 74.4635 59.3491 74.7011 58.9872C75.194 58.3031 74.9375 57.4147 74.9493 56.6356C74.9209 56.3627 74.8264 55.847 74.4576 55.9612ZM51.5148 46.5872C51.8186 46.4249 52.2004 46.5295 52.4096 46.7988C52.8481 47.3326 52.958 48.0913 52.8067 48.7573C52.6507 49.546 52.575 50.4104 52.9497 51.1498C53.2618 51.8603 53.8623 52.4722 53.9013 53.2826C53.9001 53.7803 53.3386 53.9005 52.9592 53.9714C52.6791 54.0159 52.2559 54.2023 52.1117 53.832C51.7713 52.958 52.0136 51.995 51.9155 51.0861C51.8186 50.4212 50.9841 50.0581 50.4285 50.3863C50.0633 50.7073 50.068 51.2532 50.0467 51.7052C50.0727 53.0505 50.2465 54.4055 50.6626 55.6871C51.2465 57.3967 52.0656 59.0365 52.3859 60.8303C52.4781 61.5588 52.5266 62.3235 52.3398 63.04C52.237 63.4668 51.7405 63.6724 51.3635 63.4692C50.4143 63.0388 49.8363 62.0614 49.568 61.0755C49.0042 59.0449 48.613 56.9711 48.2548 54.8948C47.9664 53.2128 47.5456 51.5597 47.1473 49.903C47.0291 49.3873 46.8376 48.8691 46.9085 48.3305C46.9747 47.6765 47.4309 47.0754 48.0456 46.8638C48.4167 46.7688 48.6921 47.0946 48.9616 47.2942C49.2241 47.5226 49.5798 47.6681 49.9262 47.5755C50.5609 47.4432 50.9533 46.8638 51.5148 46.5872ZM41.3613 45.3008C42.5209 44.9666 43.9523 45.2047 44.7513 46.1869C45.1438 46.6534 45.3033 47.2617 45.4724 47.8364C45.7371 48.833 46.0515 49.8249 46.1331 50.8588C46.2418 51.9517 46.0835 53.0433 45.9995 54.1325C45.9747 54.4535 45.8683 54.8022 45.5906 54.9885C45.0208 55.3757 44.223 54.9729 43.6958 55.4574C43.2395 55.8914 43.2809 56.596 43.3625 57.173C43.4629 57.791 43.6639 58.5195 44.2762 58.8033C44.6249 58.956 45.1804 59.0149 45.353 58.5797C45.6083 57.8439 45.4523 57.0107 45.7974 56.299C45.8731 56.1114 46.0728 55.966 46.2785 56.0177C46.8033 56.1235 47.2513 56.5238 47.4038 57.048C47.7182 58.1168 47.8116 59.2938 47.4109 60.3542C47.1815 60.912 47.1213 61.6502 46.5444 61.9676C45.9085 62.2742 45.1804 62.1179 44.5019 62.196C43.9476 62.2621 43.3577 62.1203 42.9476 61.7199C42.2419 61.0346 41.7774 60.1258 41.5044 59.1808C40.8105 56.84 40.6155 54.3898 40.437 51.9625C40.3354 50.5198 40.2479 49.0735 40.242 47.626C40.2585 47.0693 40.2621 46.4814 40.5138 45.9717C40.6805 45.6303 41.0233 45.4307 41.3613 45.3008ZM43.1343 49.3572C42.8069 49.4799 42.8861 49.8754 42.8838 50.1531C42.9027 50.6052 42.8932 51.1197 43.1958 51.4864C43.4488 51.7317 43.8093 51.4119 43.8152 51.1197C43.8743 50.5823 43.9074 50.0112 43.7265 49.4943C43.6391 49.231 43.3329 49.2069 43.1343 49.3572ZM59.8361 43.7499C60.108 42.9492 61.225 42.6547 61.8515 43.1993C62.2935 43.6297 62.4318 44.2657 62.5701 44.8488C62.881 46.3516 63.1197 47.8676 63.3656 49.3825C64.2107 49.3813 65.0559 49.3127 65.901 49.2731C66.2651 49.2707 66.6823 49.2731 66.9672 49.5412C67.2249 49.7997 67.323 50.1699 67.4293 50.5114C68.0688 52.7391 68.4471 55.0306 68.9305 57.2957C69.2544 58.9235 69.6492 60.5345 69.9848 62.1588C70.044 62.5952 70.2012 63.1049 69.9376 63.5041C69.6503 63.8046 69.226 63.914 68.843 64.0307C68.3513 64.1425 67.9199 63.771 67.6788 63.3754C67.1421 62.499 66.9223 61.4759 66.6705 60.4888C66.3005 58.7516 66.3194 56.9626 66.167 55.1989C66.0937 54.2828 65.9802 53.3078 65.4318 52.5444C65.2344 52.2655 64.8384 52.001 64.5157 52.239C64.1635 52.5047 64.1103 52.9964 64.0866 53.4088C64.0523 54.7072 64.6481 55.8902 64.9519 57.1237C65.3466 58.6133 65.5405 60.1462 65.7296 61.6742C65.8076 62.4389 65.914 63.2444 65.6504 63.9862C65.44 64.5993 64.8656 65.0165 64.2604 65.1584C63.9684 65.2305 63.6339 65.1596 63.4353 64.9215C63.0713 64.4899 62.9885 63.902 62.8916 63.3622C62.4342 60.2376 61.9827 57.1129 61.5406 53.9859C61.2285 51.585 60.5808 49.2514 59.9933 46.9094C59.7688 45.8839 59.4732 44.7779 59.8361 43.7499ZM54.8008 42.5717C54.9662 42.3553 55.2996 42.2231 55.5348 42.4082C55.7795 42.615 55.9 42.9288 56.0419 43.2113C56.3102 43.8257 56.6293 44.4268 56.7854 45.0856C56.991 45.8611 57.0064 46.6738 57.2215 47.4481C57.3137 47.8256 57.6612 48.0468 57.978 48.2187C58.5572 48.5325 59.2215 48.7489 59.6612 49.2707C60.0607 49.7383 60.0619 50.4597 59.751 50.9754C59.3515 51.6523 58.6837 52.1044 58.0087 52.4614C58.121 54.385 58.3444 56.305 58.7404 58.1901C58.9473 59.1928 59.4201 60.1077 59.7593 61.0671C60.2286 62.3547 60.9708 63.5101 61.6623 64.6811C61.8124 64.9648 62.0749 65.3832 61.7864 65.6633C61.446 65.9314 60.9839 65.9122 60.5772 65.9482C59.9803 65.9615 59.3113 66.03 58.8054 65.6429C58.3527 65.2894 58.082 64.7628 57.7995 64.2723C57.3445 63.456 56.8776 62.6288 56.6601 61.7079C56.3953 60.5898 56.3066 59.4381 56.1341 58.3043C55.8256 56.2281 55.5336 54.1494 55.2712 52.0671C54.6353 51.8831 53.9769 51.573 53.6211 50.9767C53.4155 50.6088 53.302 50.1026 53.5561 49.7287C53.9036 49.2081 54.4556 48.8835 54.9804 48.5758C54.783 47.1703 54.5821 45.7649 54.406 44.3571C54.3256 43.7439 54.4072 43.0647 54.8008 42.5717ZM35.4631 41.093C35.9182 41.0557 36.4714 40.8862 36.8567 41.2204C37.1262 41.5691 37.1002 42.0476 37.1853 42.4611C38.3354 48.3269 39.2763 54.2335 40.3342 60.1101C40.4157 60.5886 40.5658 61.0623 40.5564 61.5516C40.5517 61.9195 40.1675 62.0542 39.8803 62.1371C39.3566 62.2694 38.7893 62.4858 38.2562 62.2814C37.7609 62.0722 37.5966 61.4975 37.4654 61.0178C36.6404 58.1276 36.4123 55.1076 35.7421 52.1825C35.599 51.6631 35.4135 50.9839 34.8177 50.8504C34.313 50.7771 33.8012 50.9069 33.3166 51.0452C32.8497 51.2003 32.6086 51.7088 32.5873 52.1801C32.5223 53.214 32.8698 54.2047 33.0755 55.2013C33.4892 57.1887 33.787 59.1988 34.17 61.1921C34.261 61.744 34.4359 62.3403 34.2244 62.8837C34.0341 63.2829 33.5353 63.2648 33.17 63.3586C32.735 63.4536 32.1653 63.575 31.8698 63.1326C31.3367 62.3463 31.105 61.3977 30.8616 60.4876C30.2705 58.0663 29.8332 55.6101 29.3108 53.1732C28.6831 50.2361 28.2009 47.2617 27.9751 44.2633C27.9467 43.7379 27.8888 43.1524 28.189 42.692C28.4952 42.276 29.0424 42.2183 29.4999 42.0896C29.9219 41.9959 30.4065 41.8324 30.8048 42.0848C31.1712 42.3698 31.2162 42.8819 31.3202 43.3063C31.5625 44.6264 31.7091 45.9657 32.0046 47.2761C32.0826 47.5599 32.1511 47.8712 32.3627 48.0864C32.5908 48.2872 32.9041 48.143 33.17 48.1273C33.5459 48.0576 34.0258 48.1634 34.2894 47.8087C34.5849 47.3687 34.4844 46.8024 34.4974 46.3011C34.5222 45.1241 34.2634 43.9712 34.0234 42.8278C33.9348 42.4106 33.865 41.9021 34.1735 41.5582C34.5092 41.212 35.0163 41.1639 35.4631 41.087V41.093ZM89.7291 40.9727C90.6062 40.8056 91.5884 40.7371 92.3827 41.2312C93.5742 41.9706 94.2101 43.459 94.1002 44.8524C94.073 45.4078 94.0884 46.0991 93.5943 46.4598C93.2988 46.6401 92.8343 46.7724 92.5648 46.4863C92.3591 46.158 92.2551 45.7721 92.0068 45.4692C91.6605 45.046 91.735 44.3883 91.3142 44.0253C90.7799 43.7644 89.8591 44.0192 89.8698 44.7394C89.9005 45.7661 90.3828 46.7147 90.8946 47.5779C92.1759 49.6698 93.9347 51.3926 95.3543 53.3799C96.1959 54.5557 96.8684 55.9071 97.0079 57.3738C97.1249 58.5123 96.9997 59.7747 96.2479 60.6824C95.5446 61.5468 94.4028 61.8798 93.3366 61.8979C92.4336 61.9147 91.4359 61.8233 90.722 61.1994C90.0766 60.6211 89.8142 59.7494 89.6062 58.9307C89.4064 58.1685 89.274 57.3281 89.5802 56.5755C89.7658 56.1006 90.1913 55.6678 90.722 55.6726C91.222 55.6438 91.6416 56.0225 91.8544 56.4529C92.1345 56.9602 92.1593 57.5553 92.3532 58.094C92.5376 58.5785 93.1156 58.6879 93.5659 58.7131C94.099 58.5989 94.1569 57.9172 94.099 57.4688C93.9182 56.2197 93.1995 55.1388 92.4631 54.1554C91.1322 52.4338 89.5873 50.8877 88.3414 49.0963C87.4644 47.8268 87.2138 46.2506 87.0731 44.7394C86.9869 43.8906 87.0944 42.9781 87.5909 42.2664C88.0826 41.5474 88.9029 41.1423 89.7291 40.9727ZM81.6205 41.0208C82.5165 40.772 83.5614 40.5123 84.4077 41.0485C85.403 41.6893 85.7304 42.9553 85.8509 44.0757C85.9928 45.9176 85.8084 47.7907 85.3226 49.5712C86.293 49.6361 87.1831 50.2072 87.7374 51.0067C88.5176 52.1176 88.7776 53.5062 88.8674 54.8431C88.9608 56.3567 88.8249 57.9737 88.0093 59.2842C87.4053 60.27 86.3947 60.9445 85.306 61.2499C83.8782 61.6514 82.3557 61.6334 80.9161 61.3076C80.5236 57.8703 80.13 54.4319 79.6501 51.0055C79.3464 48.6226 78.7518 46.2458 77.61 44.1274C77.5769 43.37 77.6064 42.6102 77.5982 41.8516C78.9527 41.6592 80.3085 41.4272 81.6205 41.0208ZM81.6205 44.4028C81.4551 45.2684 81.3593 46.1592 81.4444 47.0405C81.5272 47.7991 81.6395 48.6383 82.195 49.2045C82.8983 48.5794 82.9657 47.5478 82.9668 46.663C82.9444 45.9861 83.052 45.2912 82.8959 44.6276C82.656 44.1587 82.0295 44.2344 81.6205 44.4028ZM83.6784 52.1512C83.2978 52.2102 83.0567 52.566 82.9834 52.9267C82.812 53.7082 82.8699 54.5173 82.8983 55.312C82.9491 55.9083 82.9728 56.5515 83.3037 57.0684C83.6276 57.5553 84.4065 57.5313 84.7446 57.0708C85.2446 56.406 85.3214 55.5296 85.3959 54.7241C85.4372 53.9125 85.4254 52.994 84.8959 52.3328C84.5957 51.9553 84.0815 52.0647 83.6784 52.1512ZM99.1864 40.6121C100.059 40.3981 101.01 40.683 101.639 41.3322C102.691 42.383 103.083 43.8918 103.392 45.3117C103.495 45.9212 103.631 46.675 103.166 47.1691C102.801 47.519 102.075 47.7402 101.748 47.2292C101.346 46.5812 101.263 45.7781 100.849 45.1361C100.568 44.85 100.041 44.8524 99.7632 45.1445C99.45 45.4511 99.301 45.8827 99.1899 46.2987C98.892 47.5563 98.937 48.8655 99.0386 50.1459C99.2289 52.4554 99.8601 54.7469 101.028 56.7462C101.296 57.1634 101.593 57.6407 102.086 57.8018C102.466 57.9064 102.771 57.5565 102.925 57.2452C103.303 56.5719 103.218 55.74 103.587 55.0655C103.832 54.6435 104.407 54.7758 104.732 55.0234C105.286 55.4394 105.427 56.1824 105.522 56.834C105.674 58.2959 105.716 59.8312 105.165 61.2198C104.833 62.071 104.274 62.9198 103.4 63.2588C102.542 63.5822 101.559 63.2564 100.931 62.612C100.072 61.7428 99.554 60.6067 98.9949 59.5306C98.3814 58.35 97.7951 57.1478 97.3767 55.8794C96.398 53 96.0682 49.9343 96.0387 46.901C96.054 45.397 96.2006 43.8353 96.8933 42.4792C97.3519 41.5667 98.1769 40.8092 99.1864 40.6121ZM26.7884 6.10758C22.0615 6.45984 17.3394 7.10304 12.7461 8.30409C15.5687 11.5562 17.9978 15.1821 19.8098 19.1147C20.4953 20.6223 21.0627 22.1828 21.6277 23.7409C23.1797 28.1147 24.5354 32.5606 25.7706 37.0378C29.4502 36.082 33.1889 35.3498 36.9654 34.9327C39.8685 34.6261 42.8117 34.4962 45.7111 34.899C48.6437 35.2741 51.5408 35.8824 54.432 36.4968C57.2073 37.0751 59.9969 37.6726 62.8349 37.8072C65.466 37.9455 68.0735 37.4658 70.6503 36.9837C75.5639 36.0267 80.4456 34.8653 85.4136 34.2534C88.7445 33.835 92.1144 33.7244 95.463 33.948C97.606 34.1223 99.7809 34.382 101.799 35.1803C101.905 32.0653 101.8 28.9407 101.468 25.8413C101.041 21.6118 100.008 17.4424 98.3377 13.5423C97.6072 11.8651 96.7952 10.2109 95.7526 8.71165C95.0411 8.48082 94.2893 8.40147 93.5553 8.26922C87.9939 7.43005 82.3262 7.58154 76.7589 8.3101C73.7436 8.65755 70.7425 9.12041 67.7367 9.5412C65.2048 9.89586 62.654 10.0786 60.1009 10.1507C56.8456 10.2878 53.614 9.74318 50.4155 9.19616C45.3672 8.30289 40.3578 7.17518 35.274 6.48389C32.462 6.10878 29.6145 5.86232 26.7801 6.10638" fill="black"/>
</g>
<defs>
<clipPath id="clip0_2161_1820">
<rect width="113" height="107" fill="white"/>
</clipPath>
</defs>
</svg>
