<svg width="210" height="86" viewBox="0 0 210 86" fill="none" xmlns="http://www.w3.org/2000/svg">
<g clip-path="url(#clip0_2124_2156)">
<mask id="mask0_2124_2156" style="mask-type:luminance" maskUnits="userSpaceOnUse" x="0" y="0" width="210" height="86">
<path d="M210 0H0V85.9947H210V0Z" fill="white"/>
</mask>
<g mask="url(#mask0_2124_2156)">
<path d="M134.102 9.26016C134.065 9.03906 133.881 8.81795 133.257 8.81795H99.2629C99.2629 8.81795 98.3442 8.81795 97.7562 9.48127L96.9844 10.3657C96.9844 10.3657 95.9554 11.5081 97.4989 11.5081H128.736L122.594 17.5569H110.304C109.642 17.5938 109.164 18.0728 109.164 18.0728L103.426 23.8269C103.316 23.9374 103.242 24.048 103.169 24.1217C103.059 24.306 102.948 24.4902 102.948 24.6745C102.948 24.8587 103.022 25.043 103.169 25.1904C103.206 25.2272 103.242 25.2272 103.279 25.2641H103.353C103.463 25.3378 103.61 25.3746 103.72 25.3746H109.642L103.463 31.5709H96.4384C96.4384 31.5709 96.1077 31.5709 95.7402 31.7551C95.4094 31.9025 95.2257 32.0868 95.2257 32.0868L92.1334 35.1507H82.8987L99.0844 18.9573C99.3784 18.6625 99.4886 18.4414 99.4519 18.2571V18.2203C99.4519 17.8149 99.0844 17.5938 98.6802 17.5938H79.9534L94.8162 2.72698H119.281C119.281 2.72698 120.273 2.72698 120.972 1.98996L121.817 1.10553C121.817 1.10553 122.883 0 121.339 0H94.5537C94.5537 0 94.2964 0 94.0024 0.110553C93.4879 0.221107 93.1572 0.552767 93.1572 0.552767L74.9449 18.7783L74.7979 18.9257L74.6877 19.0362C74.6877 19.0362 74.6877 19.0731 74.6509 19.0731V19.1099C74.5774 19.2205 74.5407 19.2942 74.5407 19.4048C74.5407 19.4785 74.5039 19.5153 74.5039 19.589C74.5039 19.9575 74.8347 20.2523 75.2389 20.2892H93.9289L78.6252 35.5982L78.5149 35.7087L77.8902 36.3352C77.8167 36.4089 77.7432 36.4826 77.7064 36.5563C77.5594 36.7406 77.4492 36.9617 77.4492 37.1459C77.4492 37.2933 77.5227 37.4776 77.6329 37.5882C77.6697 37.6619 77.7799 37.7356 77.8902 37.7724C78.0004 37.8093 78.1107 37.8461 78.2577 37.8461H92.4956C92.4956 37.8461 93.0837 37.8461 93.5982 37.4407C93.7084 37.367 93.7819 37.2933 93.7819 37.2933L96.8374 34.2663H103.935C103.935 34.2663 104.744 34.2663 105.258 33.6398L105.552 33.2713L113.868 24.9324C113.905 24.8956 113.942 24.8587 113.979 24.8219L114.714 24.0848C114.934 23.8637 115.044 23.6795 115.081 23.5321C115.118 23.4584 115.118 23.4215 115.118 23.3478C115.118 22.9425 114.75 22.7214 114.346 22.7214H108.277L110.708 20.2839H123.035C123.696 20.2839 124.174 19.8048 124.174 19.8048L124.211 19.768L124.248 19.7311L133.813 10.1762C134.291 9.69711 134.254 9.43915 134.107 9.2549" fill="black"/>
</g>
<mask id="mask1_2124_2156" style="mask-type:luminance" maskUnits="userSpaceOnUse" x="0" y="0" width="210" height="86">
<path d="M210 0H0V85.9947H210V0Z" fill="white"/>
</mask>
<g mask="url(#mask1_2124_2156)">
<path d="M209.45 47.1113H206.174C205.476 47.1113 205.182 47.185 204.778 48.0326L201.355 54.5605L197.821 48.0326C197.38 47.2218 197.086 47.1113 196.388 47.1113H192.892C192.304 47.1113 192.267 47.6272 192.414 47.9589L198.887 59.6143V66.2528C198.887 66.953 199.181 67.1372 199.769 67.1372H202.788C203.339 67.1372 203.67 66.953 203.67 66.2528V59.6143L209.923 47.9589C210.07 47.6272 210.033 47.1113 209.445 47.1113M187.999 66.1107L183.694 59.8776C185.568 59.2511 187.925 57.0348 187.925 53.8287C187.925 51.8756 187.3 50.1383 186.161 49.0697C184.875 47.7799 183.436 47.1165 180.129 47.1165H172.474C171.776 47.1165 171.629 47.4482 171.629 48.001V66.2265C171.629 66.9267 171.923 67.1109 172.474 67.1109H175.493C176.044 67.1109 176.375 66.9267 176.375 66.2265V51.3965H180.423C182.003 51.3965 183.221 52.3915 183.221 53.9814C183.221 55.4186 181.825 56.4557 180.349 56.4557H179.761C179.063 56.4557 178.879 56.7873 178.879 57.3401V59.7775C178.879 60.6251 178.953 60.9568 179.21 61.3253L182.486 66.2318C182.927 66.8582 183.258 67.153 183.993 67.153H187.563C188.114 67.1162 188.261 66.5634 188.004 66.1212M160.594 60.2461C160.594 62.1992 159.197 63.31 157.207 63.31C155.218 63.31 153.858 62.2045 153.858 60.2461V53.9393C153.858 51.9862 155.254 50.8754 157.207 50.8754C159.16 50.8754 160.594 51.9809 160.594 53.9393V60.2461ZM165.34 53.4918C165.34 48.6959 160.777 46.6322 157.171 46.6322C153.564 46.6322 149.075 48.6959 149.075 53.4918V60.6462C149.075 65.4421 153.564 67.5057 157.171 67.5057C160.777 67.5057 165.34 65.4421 165.34 60.6462V53.4918ZM143.337 47.1113H129.246C128.548 47.1113 128.364 47.4429 128.364 47.9957V50.5069C128.364 51.0596 128.548 51.3913 129.246 51.3913H133.918V66.2212C133.918 66.9214 134.249 67.1057 134.8 67.1057H137.819C138.37 67.1057 138.701 66.9214 138.701 66.2212V51.3913H143.337C144.035 51.3913 144.219 51.0596 144.219 50.5069V47.9957C144.219 47.4429 144.035 47.1113 143.337 47.1113ZM123.618 61.1674C123.618 60.4303 123.361 60.1355 122.699 60.1355H119.717C119.056 60.1355 118.982 60.6146 118.909 61.2411C118.651 62.7151 117.365 63.3047 115.706 63.3047C113.722 63.3047 112.357 62.1992 112.357 60.2777V53.9709C112.357 52.0546 113.716 50.9438 115.706 50.9438C117.323 50.9438 118.21 51.386 118.835 52.4178C119.092 52.7864 119.092 53.376 119.754 53.376H122.662C123.361 53.376 123.618 53.2286 123.618 52.4915C123.214 48.6169 119.497 46.7007 115.743 46.7007C111.989 46.7007 107.611 48.8012 107.611 53.5602V60.7146C107.611 65.4737 112.136 67.5742 115.743 67.5742C119.497 67.5373 123.618 65.063 123.618 61.1568M91.4616 59.5406L93.7401 52.8285L96.0186 59.5406H91.4563H91.4616ZM103.127 66.2581L96.4333 48.0326C96.1761 47.4061 95.8453 47.0744 95.1838 47.0744H92.2753C91.6138 47.0744 91.2831 47.3692 91.0258 48.0326L84.2953 66.2581C84.1483 66.6266 84.1483 67.1057 84.8098 67.1057H88.0123C88.6738 67.1057 88.9311 66.9214 89.1516 66.1844L89.9968 63.7838H97.4308L98.2761 66.1844C98.5333 66.9214 98.7538 67.1057 99.4153 67.1057H102.618C103.279 67.1057 103.279 66.6266 103.132 66.2581M81.0141 47.1113H67.9888C67.2906 47.1113 67.1068 47.4429 67.1068 47.9957V66.2212C67.1068 66.774 67.2906 67.1057 67.9888 67.1057H71.0076C71.7058 67.1057 71.8896 66.9951 71.8896 66.1844V59.0668H79.7646C80.4628 59.0668 80.6466 58.7352 80.6466 58.1824V55.7818C80.6466 55.2291 80.4628 54.8974 79.7646 54.8974H71.8896V51.3544H81.0508C81.7491 51.3544 81.9328 51.0228 81.9328 50.47V47.9589C81.8961 47.4429 81.7123 47.1113 81.0141 47.1113ZM60.8541 66.1107L56.5858 59.8776C58.4601 59.2511 60.8173 57.0348 60.8173 53.8287C60.8173 51.8756 60.1926 50.1383 59.0534 49.0697C57.7671 47.7799 56.3286 47.1165 53.0211 47.1165H45.3666C44.6683 47.1165 44.5213 47.4482 44.5213 48.001V66.2265C44.5213 66.9267 44.8153 67.1109 45.3666 67.1109H48.3854C48.9366 67.1109 49.2673 66.9267 49.2673 66.2265V51.3965H53.3151C54.8954 51.3965 56.1133 52.3915 56.1133 53.9814C56.1133 55.4186 54.7169 56.4557 53.2416 56.4557H52.6536C51.9553 56.4557 51.7716 56.7873 51.7716 57.3401V59.7775C51.7716 60.6251 51.8451 60.9568 52.1023 61.3253L55.3784 66.2318C55.8194 66.8582 56.1501 67.153 56.8851 67.153H60.4551C60.9696 67.1162 61.1166 66.5634 60.8593 66.1212M27.7056 59.5406L29.9841 52.8285L32.2626 59.5406H27.7003H27.7056ZM39.3658 66.2581L32.6721 48.0326C32.4148 47.4061 32.0841 47.0744 31.4226 47.0744H28.5141C27.8526 47.0744 27.5218 47.3692 27.2646 48.0326L20.5341 66.2581C20.3871 66.6266 20.3871 67.1057 21.0486 67.1057H24.2511C24.9126 67.1057 25.1698 66.9214 25.3903 66.1844L26.2356 63.7838H33.6696L34.5148 66.1844C34.7721 66.9214 34.9926 67.1057 35.6541 67.1057H38.8566C39.5181 67.1057 39.5181 66.6266 39.3711 66.2581M16.0033 61.1674C16.0033 60.4303 15.7461 60.1355 15.0846 60.1355H12.1026C11.4411 60.1355 11.3676 60.6146 11.2941 61.2411C11.0368 62.7151 9.75059 63.3047 8.09159 63.3047C6.10709 63.3047 4.74209 62.1992 4.74209 60.2777V53.9709C4.74209 52.0546 6.10184 50.9438 8.09159 50.9438C9.70859 50.9438 10.5958 51.386 11.2206 52.4178C11.4778 52.7864 11.4778 53.376 12.1393 53.376H15.0478C15.7461 53.376 16.0033 53.2286 16.0033 52.4915C15.5991 48.5432 11.8821 46.627 8.12834 46.627C4.37459 46.627 -0.00390625 48.7275 -0.00390625 53.4865V60.6409C-0.00390625 65.4 4.52159 67.5005 8.12834 67.5005C11.8821 67.5373 16.0033 65.063 16.0033 61.1568" fill="black"/>
</g>
<mask id="mask2_2124_2156" style="mask-type:luminance" maskUnits="userSpaceOnUse" x="0" y="0" width="210" height="86">
<path d="M210 0H0V85.9947H210V0Z" fill="white"/>
</mask>
<g mask="url(#mask2_2124_2156)">
<path d="M133.329 76.5134H131.932C131.675 76.5134 131.528 76.5871 131.528 76.9188V81.9358L128.472 76.9925C128.289 76.6977 128.178 76.5134 127.811 76.5134H126.451C126.12 76.5134 126.047 76.6608 126.047 76.9188V85.5525C126.047 85.8841 126.194 85.9578 126.451 85.9578H127.884C128.142 85.9578 128.289 85.8841 128.289 85.5525V80.5354L131.344 85.4788C131.528 85.7736 131.638 85.9578 132.006 85.9578H133.329C133.659 85.9578 133.733 85.8104 133.733 85.5525V76.9556C133.733 76.624 133.586 76.5134 133.329 76.5134ZM122.22 84.0416H121.301V78.5455H122.146C122.477 78.5455 122.55 78.3981 122.55 78.1401V76.9609C122.55 76.7029 122.477 76.5555 122.146 76.5555H118.135C117.804 76.5555 117.731 76.7029 117.731 76.9609V78.1401C117.731 78.3981 117.804 78.5455 118.135 78.5455H119.017V84.0416H118.098C117.768 84.0416 117.694 84.189 117.694 84.4469V85.5893C117.694 85.8473 117.768 85.9947 118.098 85.9947H122.183C122.514 85.9947 122.587 85.8473 122.587 85.5893V84.4469C122.624 84.189 122.55 84.0416 122.22 84.0416ZM114.565 84.0047H110.444V76.9609C110.444 76.6292 110.297 76.5555 110.04 76.5555H108.606C108.349 76.5555 108.202 76.6292 108.202 76.9609V85.5946C108.202 85.8525 108.276 85.9999 108.606 85.9999H114.565C114.896 85.9999 114.969 85.8525 114.969 85.5946V84.4153C114.969 84.1574 114.896 84.01 114.565 84.01M104.742 85.5525L102.721 82.5991C103.603 82.3043 104.706 81.2356 104.706 79.7195C104.706 78.7982 104.412 77.9875 103.86 77.4715C103.272 76.8819 102.574 76.5503 100.989 76.5503H97.382C97.0512 76.5503 96.9777 76.6977 96.9777 76.9556V85.5893C96.9777 85.921 97.1247 85.9947 97.382 85.9947H98.8152C99.0725 85.9947 99.2195 85.921 99.2195 85.5893V78.5455H101.13C101.865 78.5455 102.453 79.0245 102.453 79.7616C102.453 80.4249 101.792 80.9408 101.094 80.9408H100.8C100.469 80.9408 100.395 81.0882 100.395 81.3462V82.4886C100.395 82.8939 100.432 83.0413 100.542 83.2256L102.086 85.5472C102.27 85.842 102.453 85.9894 102.821 85.9894H104.511C104.805 86.0263 104.879 85.7315 104.732 85.5472M93.266 84.0047H88.667V82.0885H92.531C92.8617 82.0885 92.9352 81.9411 92.9352 81.6831V80.5776C92.9352 80.3196 92.8617 80.1722 92.531 80.1722H88.667V78.5876H93.0087C93.3395 78.5876 93.413 78.4402 93.413 78.1822V76.9662C93.413 76.7082 93.3395 76.5608 93.0087 76.5608H86.8295C86.4987 76.5608 86.4252 76.7082 86.4252 76.9662V85.5998C86.4252 85.8578 86.4987 86.0052 86.8295 86.0052H93.266C93.5967 86.0052 93.6702 85.8578 93.6702 85.5998V84.4206C93.707 84.1627 93.5967 84.0152 93.266 84.0152M79.6527 83.9679H77.222V78.5455H79.3902C80.1252 78.5455 80.5662 78.6929 80.5662 79.3562C80.5662 79.909 80.1987 80.2038 79.3902 80.2038H79.2065C78.8757 80.2038 78.8022 80.3512 78.8022 80.6091V81.7147C78.8022 81.9726 78.8757 82.1201 79.2065 82.1201H79.5372C80.2355 82.1201 80.7132 82.3043 80.7132 83.0045C80.75 83.6678 80.3457 83.9626 79.6475 83.9626M81.7107 81.0882C81.8577 81.0145 82.7765 80.5723 82.7765 79.0983C82.7765 77.7348 81.7842 76.4766 79.427 76.4766H75.416C75.0852 76.4766 75.0117 76.624 75.0117 76.8819V85.5525C75.0117 85.8104 75.0852 85.9578 75.416 85.9578H79.6475C81.632 85.9578 83.0705 85.0366 83.0705 83.1887C83.0337 81.6778 81.821 81.1251 81.7107 81.0882Z" fill="black"/>
</g>
</g>
<defs>
<clipPath id="clip0_2124_2156">
<rect width="210" height="86" fill="white"/>
</clipPath>
</defs>
</svg>
