<svg width="199" height="41" viewBox="0 0 199 41" fill="none" xmlns="http://www.w3.org/2000/svg">
<g clip-path="url(#clip0_2124_2126)">
<path d="M98.8795 9.21957C98.3895 6.33957 96.9795 3.99957 94.6395 2.23957C92.7095 0.78957 90.5095 0.0595703 88.0995 0.0595703C77.8895 0.0595703 67.6795 0.0595703 57.4595 0.0595703C56.8695 0.0595703 56.2795 0.11957 55.7095 0.26957C55.3795 0.35957 55.0495 0.46957 54.7295 0.59957C53.8395 0.94957 53.0795 1.47957 52.4095 2.13957C52.0395 2.50957 51.7295 2.94957 51.4595 3.39957C51.0895 4.01957 50.8195 4.67957 50.6595 5.38957C50.5195 5.98957 50.5195 6.59957 50.5195 7.20957C50.5195 17.9596 50.5195 28.6996 50.5395 39.4496C50.5395 39.7596 50.5395 40.0796 50.5495 40.3896H60.5595C60.6295 40.3296 60.7195 40.2996 60.8095 40.2796C61.6295 40.0696 62.2795 39.6096 62.7895 38.9396C63.3395 38.2196 63.5395 37.3996 63.5495 36.5096C63.5495 34.6096 63.5495 32.7096 63.5495 30.8196C63.5495 30.3396 63.5495 30.3396 64.0295 30.3396C72.0795 30.3396 80.1195 30.3396 88.1695 30.3296C88.5495 30.3296 88.9195 30.3096 89.2995 30.2596C91.1195 30.0496 92.7995 29.4496 94.3095 28.3996C95.9795 27.2396 97.2595 25.7396 98.0895 23.8796C98.6995 22.4996 99.0295 21.0596 99.0295 19.5396C99.0195 16.5996 99.0295 13.6496 99.0295 10.7096C99.0295 10.1996 98.9895 9.69957 98.8995 9.19957L98.8795 9.21957ZM83.5395 20.2196C83.1095 20.2596 82.6895 20.2196 82.2595 20.2196C76.2095 20.2196 70.1595 20.2196 64.1095 20.2296C63.9895 20.2296 63.8695 20.2296 63.7395 20.2296C63.6195 20.2296 63.5495 20.1596 63.5495 20.0396C63.5495 19.9396 63.5495 19.8396 63.5495 19.7396C63.5495 16.6596 63.5495 13.5696 63.5495 10.4896C63.5495 10.2996 63.6695 10.1996 63.8995 10.1996C67.1595 10.1996 70.4295 10.1996 73.6895 10.1996C76.7295 10.1996 79.7695 10.1996 82.8095 10.1996C83.3395 10.1996 83.8695 10.1996 84.3695 10.3996C85.3795 10.8096 86.0595 11.4996 86.3195 12.5696C86.3695 12.7796 86.3695 12.9896 86.3695 13.2096C86.3695 14.5496 86.3495 15.8896 86.3695 17.2296C86.3995 18.8096 85.0495 20.0996 83.5295 20.2396L83.5395 20.2196Z" fill="black"/>
<path d="M148.13 17.14C138.72 17.14 129.31 17.15 119.91 17.16C119.71 17.16 119.5 17.16 119.3 17.16C119.07 17.16 119.05 17.13 119.04 16.89C119.04 16.84 119.04 16.79 119.04 16.74C119.04 14.71 119.04 12.68 119.04 10.65C119.04 10.34 119.2 10.19 119.52 10.19C129.06 10.19 138.6 10.18 148.14 10.18C148.5 10.18 148.68 10 148.68 9.65004C148.68 6.81004 148.68 3.97004 148.68 1.13004C148.68 0.930039 148.68 0.730039 148.66 0.520039C148.62 0.0400391 148.62 0.0400391 148.15 0.0400391C136.4 0.0400391 124.66 0.0600391 112.91 0.0500391C111.96 0.0500391 111.06 0.250039 110.21 0.600039C108.66 1.22004 107.51 2.31004 106.75 3.80004C106.21 4.84004 106.01 5.96004 106.02 7.12004C106.03 18.09 106.04 29.06 106.04 40.02C106.04 40.14 106.04 40.26 106.05 40.38H116.12C116.22 40.34 116.31 40.31 116.41 40.28C117.3 40 118.01 39.49 118.51 38.7C118.89 38.1 119.07 37.45 119.07 36.74C119.07 33.78 119.07 30.81 119.07 27.85C119.07 27.75 119.07 27.65 119.07 27.55C119.08 27.33 119.1 27.3 119.32 27.29C119.43 27.29 119.54 27.29 119.66 27.29C129.15 27.29 138.64 27.28 148.13 27.27C148.25 27.27 148.37 27.27 148.5 27.27C148.64 27.27 148.71 27.19 148.7 27.05C148.67 26.7 148.73 26.36 148.73 26.02C148.73 23.25 148.73 20.48 148.73 17.71C148.73 17.34 148.55 17.15 148.18 17.15L148.13 17.14Z" fill="black"/>
<path d="M198.358 17.13C188.698 17.13 179.038 17.13 169.378 17.13C169.248 17.13 169.118 17.13 168.978 17.13C168.838 17.13 168.768 17.07 168.768 16.93C168.768 16.85 168.768 16.77 168.768 16.69C168.768 14.66 168.768 12.63 168.768 10.6C168.768 10.3 168.918 10.15 169.218 10.15C178.598 10.15 187.988 10.14 197.368 10.13C197.698 10.13 198.018 10.13 198.348 10.13V0.02C198.188 0.02 198.038 0 197.888 0C186.168 0 174.438 0.01 162.718 0.02C162.548 0.02 162.368 0.02 162.198 0.02C161.358 0.07 160.548 0.25 159.788 0.59C158.198 1.29 157.038 2.45 156.328 4.03C155.958 4.85 155.738 5.71 155.738 6.62C155.748 17.66 155.748 28.69 155.758 39.73C155.758 39.93 155.758 40.14 155.758 40.34C159.138 40.34 162.508 40.34 165.888 40.34C165.968 40.31 166.038 40.28 166.118 40.26C167.438 39.84 168.298 38.97 168.688 37.64C168.818 37.2 168.808 36.75 168.808 36.31C168.818 33.46 168.808 30.61 168.808 27.76C168.808 27.42 168.978 27.25 169.308 27.25C178.848 27.25 188.388 27.24 197.928 27.23C198.068 27.23 198.208 27.23 198.358 27.23V17.12V17.13Z" fill="black"/>
<path d="M10.1617 30.6002C10.1517 30.4102 10.1117 30.3702 9.92172 30.3602C9.62172 30.3402 9.31172 30.3202 9.01172 30.3302C6.18172 30.3502 3.36172 30.2902 0.531719 30.3602C0.0617187 30.3702 0.0117188 30.2802 0.0117188 30.8802C0.0117188 34.0602 0.0117188 37.2502 0.0117188 40.4302H10.1417C10.1417 40.2602 10.1617 40.1002 10.1617 39.9402C10.1617 36.9602 10.1617 33.9802 10.1617 31.0002C10.1617 30.8702 10.1617 30.7402 10.1617 30.6002Z" fill="black"/>
<path d="M29.8188 30.3496C26.8088 30.3496 23.7988 30.3496 20.7888 30.3496C20.4088 30.3496 20.2188 30.5396 20.2188 30.9196C20.2188 33.8196 20.2188 36.7196 20.2188 39.6196C20.2188 39.8796 20.2388 40.1496 20.2788 40.4096H27.4788C27.5888 40.2996 27.7288 40.2796 27.8688 40.2396C28.4988 40.0196 29.0387 39.6696 29.4688 39.1596C30.0888 38.4296 30.3688 37.5796 30.3688 36.6396C30.3688 34.7196 30.3688 32.8096 30.3688 30.8896C30.3688 30.5296 30.1888 30.3496 29.8288 30.3496H29.8188Z" fill="black"/>
<path d="M20.2384 29.6098C20.2384 28.1998 20.2384 26.7898 20.2384 25.0798C20.2584 23.8398 20.1984 22.2998 20.2684 20.7498C20.2884 20.2898 20.2384 20.2598 19.7684 20.2598C16.7184 20.2598 13.6684 20.2598 10.6184 20.2598C10.1584 20.2598 10.1484 20.2598 10.1484 20.7398C10.1484 23.7798 10.1484 26.8298 10.1484 29.8698C10.1484 30.3598 10.1484 30.3698 10.6384 30.3698C13.6884 30.3698 16.7384 30.3698 19.7884 30.3698C19.8484 30.3698 19.9084 30.3698 19.9684 30.3698C20.2384 30.3598 20.2684 30.3198 20.2584 30.0598C20.2584 29.9098 20.2484 29.7598 20.2484 29.5998L20.2384 29.6098Z" fill="black"/>
<path d="M20.25 19.7998C20.25 20.1198 20.41 20.2698 20.72 20.2698C23.78 20.2698 26.84 20.2698 29.9 20.2698C30.35 20.2698 30.35 20.2698 30.35 19.8098C30.35 16.6098 30.35 13.4198 30.35 10.2198C30.48 10.2198 30.61 10.2198 30.75 10.2198C33.81 10.2198 36.87 10.2198 39.93 10.2198C40.42 10.2198 40.42 10.2098 40.42 9.72984C40.42 6.80984 40.42 3.88984 40.42 0.969844C40.42 0.799844 40.42 0.629844 40.42 0.449844C40.42 0.109844 40.4 0.0998437 40.05 0.0898438C40.04 0.0898438 40.03 0.0898438 40.02 0.0898438C36.9 0.0898438 33.78 0.0898438 30.66 0.0898438C30.3 0.0898438 30.28 0.109844 30.28 0.469844C30.28 0.489844 30.28 0.509844 30.28 0.529844C30.28 3.61984 30.28 6.71984 30.28 9.80984C30.28 9.93984 30.28 10.0698 30.33 10.1998C27.12 10.1998 23.9 10.1998 20.69 10.1998C20.25 10.1998 20.25 10.1998 20.25 10.6398C20.25 13.6898 20.25 16.7498 20.25 19.7998Z" fill="black"/>
<path d="M39.9681 20.2602C36.9181 20.2602 33.8681 20.2602 30.8181 20.2602C30.7281 20.2602 30.6381 20.2602 30.5481 20.2602C30.4081 20.2702 30.3281 20.3402 30.3281 20.4902C30.3281 20.5602 30.3281 20.6302 30.3281 20.7002C30.3281 22.2302 30.3281 23.7602 30.3281 25.3002C30.3281 26.8202 30.3281 28.3402 30.3281 29.8702C30.3281 30.2002 30.4881 30.3602 30.8081 30.3602C32.7281 30.3602 34.6481 30.3602 36.5781 30.3602C36.7781 30.3602 36.9881 30.3402 37.1881 30.3202C38.9981 30.1302 40.4581 28.5802 40.4381 26.6702C40.4181 24.6802 40.4381 22.6902 40.4381 20.7002C40.4381 20.2502 40.4381 20.2402 39.9781 20.2402L39.9681 20.2602Z" fill="black"/>
<path d="M0.250538 20.2804C0.300538 20.2804 0.350538 20.2804 0.400538 20.2804C3.53054 20.2804 6.66054 20.2804 9.80054 20.2804C10.1205 20.2804 10.1505 20.2504 10.1505 19.9404C10.1505 19.9104 10.1505 19.8804 10.1505 19.8504C10.1505 16.7504 10.1505 13.6404 10.1505 10.5404C10.1505 10.4404 10.1505 10.3404 10.1505 10.2404C10.4905 10.2404 10.8205 10.2404 11.1605 10.2404C14.0705 10.2404 16.9705 10.2404 19.8805 10.2404C20.2305 10.2404 20.2705 10.2004 20.2705 9.86035C20.2705 9.83035 20.2705 9.80035 20.2705 9.77035C20.2705 6.91035 20.2705 4.05035 20.2705 1.19035C20.2705 0.910352 20.2505 0.620352 20.2305 0.340352C20.2205 0.150352 20.1905 0.120352 19.9905 0.110352C19.9305 0.110352 19.8705 0.110352 19.8105 0.110352C17.8305 0.110352 15.8505 0.110352 13.8605 0.110352C13.6205 0.110352 13.3705 0.130352 13.1305 0.170352C11.3605 0.520352 10.1205 2.09035 10.1305 3.75035C10.1405 5.91035 10.1305 8.07035 10.1305 10.2304C10.0105 10.2304 9.89054 10.2204 9.76054 10.2204C7.72054 10.2204 5.67054 10.2204 3.63054 10.2204C2.86054 10.2204 2.17054 10.4504 1.55054 10.9004C0.520538 11.6504 0.0105382 12.7004 0.000538195 13.9804C-0.00946181 15.9304 0.000538195 17.8804 0.000538195 19.8204C0.000538195 19.8904 0.000538195 19.9604 0.000538195 20.0304C0.0205382 20.2204 0.0605382 20.2604 0.240538 20.2804H0.250538Z" fill="black"/>
</g>
<defs>
<clipPath id="clip0_2124_2126">
<rect width="198.37" height="40.43" fill="white"/>
</clipPath>
</defs>
</svg>
