<svg width="240" height="60" viewBox="0 0 240 60" fill="none" xmlns="http://www.w3.org/2000/svg">
<g clip-path="url(#clip0_2124_2250)">
<path d="M19 59.7565V55.957H19.4763V59.3425H21.247V59.7565H19Z" fill="black"/>
<path d="M26.402 55.957H25.9258V59.7565H26.402V55.957Z" fill="black"/>
<path d="M31.1416 57.869C31.1416 56.8217 31.9843 55.9814 33.0345 55.9814C34.0847 55.9814 34.9273 56.8217 34.9273 57.869C34.9518 58.4048 34.7686 58.9285 34.4022 59.3303L34.7686 59.72L34.4389 60.0001L34.0603 59.6104C33.1566 60.1584 31.9721 59.8783 31.4225 58.9772C31.2271 58.6606 31.1294 58.2952 31.1416 57.9299M33.7672 59.2816L33.2177 58.6849L33.5474 58.4048L34.0847 58.9894C34.3289 58.6849 34.4511 58.3196 34.4389 57.9299C34.3412 57.187 33.6573 56.6512 32.9124 56.7486C32.1674 56.8461 31.6301 57.528 31.7278 58.2709C31.8255 59.0137 32.5094 59.5495 33.2543 59.4521C33.4375 59.4278 33.6084 59.3669 33.7672 59.2816Z" fill="black"/>
<path d="M39.6758 58.283V55.957H40.152V58.2708C40.091 58.8675 40.5184 59.4033 41.1168 59.4642C41.7152 59.5251 42.2525 59.0989 42.3135 58.5022C42.3135 58.4291 42.3135 58.3439 42.3135 58.2708V55.957H42.7898V58.283C42.7165 59.1354 41.9594 59.7687 41.0924 59.6956C40.3352 59.6347 39.7368 59.038 39.6758 58.283Z" fill="black"/>
<path d="M48.1638 55.957H47.6875V59.7565H48.1638V55.957Z" fill="black"/>
<path d="M53.0508 59.7565V55.957H54.3575C55.4077 55.957 56.2625 56.8095 56.2625 57.8568C56.2625 58.9041 55.4077 59.7565 54.3575 59.7565H53.0508ZM55.8839 57.8689C55.945 57.1017 55.3588 56.4441 54.5895 56.3833C54.5284 56.3833 54.4674 56.3833 54.4185 56.3833H53.5881V59.3303H54.4185C55.1879 59.3668 55.8473 58.7701 55.8839 57.9907C55.8839 57.9542 55.8839 57.9055 55.8839 57.8689Z" fill="black"/>
<path d="M61.5349 55.957H61.0586V59.7565H61.5349V55.957Z" fill="black"/>
<path d="M67.373 59.7565V56.3833H66.1641V55.957H69.0583V56.3833H67.8493V59.7565H67.373Z" fill="black"/>
<path d="M76.0334 59.7687L75.6915 58.9163H73.7987L73.4567 59.7687H72.9805L74.507 55.9571H75.0931L76.6318 59.7687H76.0334ZM74.2017 55.677C74.0551 55.677 73.933 55.5552 73.933 55.4091C73.933 55.2629 74.0551 55.1533 74.2017 55.1533C74.3482 55.1533 74.4581 55.2629 74.4581 55.4091C74.4581 55.5552 74.3604 55.6648 74.2139 55.677C74.2139 55.677 74.2139 55.677 74.2017 55.677ZM74.7878 56.4929L73.9696 58.5509H75.5938L74.7878 56.4929ZM75.374 55.677C75.2275 55.677 75.1053 55.5552 75.1053 55.4091C75.1053 55.2629 75.2275 55.1533 75.374 55.1533C75.5205 55.1533 75.6304 55.2629 75.6427 55.4091C75.6427 55.5552 75.5205 55.677 75.374 55.677Z" fill="black"/>
<path d="M81.6348 59.7565V56.3833H80.4258V55.957H83.32V56.3833H82.111V59.7565H81.6348Z" fill="black"/>
<path d="M93.4336 59.7565V55.957H94.7403C95.7905 55.957 96.6453 56.8095 96.6453 57.8568C96.6453 58.9041 95.7905 59.7565 94.7403 59.7565H93.4336ZM96.1813 57.8689C96.2423 57.1017 95.6561 56.4441 94.8868 56.3833C94.8257 56.3833 94.7647 56.3833 94.7158 56.3833H93.8854V59.3303H94.7158C95.4852 59.3668 96.1446 58.7701 96.1813 57.9907C96.1813 57.9542 96.1813 57.9055 96.1813 57.8689Z" fill="black"/>
<path d="M101.445 58.283V55.957H101.922V58.2708C101.861 58.8675 102.288 59.4033 102.886 59.4642C103.485 59.5251 104.022 59.0989 104.083 58.5022C104.083 58.4291 104.083 58.3439 104.083 58.2708V55.957H104.547V58.283C104.547 59.1354 103.851 59.8296 102.996 59.8296C102.141 59.8296 101.445 59.1354 101.445 58.283Z" fill="black"/>
<path d="M111.656 59.7563L110.691 58.2462H109.922V59.7563H109.445V55.9568H110.984C111.595 55.8959 112.144 56.3343 112.205 56.9432C112.205 56.9919 112.205 57.0406 112.205 57.1015C112.23 57.6739 111.79 58.1732 111.216 58.2097L112.242 59.7563H111.656ZM111.656 57.1015C111.656 56.7118 111.35 56.383 110.96 56.383C110.935 56.383 110.911 56.383 110.886 56.383H109.885V57.8322H110.886C111.289 57.8566 111.631 57.5643 111.656 57.1624C111.656 57.1381 111.656 57.1259 111.656 57.1015Z" fill="black"/>
<path d="M116.767 57.8693C116.73 56.8098 117.561 55.933 118.623 55.8965C118.66 55.8965 118.696 55.8965 118.733 55.8965C119.307 55.8965 119.856 56.1766 120.174 56.6515L119.783 56.8707C119.539 56.5297 119.148 56.3227 118.733 56.3227C117.878 56.3958 117.255 57.1508 117.329 58.0032C117.39 58.7461 117.988 59.3428 118.733 59.4037C119.16 59.4037 119.551 59.2088 119.783 58.8557L120.186 59.0749C119.856 59.5498 119.319 59.8421 118.733 59.8299C117.683 59.8664 116.803 59.0384 116.767 57.9911C116.767 57.9545 116.767 57.9058 116.767 57.8693Z" fill="black"/>
<path d="M127.504 59.7565V58.0151H125.269V59.7565H124.793V55.957H125.269V57.601H127.504V55.957H127.98V59.7565H127.504Z" fill="black"/>
<path d="M138.348 59.7565V55.957H138.824V59.3425H140.595V59.7565H138.348Z" fill="black"/>
<path d="M145.273 59.7565V55.957H147.777V56.3833H145.75V57.6132H147.728V58.0273H145.75V59.3425H147.777V59.7565H145.273Z" fill="black"/>
<path d="M153 55.957H152.523V59.7565H153V55.957Z" fill="black"/>
<path d="M157.898 59.7565V55.957H159.205C160.255 55.957 161.11 56.8095 161.11 57.8568C161.11 58.9041 160.255 59.7565 159.205 59.7565H157.898ZM160.671 57.8689C160.732 57.1017 160.145 56.4441 159.376 56.3833C159.315 56.3833 159.254 56.3833 159.205 56.3833H158.375V59.3303H159.205C159.974 59.3668 160.634 58.7701 160.671 57.9907C160.671 57.942 160.671 57.8933 160.671 57.8568" fill="black"/>
<path d="M165.91 59.7565V55.957H168.401V56.3833H166.386V57.6132H168.365V58.0273H166.386V59.3425H168.401V59.7565H165.91Z" fill="black"/>
<path d="M175.863 59.7565L173.64 56.7242V59.7565H173.164V55.957H173.653L175.851 58.9284V55.957H176.315V59.7565H175.863Z" fill="black"/>
<path d="M180.992 59.2211L181.273 58.8679C181.578 59.2211 182.03 59.4159 182.494 59.4038C183.178 59.4038 183.386 59.0384 183.386 58.7583C183.386 57.7719 181.127 58.3199 181.127 56.956C181.127 56.335 181.688 55.8966 182.445 55.8966C182.958 55.8722 183.447 56.0671 183.801 56.4324L183.508 56.7855C183.227 56.4811 182.824 56.3106 182.409 56.3228C181.945 56.3228 181.627 56.5663 181.627 56.9317C181.627 57.7841 183.886 57.297 183.886 58.7096C183.886 59.2698 183.508 59.83 182.482 59.83C181.932 59.8544 181.395 59.6352 181.017 59.2211" fill="black"/>
<path d="M188.415 57.8693C188.379 56.8098 189.209 55.933 190.271 55.8965C190.308 55.8965 190.345 55.8965 190.381 55.8965C190.955 55.8965 191.505 56.1766 191.822 56.6515L191.432 56.8951C191.2 56.5541 190.809 56.3471 190.394 56.3471C189.539 56.4201 188.916 57.1752 188.989 58.0276C189.05 58.7704 189.649 59.3672 190.394 59.428C190.809 59.428 191.2 59.2332 191.432 58.88L191.847 59.0992C191.517 59.5742 190.98 59.8664 190.394 59.8543C189.343 59.8908 188.464 59.0627 188.427 58.0154C188.427 57.9789 188.427 57.9302 188.427 57.8936" fill="black"/>
<path d="M199.136 59.7565V58.0151H196.914V59.7565H196.438V55.957H196.914V57.601H199.136V55.957H199.613V59.7565H199.136Z" fill="black"/>
<path d="M207.235 59.7687L206.905 58.9162H205L204.658 59.7687H204.121L205.66 55.957H206.246L207.785 59.7687H207.235ZM205.953 56.4441L205.135 58.5022H206.759L205.953 56.4441Z" fill="black"/>
<path d="M212.277 59.7565V55.957H214.781V56.3833H212.754V57.6132H214.744V58.0273H212.754V59.7565H212.277Z" fill="black"/>
<path d="M220.373 59.7565V56.3833H219.164V55.957H222.058V56.3833H220.849V59.7565H220.373Z" fill="black"/>
<path d="M11.1007 59.0625L0.500803 57.8447C-0.207486 57.7595 -0.158638 57.248 0.574074 57.2115L11.1373 56.627C11.3327 56.627 11.5037 56.627 11.5037 56.7853V58.8555C11.5037 58.9651 11.3083 59.0382 11.1007 59.0138" fill="black"/>
<path d="M228.887 59.0625L239.487 57.8447C240.196 57.7595 240.147 57.248 239.414 57.2115L228.851 56.627C228.655 56.627 228.484 56.627 228.484 56.7853V58.8555C228.484 58.9651 228.68 59.0382 228.887 59.0138" fill="black"/>
<path fill-rule="evenodd" clip-rule="evenodd" d="M25.5742 15.0398C34.2935 15.0398 43.086 14.3701 51.6221 17.1588C54.6385 17.9382 57.5205 19.1681 60.1705 20.8121C56.5069 16.2942 47.7266 13.8829 42.6953 11.898C53.4417 7.20952 79.453 6.29618 88.0135 15.3443C79.4652 16.0019 77.5724 16.6838 58.2044 15.9775C59.5477 16.696 61.0131 17.2075 62.5151 17.4754C62.5151 17.4754 69.7079 17.8286 73.8966 17.6702C85.5345 17.2318 95.4994 16.5742 107.247 16.696C114.721 16.9639 122.06 18.6688 128.887 21.7011C129.534 21.969 130.181 22.1882 130.828 22.4196C126.713 19.3021 121.938 17.1831 116.87 16.1967C109.311 14.711 101.593 14.2117 93.9119 14.711C93.1425 14.7476 92.3854 14.5649 91.7259 14.163C80.1002 6.7224 67.6563 5.45591 54.5408 7.11209C45.2231 8.32987 38.2501 12.0563 28.0532 12.8965L25.5742 15.0398Z" fill="black"/>
<path d="M141.513 19.6552C141.269 19.6552 141.037 19.6187 140.805 19.5821C140.659 19.5578 140.524 19.5334 140.378 19.5212C138.888 19.3751 137.374 19.1437 137.361 19.1437L137.117 19.1072V18.4983L137.374 18.4618C137.374 18.4618 138.9 18.2426 140.402 18.1208C140.622 18.1208 140.805 18.0843 140.988 18.0599C141.172 18.0356 141.342 18.0112 141.513 17.999C141.88 17.999 142.234 18.0477 142.564 18.1452C142.808 18.206 143.052 18.2913 143.284 18.3887L143.712 18.6079V19.0828L143.284 19.2777C143.04 19.3873 142.784 19.4725 142.539 19.5334C142.197 19.6187 141.855 19.6552 141.513 19.6674V19.6552ZM139.242 18.8028C139.621 18.8515 140.036 18.9002 140.439 18.9367C140.598 18.9489 140.744 18.9732 140.903 18.9976C141.123 19.0341 141.318 19.0707 141.513 19.0707C141.819 19.0707 142.112 19.022 142.405 18.9611C142.551 18.9245 142.686 18.888 142.832 18.8271C142.698 18.7784 142.551 18.7297 142.405 18.6932C142.112 18.6079 141.807 18.5714 141.501 18.5714C141.367 18.5714 141.22 18.5957 141.062 18.6201C140.854 18.6566 140.634 18.6932 140.402 18.6932C139.999 18.7297 139.608 18.7662 139.23 18.8028H139.242Z" fill="black"/>
<path d="M191.359 16.9883C193.838 16.9761 196.317 17.2197 198.747 17.7433L199.553 17.926C203.339 18.8637 207.063 20.5686 209.261 23.4547V24.4411C209.188 24.4411 209.115 24.4411 209.042 24.4411H208.883C208.382 24.2706 207.979 23.9175 207.735 23.4547C205.879 21.2384 203.314 19.7161 200.481 19.1438C197.379 18.3766 194.18 18.0234 190.98 18.0843H190.211C185.143 18.1696 180.099 18.6688 175.117 19.57C173.969 19.7649 172.821 19.9719 171.686 20.2033C171.392 20.2641 171.05 20.3007 170.733 20.3737L172.04 19.9962C175.08 19.156 178.158 18.4618 181.272 17.926C183.323 17.585 185.399 17.3049 187.475 17.1344C188.77 17.037 190.064 16.9761 191.359 16.9761M191.359 16.3916C190.138 16.3916 188.782 16.3916 187.427 16.5499C185.436 16.7082 183.384 16.9761 181.174 17.3536C178.048 17.8895 174.946 18.5836 171.893 19.4239L170.574 19.8014L170.88 20.9461L171.405 20.8487L171.82 20.7756C172.907 20.5564 174.018 20.3494 175.227 20.1424C180.185 19.2534 185.204 18.7663 190.235 18.6688H190.944C194.094 18.608 197.233 18.9611 200.286 19.7161C202.508 20.3129 205.5 21.4941 207.161 23.8079V23.8809C207.479 24.4411 208.004 24.8552 208.614 25.0257C208.712 25.0378 208.797 25.0378 208.895 25.0257C209.017 25.0257 209.139 25.0257 209.261 25.0257L209.664 24.9161V24.4046C209.689 24.088 209.689 23.7713 209.664 23.4547V23.2599L209.555 23.1137C207.54 20.4712 204.071 18.4862 199.516 17.3658L198.686 17.171C196.219 16.6595 193.704 16.4038 191.176 16.416L191.359 16.3916Z" fill="black"/>
<path d="M214.272 18.6317L213.319 17.7062C204.673 9.35221 193.035 9.43746 188.639 9.47399H188.138C184.609 9.48617 180.921 9.64448 177.172 9.92457C169.576 10.4847 161.773 11.0693 154.153 11.8852C145.91 12.8838 137.52 13.4196 129.216 13.4683C127.47 13.4683 125.662 13.2978 123.94 12.9203C121.913 12.421 119.886 11.8365 117.932 11.2641C116.223 10.7648 114.464 10.2534 112.718 9.81497C108.932 8.76768 104.939 8.74332 101.153 9.7419C99.761 10.0342 98.4054 10.4969 97.1354 11.118C95.9142 11.6538 94.4854 11.4468 93.4841 10.5822L91.8477 8.90163L92.1774 8.71896C92.4583 8.56065 92.7758 8.73114 93.1788 8.95034C93.6794 9.21825 94.3022 9.55923 94.8518 9.29132C98.6985 7.31852 103.022 6.21034 107.357 6.06421C107.467 5.65016 107.552 5.32136 107.638 5.04127L107.845 4.26189L108.004 4.21318C111.35 3.31202 111.497 3.3242 113.634 5.02909C115.514 5.10216 117.627 5.35789 119.056 7.13585C119.679 7.90305 120.558 8.40234 121.535 8.54848C127.457 9.9611 133.454 10.0951 139.413 8.96252C140.573 8.68243 141.721 8.30492 142.832 7.84216V7.5499C142.832 7.23327 142.881 6.92883 142.967 6.63656C143.028 6.44172 143.101 6.25905 143.174 6.06421C143.223 5.94243 143.272 5.83283 143.309 5.71105C143.748 4.50545 144.261 3.27549 144.261 3.26331L144.334 3.08065H144.859L144.884 3.40945C144.884 3.40945 144.701 4.749 144.469 6.03985L144.408 6.30776C144.359 6.52696 144.31 6.75834 144.31 6.94101V7.01407C144.31 7.01407 144.285 7.05061 144.285 7.07496C144.383 7.01407 144.481 6.96536 144.591 6.90447C144.615 6.66092 144.664 6.28341 144.737 5.80847C144.945 4.37149 145.348 2.97104 145.934 1.63149C146.117 1.22962 146.361 0.864286 146.642 0.535486C146.972 0.0605515 147.607 -0.146471 148.181 0.0605515C148.633 0.316285 148.963 0.681619 149.134 1.12002C149.268 1.42446 149.378 1.75327 149.463 2.08207C149.524 2.30127 149.671 2.72749 149.817 3.14153C150.037 3.7626 150.184 4.16447 150.245 4.43238C152.089 4.48109 153.921 4.5298 155.765 4.57851C162.848 4.76118 170.175 4.94385 177.38 5.24829C178.357 5.28483 179.358 5.32136 180.469 5.44314C180.897 5.49185 181.361 5.54056 181.874 5.60145C182.655 5.68669 183.522 5.77194 184.45 5.88154L189.946 6.52696C191.216 6.6731 192.522 6.95318 193.78 7.2211C194.134 7.29416 194.501 7.37941 194.855 7.45247C196.015 7.69603 197.151 7.90305 198.36 8.11007C200.509 8.67025 202.585 9.36439 204.588 10.1681C205.772 7.80563 207.274 7.58643 209.497 7.25763L209.704 7.2211C209.949 7.18456 210.315 7.2211 210.572 7.4403C210.73 7.57425 210.816 7.7691 210.816 7.9883C211.072 9.91239 211.329 11.9095 211.573 13.9189L212.159 14.3695C212.819 15.3072 213.356 16.3179 213.771 17.3774L214.247 18.6195L214.272 18.6317ZM189.555 8.90163C194.085 8.90163 204.563 9.31568 212.672 16.3423C212.391 15.7943 212.074 15.2706 211.732 14.7713L211.048 14.2599V14.1381C210.779 12.08 210.523 10.0342 210.254 8.04919C210.254 7.95176 210.23 7.92741 210.205 7.90305C210.12 7.82999 209.937 7.80563 209.814 7.81781L209.607 7.85434C207.421 8.18314 206.09 8.37799 205.027 10.6918L204.905 10.9475L204.649 10.8379C202.585 9.99763 200.448 9.29132 198.299 8.71896C197.065 8.49976 195.917 8.29274 194.757 8.04919C194.391 7.97612 194.037 7.89087 193.67 7.81781C192.425 7.5499 191.142 7.26981 189.897 7.12367L184.401 6.47825C183.473 6.36865 182.606 6.27123 181.837 6.19816C181.324 6.14945 180.848 6.08856 180.42 6.03985C179.346 5.91807 178.344 5.88154 177.38 5.84501C170.175 5.54056 162.86 5.35789 155.777 5.17523C153.041 5.10216 150.306 5.04127 147.583 4.95603C147.021 5.86936 146.239 6.64874 145.323 7.20892L144.615 7.64732L144.64 7.57425C144.371 7.73256 144.114 7.86652 143.858 8.00048L143.247 8.32928C142.051 8.85292 140.805 9.26697 139.535 9.55923C133.49 10.7161 127.396 10.57 121.425 9.14519C120.326 8.9747 119.312 8.40234 118.604 7.52554C117.309 5.90589 115.294 5.69887 113.524 5.63798H113.426L113.353 5.57709C111.374 3.99398 111.338 3.96962 108.334 4.77336L108.212 5.22394C108.126 5.56492 108.016 5.95461 107.87 6.46607L107.809 6.6731H107.589C103.266 6.7827 98.955 7.8787 95.1082 9.8515C94.5465 10.1194 93.9847 9.99763 93.5085 9.79061L93.8993 10.1803C94.7174 10.8866 95.902 11.0571 96.9034 10.6187C98.21 9.98546 99.6022 9.49834 101.031 9.1939C104.902 8.17096 109.005 8.19532 112.877 9.26697C114.623 9.71754 116.394 10.229 118.103 10.7283C120.057 11.3007 122.084 11.8852 124.087 12.3723C125.772 12.7376 127.506 12.9325 129.228 12.8959C137.52 12.8472 145.885 12.3236 154.104 11.3128C161.736 10.4969 169.552 9.91239 177.099 9.35221C180.909 9.05994 184.621 8.91381 188.163 8.90163H188.651C188.92 8.90163 189.225 8.90163 189.567 8.90163H189.555ZM143.956 5.65016C143.919 5.7354 143.895 5.83283 143.858 5.91807C143.809 6.03985 143.76 6.17381 143.711 6.29558C143.638 6.46607 143.565 6.63656 143.516 6.80705C143.455 7.05061 143.418 7.30634 143.406 7.57425V7.68385L143.455 7.59861C143.577 7.37941 143.663 7.14803 143.736 6.91665C143.736 6.68527 143.797 6.44172 143.846 6.21034L143.895 5.96678C143.907 5.86936 143.931 5.75976 143.944 5.66234L143.956 5.65016ZM147.79 1.44882C147.79 1.44882 147.705 1.52189 147.607 1.61931C147.448 1.83851 147.29 2.09424 147.18 2.36216C146.74 3.31202 146.386 4.34714 146.068 5.27265C145.958 5.58927 145.861 5.88154 145.763 6.14945V6.18598C146.313 5.72323 146.777 5.15087 147.143 4.5298L147.229 4.38367H147.399C148.059 4.40802 148.718 4.4202 149.378 4.44456C149.243 4.14011 149.06 3.75042 148.902 3.42162C148.731 3.05629 148.572 2.71531 148.486 2.53264C148.376 2.28909 148.254 2.05771 148.108 1.82633C148.022 1.66802 147.912 1.54624 147.778 1.461L147.79 1.44882ZM147.741 0.572019C147.509 0.572019 147.265 0.693797 147.106 0.90082C146.838 1.21744 146.63 1.53406 146.471 1.88722C145.983 2.9954 145.629 4.15229 145.409 5.34572C145.446 5.26047 145.47 5.16305 145.507 5.0778C145.824 4.14011 146.178 3.09282 146.63 2.1186C146.764 1.81415 146.935 1.50971 147.155 1.2418C147.351 1.03478 147.619 0.754686 147.949 0.876464C148.254 1.03478 148.462 1.25398 148.608 1.50971C148.645 1.5706 148.694 1.64366 148.731 1.70455C148.694 1.58278 148.645 1.47318 148.596 1.36358C148.462 1.04695 148.23 0.779042 147.937 0.608552C147.876 0.584197 147.802 0.572019 147.729 0.572019H147.741ZM210.51 13.8945L209.985 13.5657C208.63 12.7011 207.201 11.9339 205.736 11.2885L205.443 11.1545L205.589 10.8744C206.383 9.40092 207.848 8.43888 209.509 8.28056L209.827 8.25621V8.57283L210.083 10.6431C210.193 11.5199 210.303 12.3967 210.413 13.2735L210.486 13.8945H210.51ZM206.273 10.8744C207.47 11.4224 208.642 12.0435 209.778 12.7376C209.692 12.0679 209.607 11.3981 209.521 10.7161L209.289 8.88945C208.044 9.0843 206.945 9.80279 206.273 10.8623V10.8744ZM127.47 11.5442V10.9597C144.176 10.6918 146.349 8.03701 147.925 6.10074C148.022 5.97896 148.12 5.86936 148.218 5.74758L148.315 5.63798L176.549 6.70963L184.487 7.06278V7.64732C184.304 7.64732 166.34 8.37799 162.212 8.8651C156.155 9.75408 148.987 10.7283 141.794 11.1911L139.047 11.3128C138.558 11.3128 138.082 11.3372 137.593 11.3615C137.264 11.3737 136.934 11.3981 136.592 11.4103L133.783 11.532H127.482L127.47 11.5442ZM148.572 6.24687C148.511 6.31994 148.45 6.40518 148.376 6.47825C147.204 7.91523 145.739 9.71754 138.998 10.7405L141.733 10.6187C148.902 10.1559 156.058 9.18172 162.103 8.29274C164.618 8.00047 172.214 7.61079 177.856 7.35505L176.11 7.25763L148.56 6.23469L148.572 6.24687Z" fill="black"/>
<path d="M172.909 15.6483C172.653 15.6483 172.323 15.5752 172.189 15.356C172.115 15.2342 172.103 15.0759 172.189 14.9541C172.555 14.2113 172.982 13.4319 173.398 12.6891C173.581 12.3603 173.764 12.0315 173.935 11.7027C174.033 11.5078 174.265 11.3982 174.57 11.386C174.839 11.3739 175.193 11.4469 175.339 11.6783C175.412 11.8001 175.425 11.9584 175.339 12.0802C174.985 12.823 174.558 13.578 174.155 14.3209C173.971 14.6619 173.776 14.9907 173.593 15.3317C173.495 15.5265 173.275 15.6361 172.97 15.6483C172.958 15.6483 172.933 15.6483 172.921 15.6483H172.909ZM172.775 15.0516C172.885 15.0637 173.031 15.0637 173.092 15.0272C173.251 14.7106 173.446 14.3696 173.63 14.0408C174.008 13.3588 174.387 12.6647 174.729 11.9828C174.619 11.9584 174.484 11.9706 174.423 11.9949C174.252 12.3237 174.069 12.6404 173.886 12.9692C173.507 13.6511 173.117 14.3574 172.762 15.0637L172.775 15.0516Z" fill="black"/>
<path d="M176.61 14.9174C176.329 14.9174 176 14.8199 175.853 14.5764C175.768 14.4424 175.768 14.2719 175.853 14.1258L177.184 11.6902C177.282 11.5076 177.477 11.4102 177.746 11.4102C178.027 11.4102 178.393 11.5076 178.54 11.7511C178.625 11.8851 178.625 12.0556 178.54 12.2017L177.196 14.6373C177.099 14.8078 176.903 14.9174 176.635 14.9174H176.61ZM176.415 14.3085C176.513 14.3328 176.647 14.345 176.708 14.3206L177.954 12.0312C177.868 12.0069 177.734 11.9947 177.673 12.0069L176.415 14.2963V14.3085Z" fill="black"/>
<path d="M179.907 14.9174C179.639 14.9174 179.297 14.8199 179.15 14.5764C179.065 14.4424 179.065 14.2719 179.15 14.1258L180.481 11.6902C180.579 11.5076 180.774 11.4102 181.043 11.4102C181.312 11.4102 181.69 11.5076 181.837 11.7511C181.922 11.8851 181.922 12.0556 181.837 12.2017L180.493 14.6373C180.396 14.8078 180.2 14.9174 179.932 14.9174H179.907ZM179.712 14.3085C179.809 14.3328 179.944 14.345 180.005 14.3206L181.25 12.0312C181.165 12.0069 181.031 11.9947 180.97 12.0069L179.712 14.2963V14.3085Z" fill="black"/>
<path d="M183.383 13.9437C183.102 13.9437 182.76 13.8341 182.626 13.6027C182.541 13.4565 182.553 13.2982 182.626 13.1521C182.907 12.665 183.2 12.1779 183.493 11.6908C183.603 11.5081 183.798 11.435 184.091 11.4229C184.348 11.4229 184.702 11.5203 184.836 11.7638C184.91 11.91 184.91 12.0683 184.836 12.2144C184.556 12.7015 184.262 13.1886 183.969 13.6757C183.872 13.8462 183.676 13.9437 183.395 13.9437H183.383ZM183.212 13.3348C183.31 13.3591 183.444 13.3713 183.493 13.3348C183.737 12.9085 184.006 12.4701 184.262 12.0196C184.177 11.9952 184.055 11.983 183.994 12.0074C183.725 12.4458 183.469 12.8842 183.212 13.3226V13.3348Z" fill="black"/>
<path d="M29.9417 30.104C30.5645 30.1892 31.1751 30.3476 31.7735 30.5668C31.8834 30.5911 31.9811 30.652 32.0422 30.7494C32.091 30.859 32.1277 30.993 32.1277 31.1148L32.433 34.3906C32.433 34.3906 32.433 34.4758 32.323 34.488C32.2498 34.5124 32.1887 34.488 32.1521 34.4149C31.7979 33.2824 31.1263 32.2838 30.2348 31.5044C29.4044 30.8225 28.3542 30.4572 27.2795 30.4815C26.2537 30.4693 25.2524 30.7616 24.3975 31.334C23.5305 31.955 22.8344 32.7953 22.407 33.7695C21.9063 34.9629 21.6499 36.2538 21.6865 37.5568C21.6621 38.872 21.9063 40.1629 22.4314 41.3685C22.8711 42.3914 23.5793 43.2682 24.4952 43.9014C25.3867 44.4982 26.4369 44.8026 27.5116 44.7782C28.4885 44.8026 29.4533 44.4982 30.2348 43.9014C31.1385 43.0855 31.859 42.087 32.3353 40.9788H32.4818C32.6283 40.9788 32.6039 40.9788 32.6039 41.0762L32.2498 44.011C32.2254 44.1328 32.1887 44.2546 32.1521 44.3764C32.0788 44.4494 31.9811 44.5103 31.8834 44.5469C30.4791 45.0583 28.9892 45.3262 27.4871 45.3262C25.924 45.3506 24.3731 45.034 22.9565 44.3764C21.6865 43.7918 20.5996 42.8663 19.8181 41.6973C18.2794 39.2739 18.2794 36.1929 19.8181 33.7695C20.6241 32.5883 21.7354 31.6384 23.0298 31.0173C24.4586 30.3476 26.0217 30.0066 27.5971 30.0309C28.3786 29.9944 29.1602 30.0309 29.9417 30.104Z" fill="black"/>
<path d="M51.9751 44.8512C51.9751 44.9486 51.9751 44.9973 51.853 44.9973H46.2233C46.1501 44.9973 46.1256 44.9973 46.1256 44.8512C46.1256 44.705 46.1256 44.7172 46.2233 44.7172C46.5164 44.7294 46.8217 44.6929 47.1026 44.5833C47.2858 44.498 47.3957 44.3153 47.3835 44.1205C47.3224 43.6456 47.1514 43.195 46.9072 42.7809L45.2952 39.5904H39.4213L38.5054 41.6484C38.3222 42.0259 38.2123 42.44 38.1879 42.8662C38.1635 43.3777 38.3955 43.8769 38.7985 44.1936C39.2748 44.5345 39.8487 44.705 40.4227 44.6685C40.496 44.6685 40.5326 44.6685 40.5326 44.8025C40.5326 44.9364 40.5326 44.9486 40.4227 44.9486H34.793C34.793 44.9486 34.6953 44.9486 34.6953 44.8025C34.6953 44.6563 34.6953 44.6685 34.793 44.6685C35.1838 44.6685 35.5624 44.5833 35.9043 44.3884C36.2706 44.1327 36.5759 43.8039 36.808 43.4264C37.211 42.7566 37.5651 42.0746 37.8704 41.3561L42.9994 30.1039C42.9994 30.1039 43.0971 30.043 43.207 30.043C43.3169 30.043 43.4024 30.043 43.4268 30.1039L49.3374 41.7215C49.7159 42.5374 50.18 43.3168 50.7173 44.0353C50.986 44.4128 51.4012 44.6441 51.853 44.6807C51.9263 44.7172 51.9751 44.7172 51.9751 44.8512ZM39.7632 38.9328H44.8922L42.169 33.5502L39.7632 38.9328Z" fill="black"/>
<path d="M69.8149 44.8511V44.9972H65.5529C65.211 44.9972 64.5638 44.364 63.6112 43.1218C62.3778 41.4291 61.2299 39.6755 60.1797 37.861C59.9965 37.8732 59.8256 37.8732 59.6424 37.861H58.3357V43.0853C58.3113 43.4385 58.3601 43.8038 58.4578 44.1448C58.5311 44.364 58.7021 44.5345 58.9219 44.5953C59.276 44.6928 59.6546 44.7293 60.021 44.7171V44.9972H53.9883V44.8511C53.9883 44.7049 53.9883 44.7171 53.9883 44.7171C54.3668 44.7293 54.7332 44.6928 55.0996 44.5953C55.3194 44.5223 55.4903 44.3518 55.5636 44.1326C55.6613 43.7916 55.7102 43.4385 55.6979 43.0853V32.1253C55.7224 31.7721 55.6735 31.4311 55.5758 31.0902C55.5026 30.871 55.3316 30.7005 55.1118 30.6274C54.7576 30.53 54.3791 30.4813 54.0127 30.4935V30.2134H56.968C57.3954 30.2134 58.0548 30.2134 58.641 30.1403H60.4484C61.6085 30.0794 62.7686 30.3473 63.7822 30.9319C64.5638 31.3946 65.0278 32.2471 65.0034 33.1482C65.0034 33.9763 64.7592 34.7922 64.2951 35.4864C63.8066 36.1927 63.1594 36.7772 62.4023 37.1791C63.6235 39.0666 64.7225 40.5523 65.5651 41.624C66.2246 42.4886 66.9939 43.268 67.8488 43.9499C68.3861 44.4005 69.0699 44.6684 69.7782 44.6928C69.7782 44.6928 69.8149 44.7171 69.8149 44.8511ZM59.7157 37.3008C60.4606 37.3739 61.1811 37.0816 61.6818 36.5336C62.1458 35.803 62.3534 34.9505 62.2924 34.0981C62.3778 33.1726 62.1825 32.2349 61.7184 31.4311C61.3276 30.944 60.717 30.6639 60.0942 30.7005C59.618 30.6639 59.1417 30.7857 58.7387 31.0536C58.4334 31.3824 58.2869 31.8208 58.3357 32.2714V37.2765C58.7998 37.3252 59.2516 37.3252 59.7157 37.3008Z" fill="black"/>
<path d="M121.982 33.5867C121.982 33.5867 121.982 33.6475 121.848 33.6597C121.714 33.6719 121.714 33.6597 121.701 33.6597C121.518 32.856 121.066 32.1497 120.419 31.6382C119.723 31.1633 118.893 30.9319 118.05 30.9684H117.342C116.963 30.9319 116.597 31.0537 116.304 31.2851C116.059 31.5408 115.95 31.8818 115.974 32.2227V37.3252H117.671C118.404 37.374 119.137 37.2035 119.772 36.8381C120.236 36.558 120.505 36.0466 120.492 35.5107H120.773V40.0044C120.773 40.0044 120.773 40.0774 120.627 40.0774C120.48 40.0774 120.492 40.0774 120.492 40.0044C120.505 39.4076 120.236 38.8475 119.747 38.5065C119.125 38.0924 118.368 37.8976 117.623 37.9463H115.974V43.0001C115.95 43.3654 116.011 43.7429 116.157 44.0839C116.316 44.3397 116.572 44.5223 116.865 44.5832C117.403 44.705 117.952 44.7537 118.502 44.7293V45.0094H111.468C111.468 45.0094 111.395 45.0094 111.395 44.8633C111.395 44.7172 111.395 44.7293 111.468 44.7293C111.883 44.7415 112.286 44.705 112.689 44.6076C112.921 44.5467 113.116 44.3762 113.202 44.1448C113.3 43.8038 113.336 43.4507 113.324 43.0975V32.1375C113.336 31.7843 113.3 31.4434 113.214 31.1024C113.129 30.8832 112.958 30.7127 112.738 30.6396C112.384 30.5422 112.017 30.4935 111.651 30.5057C111.651 30.5057 111.578 30.5057 111.578 30.3717C111.578 30.2378 111.578 30.2256 111.651 30.2256H121.689C121.848 30.2256 121.921 30.2987 121.921 30.4448L121.982 33.5867Z" fill="black"/>
<path d="M130.433 44.1443C130.506 44.3513 130.677 44.5218 130.897 44.5949C131.251 44.6923 131.63 44.7288 131.996 44.7166C131.996 44.7166 132.069 44.7166 132.069 44.8506C132.069 44.9846 132.069 44.9967 131.996 44.9967H126V44.8506C126 44.7045 126 44.7166 126 44.7166C126.379 44.7166 126.745 44.6923 127.111 44.5949C127.331 44.5218 127.514 44.3513 127.6 44.1321C127.697 43.7911 127.734 43.438 127.722 43.0848V32.1248C127.746 31.7716 127.697 31.4307 127.6 31.0897C127.514 30.8705 127.331 30.7 127.111 30.6269C126.745 30.5295 126.379 30.4808 126 30.493V30.2129H132.02C132.02 30.2129 132.094 30.2129 132.094 30.359C132.094 30.5052 132.094 30.493 132.02 30.493C131.654 30.4808 131.288 30.5295 130.934 30.6391C130.714 30.7244 130.531 30.8948 130.457 31.1262C130.372 31.4672 130.323 31.8204 130.335 32.1735V43.0605C130.311 43.4258 130.335 43.7911 130.433 44.1443Z" fill="black"/>
<path d="M152.096 30.3834V30.5173C151.51 30.5052 150.949 30.7731 150.607 31.2602C150.216 31.8447 150.02 32.551 150.057 33.2573V45.3499C150.057 45.3499 150.057 45.423 149.959 45.4473C149.911 45.4717 149.849 45.4717 149.801 45.4473L138.7 32.8311V42.0254C138.663 42.7195 138.847 43.4136 139.213 43.9982C139.53 44.4853 140.08 44.7654 140.666 44.741V45.0211H135.72V44.875C135.72 44.7288 135.72 44.741 135.72 44.741C136.355 44.7654 136.966 44.4974 137.369 43.9982C137.796 43.438 138.016 42.7317 137.98 42.0254V32.0396C137.601 31.5646 137.137 31.1628 136.636 30.8218C136.294 30.6148 135.891 30.493 135.488 30.493V30.2129H139.982C140.092 30.2129 140.19 30.2372 140.275 30.3103C140.397 30.4443 140.507 30.5782 140.605 30.7122C140.874 31.0775 141.057 31.3211 141.167 31.4428L149.361 40.8685V33.2573C149.398 32.551 149.214 31.8569 148.836 31.2602C148.518 30.7731 147.969 30.493 147.395 30.5173V30.2372H152.035C152.035 30.2372 152.096 30.286 152.096 30.3834Z" fill="black"/>
<path d="M171.319 44.8507C171.319 44.9481 171.319 44.9968 171.197 44.9968H165.519C165.458 44.9968 165.421 44.9968 165.421 44.8507C165.421 44.7045 165.421 44.7167 165.519 44.7167C165.824 44.7289 166.129 44.6923 166.41 44.5827C166.593 44.4975 166.691 44.3148 166.679 44.12C166.618 43.645 166.447 43.1945 166.203 42.7804L164.566 39.5898H158.753L157.825 41.6479C157.642 42.0254 157.532 42.4394 157.52 42.8657C157.496 43.3771 157.715 43.8764 158.118 44.1931C158.595 44.534 159.169 44.7045 159.743 44.668C159.816 44.668 159.865 44.668 159.865 44.8019C159.865 44.9359 159.865 44.9481 159.743 44.9481H154.125C154.052 44.9481 154.027 44.9481 154.027 44.8019C154.027 44.6558 154.027 44.668 154.125 44.668C154.516 44.668 154.894 44.5827 155.236 44.3879C155.603 44.1322 155.908 43.8034 156.128 43.4258C156.531 42.7682 156.897 42.0741 157.202 41.3556L162.331 30.0912C162.331 30.0912 162.441 30.0303 162.551 30.0303C162.661 30.0303 162.747 30.0303 162.759 30.0912L168.682 41.7088C169.048 42.5247 169.512 43.3041 170.049 44.0226C170.318 44.4001 170.733 44.6315 171.185 44.668C171.283 44.7167 171.319 44.7167 171.319 44.8507ZM159.107 38.9322H164.261L161.538 33.5497L159.107 38.9322Z" fill="black"/>
<path d="M190.212 30.3833V30.5173C189.626 30.5051 189.064 30.7852 188.722 31.2601C188.332 31.8568 188.148 32.551 188.185 33.2573V45.3498C188.185 45.3498 188.185 45.4229 188.075 45.4473C188.026 45.4716 187.965 45.4716 187.916 45.4473L176.779 32.8067V42.0009C176.742 42.6951 176.926 43.3892 177.304 43.9737C177.622 44.4609 178.171 44.7409 178.745 44.7166V44.9967H173.885C173.885 44.9967 173.812 44.9967 173.812 44.8505C173.812 44.7044 173.812 44.7166 173.885 44.7166C174.52 44.7409 175.13 44.4609 175.521 43.9737C175.949 43.4136 176.168 42.7073 176.132 42.0009V32.0151C175.753 31.5402 175.301 31.1262 174.789 30.7974C174.447 30.5903 174.044 30.4686 173.641 30.4686V30.1885H178.147C178.245 30.1885 178.354 30.2128 178.428 30.2859C178.55 30.4199 178.66 30.5538 178.757 30.6878C178.928 30.9435 179.124 31.1871 179.331 31.4184L187.513 40.844V33.2573C187.55 32.551 187.367 31.8568 187 31.2601C186.683 30.773 186.133 30.4929 185.547 30.5173V30.2372H190.188C190.188 30.2372 190.212 30.2859 190.212 30.3833Z" fill="black"/>
<path d="M204.747 30.1035C205.37 30.1888 205.98 30.3471 206.578 30.5663C206.688 30.5906 206.786 30.6637 206.847 30.749C206.896 30.8586 206.933 30.9925 206.933 31.1143L207.238 34.3901C207.238 34.3901 207.238 34.4754 207.116 34.4875C207.055 34.4997 206.981 34.4754 206.957 34.4145C206.615 33.2698 205.956 32.2468 205.064 31.4553C204.234 30.7733 203.171 30.408 202.097 30.4323C201.071 30.4202 200.07 30.7124 199.227 31.2848C198.348 31.8937 197.664 32.7461 197.236 33.7203C196.736 34.9016 196.491 36.1803 196.516 37.4711C196.491 38.7863 196.736 40.0771 197.261 41.2827C197.7 42.3057 198.409 43.1825 199.325 43.8157C200.216 44.4124 201.266 44.7169 202.341 44.6925C203.33 44.7291 204.295 44.4124 205.089 43.8157C205.992 42.9998 206.701 42.0012 207.189 40.8931H207.336C207.482 40.8931 207.458 40.8931 207.458 40.9905L207.091 43.9253C207.079 44.0471 207.043 44.1689 207.006 44.2907C206.933 44.3637 206.835 44.4246 206.737 44.4611C205.333 44.9726 203.843 45.2405 202.341 45.2405C200.778 45.2649 199.227 44.9483 197.798 44.2907C196.528 43.6939 195.453 42.7684 194.672 41.6115C193.915 40.4425 193.512 39.0786 193.536 37.6903C193.512 36.2655 193.915 34.8772 194.696 33.6838C195.502 32.5026 196.614 31.5527 197.92 30.9316C199.337 30.2862 200.876 29.9574 202.426 29.9818C203.196 29.9696 203.977 30.0061 204.747 30.1035Z" fill="black"/>
<path d="M222.217 41.1975C222.217 41.1975 222.302 41.1854 222.351 41.1975H222.412C222.266 42.3057 222.18 43.4383 222.168 44.5586C222.192 44.6439 222.192 44.7413 222.168 44.8265C222.082 44.8996 221.985 44.924 221.875 44.9118H211.409C211.409 44.9118 211.336 44.9118 211.336 44.7656C211.336 44.6195 211.336 44.6317 211.409 44.6317C211.776 44.6439 212.154 44.6073 212.508 44.5099C212.728 44.4368 212.899 44.2663 212.972 44.0471C213.07 43.7062 213.107 43.353 213.094 42.9999V32.0398C213.119 31.6867 213.07 31.3457 212.972 31.0047C212.899 30.7855 212.728 30.615 212.508 30.542C212.154 30.4446 211.776 30.3958 211.409 30.408C211.409 30.408 211.336 30.408 211.336 30.2741C211.336 30.1401 211.336 30.1279 211.409 30.1279H221.447C221.606 30.1279 221.692 30.201 221.692 30.3471V33.4768C221.692 33.4768 221.692 33.5377 221.557 33.5499C221.423 33.5621 221.423 33.5499 221.399 33.5499C221.24 32.7583 220.8 32.0398 220.177 31.5284C219.481 31.0534 218.651 30.8221 217.808 30.8586H217.076C216.697 30.8342 216.318 30.9438 216.025 31.1752C215.781 31.431 215.671 31.7719 215.696 32.1129V36.984H217.662C218.394 37.0327 219.127 36.8623 219.774 36.5091C220.238 36.229 220.519 35.7297 220.507 35.1817C220.507 35.1817 220.507 35.1086 220.629 35.1086C220.751 35.1086 220.764 35.1086 220.764 35.1817V39.6631H220.617C220.47 39.6631 220.483 39.6631 220.483 39.6631C220.495 39.0664 220.226 38.4941 219.738 38.1409C219.09 37.7391 218.346 37.5442 217.588 37.5929H215.647V42.9268C215.622 43.28 215.708 43.6331 215.903 43.9376C216.111 44.1811 216.416 44.3029 216.734 44.2785H217.515C218.553 44.3272 219.591 44.0593 220.483 43.5235C221.264 42.939 221.838 42.1231 222.107 41.1854C222.107 41.1854 222.156 41.1854 222.217 41.1854V41.1975Z" fill="black"/>
<path d="M85.6524 30.3711H81.0974C80.7311 30.4198 80.4746 30.7608 80.5235 31.1261C80.5601 31.4306 80.8043 31.6619 81.0974 31.6985C81.5126 31.6619 81.9034 31.8324 82.1598 32.1612C82.4529 32.5996 82.5995 33.1233 82.5628 33.6591V39.6506C82.6361 40.637 82.3186 41.6234 81.6958 42.3906C81.0608 43.036 80.1571 43.3648 79.2534 43.3039C78.3253 43.3648 77.4216 42.9751 76.811 42.2688C76.1394 41.258 75.8341 40.0403 75.9318 38.8347V32.6849C75.9318 32.4291 75.944 32.1734 76.0051 31.9177C76.0417 31.8568 76.0783 31.8203 76.1394 31.7837C76.3958 31.7107 76.6523 31.6863 76.921 31.6985C77.2873 31.6498 77.5438 31.3088 77.4949 30.9434C77.4583 30.639 77.214 30.4076 76.921 30.3711H71.4745C71.1081 30.4198 70.8516 30.7608 70.9005 31.1261C70.9371 31.4306 71.1814 31.6619 71.4745 31.6985C71.7431 31.6741 72.0118 31.6985 72.2682 31.7837C72.3293 31.7959 72.3659 31.8446 72.3903 31.8933C72.4636 32.1369 72.488 32.3926 72.4758 32.6483V39.5897C72.4514 40.637 72.7201 41.6599 73.2452 42.5611C73.7703 43.4135 74.5152 44.0833 75.4189 44.5095C76.3714 44.9601 77.4216 45.1915 78.4841 45.1671C79.5465 45.1915 80.5845 44.9601 81.537 44.4973C82.4163 44.0711 83.149 43.3892 83.6497 42.5367C84.1504 41.6477 84.4068 40.6492 84.3824 39.6262V33.6591C84.358 33.1233 84.4801 32.5996 84.761 32.1369C84.9564 31.8446 85.2861 31.6863 85.6402 31.6985C86.0066 31.6498 86.263 31.3088 86.2142 30.9434C86.1776 30.639 85.9333 30.4076 85.6402 30.3711H85.6524ZM85.6524 31.1627C85.1273 31.1383 84.6266 31.394 84.3336 31.8324C83.9916 32.3804 83.8207 33.0137 83.8573 33.6591V39.6262C83.8817 40.5517 83.6497 41.4651 83.1979 42.281C82.746 43.036 82.0988 43.6449 81.305 44.0346C80.4258 44.4486 79.4732 44.6678 78.4963 44.6435C77.5193 44.6678 76.5546 44.4608 75.6753 44.0468C74.8694 43.6571 74.1977 43.0482 73.7459 42.281C73.2696 41.4651 73.0254 40.5396 73.0498 39.5897V32.6483C73.0498 32.3317 73.0254 32.0029 72.9277 31.6985C72.8544 31.5036 72.6956 31.3453 72.5002 31.2844C72.1827 31.187 71.8408 31.1383 71.5111 31.1627V31.0287C71.5111 30.8947 71.5111 30.9069 71.5111 30.9069H76.9698V31.1627C76.6401 31.1505 76.3104 31.187 75.9928 31.2966C75.7852 31.3697 75.6265 31.528 75.5532 31.735C75.4677 32.0395 75.4311 32.3683 75.4433 32.6849V38.8347C75.3334 40.1742 75.6875 41.5016 76.4447 42.6098C77.1652 43.4379 78.2154 43.8884 79.3145 43.8276C80.3647 43.8763 81.3783 43.4866 82.111 42.7437C82.8437 41.8791 83.1979 40.7709 83.1246 39.6384V33.6591C83.1612 33.0137 82.978 32.3683 82.5995 31.8324C82.2453 31.3818 81.6958 31.1383 81.1218 31.1627V31.0287C81.1218 30.8947 81.1218 30.9069 81.1218 30.9069H85.6891V31.0287C85.6891 31.1505 85.6891 31.1627 85.6524 31.1627Z" fill="black"/>
<path d="M98.2565 38.7741C97.939 38.2383 97.5238 37.7755 97.0354 37.3858C96.5835 37.0327 95.9974 36.6186 95.2646 36.1681C94.5319 35.7175 94.0434 35.3887 93.7259 35.1086C93.3962 34.8407 93.1153 34.5362 92.8711 34.1831C92.6635 33.8665 92.5536 33.4889 92.5536 33.0993C92.517 32.7096 92.6513 32.3321 92.9322 32.0641C93.2253 31.8084 93.6038 31.6866 93.9824 31.6988C94.6052 31.6623 95.1914 31.9424 95.5699 32.4417C96.0706 33.0993 96.4858 33.8299 96.7911 34.6093L96.9743 35.0233C97.0598 35.2547 97.2796 35.413 97.536 35.4009H97.7436C98.0245 35.34 98.2321 35.0842 98.2443 34.792V31.577C98.2443 31.3822 98.1955 31.1873 98.0856 31.029C97.9635 30.8585 97.7925 30.7246 97.5971 30.6515C97.1575 30.481 96.6934 30.3593 96.2294 30.2862C95.6798 30.1644 95.1303 30.1035 94.5686 30.1035C93.7626 30.1035 92.9566 30.2375 92.1995 30.5176C91.4545 30.7855 90.7951 31.2361 90.2822 31.8328C89.7571 32.466 89.4884 33.2697 89.5006 34.0978C89.4884 34.7433 89.6472 35.3887 89.9891 35.9489C90.2822 36.436 90.6485 36.8622 91.0882 37.2275C91.6133 37.6659 92.1628 38.0678 92.7368 38.4453C93.2985 38.7985 93.8358 39.176 94.3487 39.59C94.7151 39.8945 95.0204 40.2476 95.2524 40.6617C95.4967 41.0757 95.6066 41.5506 95.5944 42.0378C95.6554 42.4762 95.5211 42.9267 95.228 43.2555C94.9227 43.4869 94.5441 43.6087 94.1534 43.5843C93.6649 43.5843 93.1886 43.4138 92.81 43.0972C92.3704 42.7319 91.9918 42.2935 91.6988 41.7942C91.3935 41.2706 91.0149 40.5764 90.5997 39.7362C90.502 39.4804 90.27 39.3221 90.0013 39.3221H89.928C89.5861 39.3465 89.3297 39.6144 89.3297 39.9554V43.4017C89.3175 43.5965 89.3785 43.7914 89.4884 43.9497C89.5617 44.0593 89.6472 44.1445 89.7449 44.2298C90.2333 44.5707 90.7829 44.8021 91.369 44.9117C92.0773 45.0944 92.7978 45.1918 93.5305 45.204C94.4464 45.204 95.3501 44.997 96.1805 44.5951C96.9377 44.2663 97.5971 43.7426 98.0734 43.0607C98.5374 42.3909 98.7817 41.5872 98.7694 40.7713C98.7817 40.0771 98.6107 39.383 98.2565 38.7741ZM97.646 42.7562C97.2185 43.353 96.6446 43.8157 95.9729 44.108C95.2036 44.449 94.3732 44.6073 93.5305 44.5951C92.8467 44.5951 92.1628 44.4977 91.5034 44.3272C90.9905 44.2298 90.5142 44.0227 90.0868 43.7305C90.0257 43.6818 89.9769 43.633 89.928 43.5722C89.8792 43.4991 89.867 43.4139 89.867 43.3286V39.9066C89.867 39.9066 89.867 39.8214 89.9769 39.8092C89.9769 39.8092 90.0502 39.8092 90.0746 39.8458C90.5142 40.7104 90.8928 41.4289 91.2103 41.9647C91.5278 42.5127 91.943 42.9998 92.4315 43.4017C92.8955 43.8157 93.4939 44.0471 94.1167 44.0349C94.6296 44.0593 95.1303 43.8888 95.5333 43.5722C95.9485 43.1581 96.1561 42.5736 96.095 41.989C96.1073 41.4045 95.9607 40.8322 95.6798 40.3329C95.4112 39.8701 95.0692 39.4561 94.654 39.1151C94.1167 38.6767 93.5672 38.2748 92.9932 37.8973C92.4437 37.5563 91.9064 37.1788 91.3935 36.7648C91.0027 36.436 90.673 36.0585 90.4165 35.6201C89.7815 34.5119 89.8792 33.148 90.6608 32.1372C91.1004 31.5892 91.6866 31.163 92.346 30.9194C93.0421 30.6759 93.787 30.5419 94.5319 30.5419C95.0448 30.5419 95.5577 30.5906 96.0584 30.6881C96.4736 30.7611 96.8766 30.8707 97.2796 31.0169C97.3773 31.0534 97.475 31.1143 97.536 31.1995C97.5849 31.2726 97.6093 31.37 97.6093 31.4553V34.7311C97.6093 34.7311 97.6093 34.8041 97.4994 34.8285C97.4994 34.8285 97.4506 34.8407 97.4261 34.8285L97.2552 34.4266C96.9499 33.6107 96.5469 32.8313 96.034 32.125C95.5577 31.504 94.8006 31.1508 94.019 31.1752C93.5061 31.163 92.9932 31.3335 92.6024 31.6745C92.2117 32.052 92.0163 32.5756 92.0529 33.1114C92.0529 33.5985 92.1872 34.0735 92.4559 34.4875C92.7246 34.8894 93.0543 35.2425 93.4329 35.5348C93.8236 35.8393 94.3487 36.2046 95.0082 36.6308C95.6676 37.057 96.2416 37.4589 96.7301 37.8486C97.1575 38.1896 97.536 38.6036 97.8291 39.0664C98.1344 39.59 98.2932 40.1746 98.281 40.7834C98.281 41.4898 98.0612 42.1839 97.646 42.7562Z" fill="black"/>
</g>
<defs>
<clipPath id="clip0_2124_2250">
<rect width="240" height="60" fill="white"/>
</clipPath>
</defs>
</svg>
