<svg width="144" height="76" viewBox="0 0 144 76" fill="none" xmlns="http://www.w3.org/2000/svg">
<g clip-path="url(#clip0_2124_2119)">
<path fill-rule="evenodd" clip-rule="evenodd" d="M31.7651 65.6504C24.214 66.1058 17.4488 68.8078 13.3047 72.6331C16.3339 74.2253 19.8961 75.3031 24.0082 75.7332C27.7863 76.133 31.5138 75.993 35.1401 75.4127L31.7651 65.6504Z" fill="black"/>
<path fill-rule="evenodd" clip-rule="evenodd" d="M9.28947 32.1244C13.415 20.5641 24.6009 10.262 36.1444 6.97804C49.3914 3.20668 62.5001 8.81818 63.7347 22.8579C63.959 25.4014 63.8022 29.6214 63.3131 32.1598C68.5855 28.6448 72.9067 24.7065 75.9832 20.6838C71.5102 3.58112 53.5406 -3.49778 37.0856 1.64315C22.7945 6.11279 8.90154 18.756 3.07415 33.1836C2.23082 35.2767 1.55616 37.4019 1.05859 39.5288C2.93078 40.6875 5.115 41.6253 7.55222 42.3287C7.47969 39.0549 8.05147 35.582 9.28947 32.1244Z" fill="black"/>
<path fill-rule="evenodd" clip-rule="evenodd" d="M22.3448 60.5505C13.4325 58.8436 8.47038 52.2555 7.67091 44.1494C5.81419 44.9345 4.0448 45.912 2.39168 47.0656C1.55341 47.6391 0.757308 48.2463 0 48.8839C0.0961394 57.7388 3.45933 65.8314 10.3561 70.8171C12.2225 69.9212 13.994 68.8397 15.6437 67.5889C18.4166 65.4873 20.6784 63.0568 22.3448 60.5505Z" fill="black"/>
<path fill-rule="evenodd" clip-rule="evenodd" d="M85.4961 73.377C80.9927 73.377 80.0246 73.178 80.0246 70.8015V58.0403L84.6933 58.187C90.4279 58.386 92.8955 61.9449 92.8955 66.0536C92.8955 70.5536 90.6438 73.377 85.4961 73.377ZM80.0246 45.3279C80.0246 43.0999 81.2592 42.7018 83.5632 42.7018H84.6933C88.4984 42.7018 91.337 44.8827 91.337 49.133C91.337 52.6986 89.1443 56.2069 83.6728 56.2069H80.0246V45.3279ZM90.3689 56.5054V56.4042C94.2364 54.8694 96.1085 51.7102 96.1085 48.8362C96.1085 43.9398 92.3557 40.8195 85.5467 40.8195H62.4125L51.908 68.0826H51.6382L40.1251 40.8195H32.0156V41.7624C35.0718 41.7624 36.04 43.9381 37.0048 46.2674L49.2263 75.2543H51.0529L62.792 46.765C64.3522 42.9008 66.2244 41.7624 69.117 41.7624L70.1577 41.7607C73.2139 41.7607 74.9815 43.0999 74.9815 45.3296L74.9731 75.2543H86.0864C94.0188 75.2543 98.4699 70.901 98.4699 65.4093C98.4699 61.648 95.6835 57.8429 90.3689 56.5054ZM125.601 68.4705L114.878 55.4091V55.3113C114.878 55.3113 119.487 50.3643 122.813 46.7515C126.192 43.142 127.853 41.759 131.554 41.759V40.8145H124.853L121.648 44.52C121.282 44.9535 120.859 45.4308 120.4 45.9672L113.373 54.0749C111.769 55.9556 111.447 56.2035 108.389 56.2035V45.3229C108.389 45.1778 108.396 45.0362 108.411 44.9012V40.8195H98.4682V41.7118C101.58 41.7118 103.295 43.0982 103.295 45.3263L103.294 75.2492H108.389V58.0403C110.853 58.0403 110.75 57.988 112.356 59.9681L124.903 75.2492H133.323V74.3114C129.729 74.0652 127.531 70.8487 125.601 68.4705ZM143.999 40.8178H134.136V41.7573C137.19 41.7573 138.961 43.0948 138.961 45.3229V75.2458H143.999V40.8178Z" fill="black"/>
</g>
<defs>
<clipPath id="clip0_2124_2119">
<rect width="144" height="75.9604" fill="white"/>
</clipPath>
</defs>
</svg>
