<svg width="150" height="99" viewBox="0 0 150 99" fill="none" xmlns="http://www.w3.org/2000/svg">
<g clip-path="url(#clip0_2124_2302)">
<path d="M12.7785 86.4175L4.78702 74.4869V86.4175H0V61.5654H4.78702V72.8354L12.8525 61.5654H18.6699L9.57405 73.57L19.0741 86.4175H12.7785Z" fill="black"/>
<path d="M31.2297 86.8219C23.386 86.8219 21.6211 82.5525 21.6211 77.8V61.5606H26.4081V77.5042C26.4081 80.6347 27.4385 82.8434 31.5649 82.8434C35.2476 82.8434 36.7956 81.2954 36.7956 77.0605V61.5557H41.5481V76.7647C41.5481 83.573 37.7915 86.817 31.2346 86.817L31.2297 86.8219Z" fill="black"/>
<path d="M61.6143 86.4176L54.3229 73.8609C53.2186 71.9826 52.3706 70.1437 51.636 68.5217C51.7839 70.6564 51.8579 74.5609 51.8579 77.5436V86.4176H47.2188V61.5655H53.4404L60.3621 73.4221C61.5059 75.3349 62.4968 77.3957 63.4187 79.274C63.2363 76.7696 63.1623 72.3523 63.1623 69.2957V61.5605H67.8015V86.4126H61.6143V86.4176Z" fill="black"/>
<path d="M80.5819 86.5659C78.0035 86.5659 75.7603 86.4574 73.6602 86.3835V61.6004C75.6124 61.5264 78.6345 61.418 81.6862 61.418C89.3819 61.418 94.2774 64.8443 94.2774 73.5704C94.2774 82.2965 88.6818 86.5659 80.5819 86.5659ZM81.3559 65.431C80.2516 65.431 79.2212 65.4704 78.4472 65.5394V82.2965C79.1078 82.4049 80.1037 82.4789 81.0601 82.4789C85.7386 82.4789 89.1255 79.8266 89.1255 73.9352C89.1255 68.596 87.0254 65.4261 81.3559 65.4261V65.431Z" fill="black"/>
<path d="M98.2227 86.4175V61.5654H103.01V82.2221H111.075V86.4175H98.2227Z" fill="black"/>
<path d="M114.023 86.4175V61.5654H127.537V65.5784H118.81V71.6916H127.098V75.5962H118.81V82.3355H127.537V86.4225H114.023V86.4175Z" fill="black"/>
<path d="M144.071 86.418L137.149 76.1439H136.967V86.418H132.18V61.5659C134.132 61.4574 136.454 61.418 139.323 61.418C144.81 61.418 148.345 63.3308 148.345 68.4136C148.345 72.0963 145.767 74.7487 142.01 75.3353C142.71 76.2572 143.41 77.2137 144.036 78.0616L150.002 86.418H144.071ZM138.845 65.3176C138.145 65.3176 137.445 65.357 136.967 65.4261V72.6091C137.297 72.6436 137.958 72.683 138.697 72.683C141.571 72.683 143.336 71.2089 143.336 68.8918C143.336 66.5747 141.862 65.3176 138.845 65.3176Z" fill="black"/>
<path d="M0.734569 93.6601V95.4053H2.63755V95.9969H0.734569V98.4372H0V93.0586H2.74108V93.665H0.734569V93.6601Z" fill="black"/>
<path d="M5.32812 98.4323V93.0537H6.06269V98.4323H5.32812Z" fill="black"/>
<path d="M12.4898 98.4323L10.4438 95.0997C10.1973 94.7102 10.005 94.3404 9.83249 93.9855C9.86207 94.5574 9.88672 95.849 9.88672 96.7019V98.4323H9.17188V93.0537H10.1382L12.1397 96.2829C12.3764 96.6723 12.6032 97.0815 12.8003 97.4611C12.7708 96.8005 12.7461 95.4793 12.7461 94.5869V93.0586H13.456V98.4373H12.4996L12.4898 98.4323Z" fill="black"/>
<path d="M19.7261 98.4323L19.2824 97.1752H16.9949L16.5462 98.4323H15.7969L17.759 93.0537H18.5725L20.5494 98.4323H19.7261ZM18.3802 94.6707C18.2767 94.3996 18.2027 94.1432 18.1386 93.8672H18.1238C18.0597 94.1284 17.9809 94.4095 17.8773 94.6806L17.1822 96.5934H19.0803L18.3802 94.6707Z" fill="black"/>
<path d="M26.2124 98.4323L24.1665 95.0997C23.92 94.7102 23.7277 94.3404 23.5552 93.9855C23.5847 94.5574 23.6094 95.849 23.6094 96.7019V98.4323H22.8945V93.0537H23.8608L25.8624 96.2829C26.099 96.6723 26.3258 97.0815 26.523 97.4611C26.4934 96.8005 26.4688 95.4793 26.4688 94.5869V93.0586H27.1787V98.4373H26.2223L26.2124 98.4323Z" fill="black"/>
<path d="M29.8078 98.4324V97.8901L32.0608 94.3356C32.2136 94.1038 32.3418 93.9066 32.4995 93.6897C32.2432 93.6996 31.8784 93.7045 31.3262 93.7045H29.8817V93.0488H33.3475V93.6059L30.9712 97.3034C30.8677 97.4612 30.7642 97.614 30.6508 97.7718C30.8184 97.757 31.2966 97.757 31.9868 97.757H33.3721V98.4274H29.793L29.8078 98.4324Z" fill="black"/>
<path d="M36.0078 98.4323V93.0537H36.7424V98.4323H36.0078Z" fill="black"/>
<path d="M39.8398 98.4323V93.0537H42.6056V93.6601H40.5744V95.3659H42.5119V95.9575H40.5744V97.821H42.6056V98.4323H39.8398Z" fill="black"/>
<path d="M48.0179 98.4316L46.1938 96.0159H46.1643V98.4316H45.4297V93.053C45.7945 93.0284 46.184 93.0234 46.7756 93.0234C47.8355 93.0234 48.5997 93.3981 48.5997 94.4236C48.5997 95.3405 47.8996 95.873 46.958 95.9371C47.1157 96.1293 47.2834 96.3364 47.4263 96.5089L48.9497 98.4316H48.0179ZM46.6474 93.62C46.465 93.62 46.3072 93.6298 46.1593 93.6348V95.4687C46.2382 95.4786 46.4009 95.4835 46.6129 95.4835C47.3869 95.4835 47.8306 95.094 47.8306 94.5172C47.8306 93.8714 47.4263 93.615 46.6425 93.615L46.6474 93.62Z" fill="black"/>
<path d="M53.4422 98.5112C51.761 98.5112 51.4258 97.5794 51.4258 96.623V93.0537H52.1604V96.5688C52.1604 97.3083 52.4069 97.9098 53.4914 97.9098C54.4331 97.9098 54.8718 97.5203 54.8718 96.4357V93.0586H55.5916V96.3815C55.5916 97.7914 54.8521 98.5161 53.4471 98.5161L53.4422 98.5112Z" fill="black"/>
<path d="M61.9937 98.4323L59.9477 95.0997C59.7012 94.7102 59.509 94.3404 59.3364 93.9855C59.366 94.5574 59.3906 95.849 59.3906 96.7019V98.4323H58.6758V93.0537H59.6421L61.6436 96.2829C61.8803 96.6723 62.1071 97.0815 62.3043 97.4611C62.2747 96.8005 62.25 95.4793 62.25 94.5869V93.0586H62.9599V98.4373H62.0035L61.9937 98.4323Z" fill="black"/>
<path d="M69.8397 93.8965C69.396 93.7141 68.8981 93.6105 68.4051 93.6105C67.2958 93.6105 66.3493 94.3254 66.3493 95.76C66.3493 97.101 67.1282 97.8651 68.341 97.8651C68.7009 97.8651 69.0016 97.8109 69.2875 97.7221V95.691H70.0122V98.1905C69.4798 98.3877 68.8241 98.5011 68.2374 98.5011C66.6105 98.5011 65.5703 97.5151 65.5703 95.8487C65.5703 94.1824 66.6697 92.9795 68.479 92.9795C68.9868 92.9795 69.4749 93.0584 69.9531 93.2112L69.8397 93.8965Z" fill="black"/>
<path d="M73.8345 98.5011C73.445 98.5011 73.0605 98.4518 72.7499 98.3729L72.7894 97.6728C73.0999 97.7862 73.5239 97.87 73.8986 97.87C74.5444 97.87 75.0769 97.6088 75.0769 96.9481C75.0769 95.7354 72.6562 96.2136 72.6562 94.5029C72.6562 93.6204 73.3563 92.9795 74.5691 92.9795C74.8945 92.9795 75.2248 93.0091 75.5403 93.0732L75.5009 93.7288C75.1903 93.6401 74.8452 93.5859 74.5296 93.5859C73.7951 93.5859 73.4155 93.9211 73.4155 94.424C73.4155 95.5875 75.846 95.1635 75.846 96.8446C75.846 97.8109 75.0867 98.5011 73.8394 98.5011H73.8345Z" fill="black"/>
<path d="M80.6718 98.4959C78.9414 98.4959 78.2266 97.3965 78.2266 95.883C78.2266 94.2413 79.04 93.0039 80.8543 93.0039C81.2684 93.0039 81.6923 93.068 82.072 93.1617L81.9931 93.8321C81.579 93.704 81.1796 93.6399 80.7754 93.6399C79.5478 93.6399 79.0203 94.5815 79.0203 95.7598C79.0203 97.081 79.5922 97.8402 80.8444 97.8402C81.2339 97.8402 81.7269 97.7268 82.0473 97.5691L82.1262 98.2198C81.717 98.3875 81.2092 98.491 80.6669 98.491L80.6718 98.4959Z" fill="black"/>
<path d="M84.8594 98.4323V93.0537H87.6251V93.6601H85.5939V95.3659H87.5314V95.9575H85.5939V97.821H87.6251V98.4323H84.8594Z" fill="black"/>
<path d="M93.7671 98.4323L91.7212 95.0997C91.4747 94.7102 91.2824 94.3404 91.1098 93.9855C91.1394 94.5574 91.1641 95.849 91.1641 96.7019V98.4323H90.4492V93.0537H91.4155L93.4171 96.2829C93.6537 96.6723 93.8805 97.0815 94.0777 97.4611C94.0481 96.8005 94.0235 95.4793 94.0235 94.5869V93.0586H94.7334V98.4373H93.777L93.7671 98.4323Z" fill="black"/>
<path d="M99.4037 93.665V98.4323H98.6691V93.665H97.1211V93.0537H100.952V93.665H99.3987H99.4037Z" fill="black"/>
<path d="M103.289 98.4323V93.0537H106.055V93.6601H104.024V95.3659H105.961V95.9575H104.024V97.821H106.055V98.4323H103.289Z" fill="black"/>
<path d="M111.463 98.4316L109.639 96.0159H109.61V98.4316H108.875V93.053C109.24 93.0284 109.629 93.0234 110.221 93.0234C111.281 93.0234 112.045 93.3981 112.045 94.4236C112.045 95.3405 111.345 95.873 110.403 95.9371C110.561 96.1293 110.729 96.3364 110.872 96.5089L112.395 98.4316H111.463ZM110.093 93.62C109.91 93.62 109.753 93.6298 109.605 93.6348V95.4687C109.684 95.4786 109.846 95.4835 110.058 95.4835C110.832 95.4835 111.276 95.094 111.276 94.5172C111.276 93.8714 110.872 93.615 110.088 93.615L110.093 93.62Z" fill="black"/>
<path d="M119.578 98.4562C119.257 98.4562 118.735 98.4415 118.207 98.4316V93.053C118.597 93.0431 119.149 93.0283 119.794 93.0283C120.973 93.0283 121.54 93.5164 121.54 94.32C121.54 94.8869 121.155 95.3898 120.573 95.5722V95.587C121.323 95.7152 121.658 96.2624 121.658 96.8244C121.658 97.4702 121.259 98.4562 119.578 98.4562ZM119.661 93.6199C119.415 93.6199 119.154 93.6298 118.937 93.6347V95.3701C119.089 95.3799 119.232 95.3799 119.425 95.3799C120.307 95.3799 120.78 95.0299 120.78 94.4383C120.78 93.9601 120.534 93.6199 119.666 93.6199H119.661ZM119.44 95.9272C119.346 95.9272 119.065 95.9272 118.937 95.937V97.8153C119.075 97.84 119.301 97.8548 119.622 97.8548C120.499 97.8548 120.889 97.4308 120.889 96.8441C120.889 96.149 120.268 95.9272 119.44 95.9272Z" fill="black"/>
<path d="M124.414 98.4323V93.0537H127.18V93.6601H125.149V95.3659H127.086V95.9575H125.149V97.821H127.18V98.4323H124.414Z" fill="black"/>
<path d="M132.588 98.4316L130.764 96.0159H130.735V98.4316H130V93.053C130.365 93.0284 130.754 93.0234 131.346 93.0234C132.406 93.0234 133.17 93.3981 133.17 94.4236C133.17 95.3405 132.47 95.873 131.528 95.9371C131.686 96.1293 131.854 96.3364 131.997 96.5089L133.52 98.4316H132.588ZM131.218 93.62C131.035 93.62 130.878 93.6298 130.73 93.6348V95.4687C130.809 95.4786 130.971 95.4835 131.183 95.4835C131.957 95.4835 132.401 95.094 132.401 94.5172C132.401 93.8714 131.997 93.615 131.213 93.615L131.218 93.62Z" fill="black"/>
<path d="M136.086 98.4323V93.0537H136.821V97.8013H138.748V98.4323H136.086Z" fill="black"/>
<path d="M141.078 98.4323V93.0537H141.813V98.4323H141.078Z" fill="black"/>
<path d="M148.236 98.4323L146.19 95.0997C145.943 94.7102 145.751 94.3404 145.579 93.9855C145.608 94.5574 145.633 95.849 145.633 96.7019V98.4323H144.918V93.0537H145.884L147.886 96.2829C148.122 96.6723 148.349 97.0815 148.546 97.4611C148.517 96.8005 148.492 95.4793 148.492 94.5869V93.0586H149.202V98.4373H148.246L148.236 98.4323Z" fill="black"/>
<path d="M70.2031 19.1037C48.664 22.6336 21.5391 26.1635 0 29.6983V32.3161C20.706 29.4074 46.9976 26.4987 67.7036 23.59C68.7044 21.8202 69.2023 20.9229 70.1982 19.1037H70.2031ZM75.1923 9.78604C51.9917 14.6766 23.2006 19.5671 0 24.4577C0 25.5078 0 26.0304 0 27.0755C22.3674 22.885 50.3254 18.6945 72.6977 14.504C73.6985 12.6405 74.1964 11.6989 75.1923 9.78604ZM0 19.2171V21.8349C24.0337 16.2049 53.6581 10.5798 77.6868 4.94971C78.6876 2.99251 79.1856 2.00158 80.1814 0C55.3195 6.40406 24.8669 12.8081 0 19.2171ZM72.6977 35.4614C50.3303 37.0341 22.3723 38.6019 0 40.1745V42.7923C23.2006 41.7078 51.9917 40.6182 75.1923 39.5336C74.1964 37.8821 73.6936 37.0637 72.6977 35.4565V35.4614ZM0 45.42V48.0428C24.8669 48.0428 55.3195 48.0428 80.1864 48.0428C79.1856 46.2976 78.6876 45.4348 77.6918 43.734C53.6581 44.296 24.0337 44.858 0.00492999 45.42H0ZM67.7036 27.6622C46.9976 30.0878 20.706 32.5084 0 34.9339V37.5567C21.5391 35.5403 48.664 33.524 70.2031 31.5027C69.2023 29.9448 68.7044 29.1757 67.7085 27.6622H67.7036Z" fill="black"/>
<path d="M80.187 0L149.192 19.2171V21.8349L77.6875 4.94971L80.187 0Z" fill="#90989C"/>
<path d="M75.1899 9.78613L149.189 24.4578V27.0756L72.6953 14.5041L75.1899 9.78613Z" fill="#90989C"/>
<path d="M70.2026 19.1035L149.191 29.6981V32.3159L67.7031 23.5898L70.2026 19.1035Z" fill="#90989C"/>
<path d="M70.2026 31.5026L149.191 37.5566V34.9388L67.7031 27.6621L70.2026 31.5026Z" fill="#90989C"/>
<path d="M75.1899 39.539L72.6953 35.4619L149.189 40.1799V42.7977L75.1899 39.539Z" fill="#90989C"/>
<path d="M80.187 48.0383L77.6875 43.7295L149.192 45.4205V48.0383H80.187Z" fill="#90989C"/>
</g>
<defs>
<clipPath id="clip0_2124_2302">
<rect width="150" height="98.5111" fill="white"/>
</clipPath>
</defs>
</svg>
