<svg width="220" height="37" viewBox="0 0 220 37" fill="none" xmlns="http://www.w3.org/2000/svg">
<g clip-path="url(#clip0_2124_2225)">
<path d="M49.8867 0.50293H75.1192C82.1154 0.939295 87.0257 5.21184 86.4455 12.5485C86.0283 17.8281 81.5927 21.1464 76.6201 21.7793L88.1286 35.7478H82.5566L71.2303 21.9615H54.5669V35.7478H49.8915V0.50293H49.8867ZM54.5621 17.6458H75.4788C81.8085 17.6458 83.9616 8.87539 78.7779 5.83522C78.1354 5.45639 76.4235 4.81863 75.7186 4.81863H54.5621V17.6458Z" fill="black"/>
<path d="M39.4596 9.60931L35.024 11.7672C32.051 4.66064 23.2278 3.27003 16.4138 4.6079C8.41536 6.18073 4.23872 12.3666 5.30326 20.4417C6.23833 27.5386 11.4987 31.2645 18.3079 32.0126C24.8438 32.7271 32.1325 31.0535 35.0816 24.5992L39.3973 26.7522C37.038 31.7728 31.8208 34.789 26.5029 35.8104C15.589 37.9059 2.31584 33.7916 0.282665 21.5063C-1.48198 10.7698 4.94842 2.55075 15.3588 0.555934C24.1868 -1.13198 35.1295 0.905985 39.4596 9.60931Z" fill="black"/>
<path d="M131.769 0.50293V4.81863H103.957V15.2482H126.374V19.5639H103.957V31.4321H133.447V35.7478H99.2812V0.50293H131.769Z" fill="black"/>
<path d="M177.806 6.97195L173.806 9.7292C170.33 4.96275 163.899 3.86944 158.332 4.21949C154.88 4.43528 148.814 6.04647 149.432 10.6019C149.758 13.0283 152.132 13.7764 154.194 14.2319C161.348 15.8 178.151 13.6325 178.774 24.2971C179.633 38.9513 155.167 38.3902 146.675 32.4202C145.136 31.3413 143.424 29.754 142.57 28.0853L146.579 25.4383C148.603 29.0156 152.012 31.0392 155.987 31.8544C160.917 32.8614 172.627 32.8805 173.921 26.4022C174.487 23.573 173.245 21.8611 170.646 20.9117C164.005 18.4853 149.797 21.137 145.783 14.4861C143.227 10.2567 145.001 4.87164 149.125 2.44046C155.369 -1.23747 166.906 -0.518189 173.14 2.95355C174.837 3.89821 176.818 5.29362 177.81 6.96715L177.806 6.97195Z" fill="black"/>
<path d="M220 0.50293V4.81863H205.375V35.7478H200.7V4.81863H186.074V0.50293H220Z" fill="black"/>
</g>
<defs>
<clipPath id="clip0_2124_2225">
<rect width="220" height="36.3574" fill="white"/>
</clipPath>
</defs>
</svg>
