<svg width="32" height="32" viewBox="0 0 32 32" fill="none" xmlns="http://www.w3.org/2000/svg">
<g id="phone-actions-ring 1" clip-path="url(#clip0_754_2131)">
<path id="Vector" d="M16.4931 30.0525L16.5064 30.0618C17.6585 30.7954 19.0263 31.1139 20.3839 30.9648C21.7415 30.8157 23.0077 30.2079 23.9731 29.2418L24.8117 28.4032C24.9976 28.2174 25.145 27.9969 25.2456 27.7542C25.3462 27.5114 25.398 27.2512 25.398 26.9885C25.398 26.7257 25.3462 26.4656 25.2456 26.2228C25.145 25.9801 24.9976 25.7596 24.8117 25.5738L21.2744 22.0392C21.0887 21.8533 20.8681 21.7059 20.6254 21.6053C20.3827 21.5047 20.1225 21.4529 19.8597 21.4529C19.597 21.4529 19.3368 21.5047 19.0941 21.6053C18.8513 21.7059 18.6308 21.8533 18.4451 22.0392C18.07 22.4141 17.5614 22.6247 17.0311 22.6247C16.5007 22.6247 15.9921 22.4141 15.6171 22.0392L9.96107 16.3818C9.58613 16.0068 9.37549 15.4981 9.37549 14.9678C9.37549 14.4375 9.58613 13.9289 9.96107 13.5538C10.1469 13.3681 10.2944 13.1476 10.3949 12.9048C10.4955 12.6621 10.5473 12.4019 10.5473 12.1392C10.5473 11.8764 10.4955 11.6162 10.3949 11.3735C10.2944 11.1308 10.1469 10.9102 9.96107 10.7245L6.42507 7.18982C6.05001 6.81488 5.5414 6.60425 5.01107 6.60425C4.48074 6.60425 3.97212 6.81488 3.59707 7.18982L2.75707 8.02849C1.79119 8.99406 1.18363 10.2603 1.03478 11.6179C0.885924 12.9755 1.20469 14.3432 1.9384 15.4952L1.9464 15.5085C5.82131 21.2415 10.7593 26.1786 16.4931 30.0525Z" stroke="white" stroke-width="2" stroke-linecap="round" stroke-linejoin="round"/>
<path id="Vector_2" d="M15 11C16.5913 11 18.1174 11.6321 19.2426 12.7574C20.3679 13.8826 21 15.4087 21 17" stroke="white" stroke-width="2" stroke-linecap="round" stroke-linejoin="round"/>
<path id="Vector_3" d="M15 6C17.9174 6 20.7153 7.15893 22.7782 9.22183C24.8411 11.2847 26 14.0826 26 17" stroke="white" stroke-width="2" stroke-linecap="round" stroke-linejoin="round"/>
<path id="Vector_4" d="M15 1C19.2435 1 23.3131 2.68571 26.3137 5.68629C29.3143 8.68687 31 12.7565 31 17" stroke="white" stroke-width="2" stroke-linecap="round" stroke-linejoin="round"/>
</g>
<defs>
<clipPath id="clip0_754_2131">
<rect width="32" height="32" fill="white"/>
</clipPath>
</defs>
</svg>
