<svg width="448" height="416" viewBox="0 0 448 416" fill="none" xmlns="http://www.w3.org/2000/svg">
<path d="M215.687 0L214.985 135.748C214.985 168 209.833 201.455 199.528 236.114C189.224 270.773 174.939 303.747 156.672 335.037C138.405 366.326 117.563 393.042 94.1437 415.186L0 359.587C18.2667 327.816 32.5522 294.12 42.8565 258.498C53.6291 222.877 59.0154 182.2 59.0154 136.47V0H215.687ZM447.534 0V135.748C447.534 168 441.913 201.455 430.672 236.114C419.431 270.773 404.209 303.747 385.006 335.037C366.27 366.326 345.194 393.042 321.775 415.186L227.631 359.587C245.898 327.816 260.886 294.12 272.595 258.498C284.773 222.877 290.862 182.2 290.862 136.47V0H447.534Z" fill="#FF7C01"/>
</svg>
